<svg width="240" height="172" viewBox="0 0 240 172" fill="none" xmlns="http://www.w3.org/2000/svg">
<g clip-path="url(#clip0)">
<path d="M46.9183 28.8826C51.5337 28.8826 55.2753 25.141 55.2753 20.5256C55.2753 15.9101 51.5337 12.1686 46.9183 12.1686C42.3028 12.1686 38.5613 15.9101 38.5613 20.5256C38.5613 25.141 42.3028 28.8826 46.9183 28.8826Z" fill="#2C1D01"/>
<path d="M21.4648 121.137L26.5992 103.331L28.3471 103.877C28.3471 103.877 26.2715 117.205 22.9942 120.591L21.4648 121.137Z" fill="#2C1D01"/>
<path d="M41.0192 25.5507C41.0192 25.5507 41.6746 32.5422 40.1453 34.5085C38.6159 36.4749 41.1284 40.2983 41.1284 40.2983L45.7166 45.7604L52.4896 42.7016L53.4728 37.0211L52.8173 33.0884C52.8173 33.0884 50.5232 30.7943 51.5064 26.6431C52.4896 22.4919 41.0192 25.5507 41.0192 25.5507Z" fill="#FEE2AD"/>
<path opacity="0.1" d="M41.0192 25.5507C41.0192 25.5507 41.6746 32.5422 40.1453 34.5085C38.6159 36.4749 41.1284 40.2983 41.1284 40.2983L45.7166 45.7604L52.4896 42.7016L53.4728 37.0211L52.8173 33.0884C52.8173 33.0884 50.5232 30.7943 51.5064 26.6431C52.4896 22.4919 41.0192 25.5507 41.0192 25.5507Z" fill="#CACACA"/>
<path d="M44.9519 156.313V160.792L50.9601 161.994L50.4139 154.565L44.9519 156.313Z" fill="#FEE2AD"/>
<path d="M62.9769 154.565L61.6658 160.792L64.2877 162.649L68.8759 159.263L68.3297 153.91L62.9769 154.565Z" fill="#FEE2AD"/>
<path d="M51.5062 161.447C51.5062 161.447 49.2121 157.57 44.9517 160C44.9517 160 44.187 164.288 43.4223 164.615C42.6576 164.943 38.3971 171.17 43.4223 171.716C48.4474 172.262 50.9599 170.624 50.9599 170.624C50.9599 170.624 49.9768 171.47 51.5062 171.033C53.0355 170.596 52.3801 168.192 52.3801 168.192L51.5062 161.447Z" fill="#2C1D01"/>
<path d="M66.4725 158.826C66.4725 158.826 63.086 161.229 62.5398 160.137C61.9936 159.044 61.1196 159.153 61.1196 159.153C61.1196 159.153 58.0608 170.684 60.0272 171.23C61.2934 171.542 62.6233 171.473 63.8507 171.033C63.8507 171.033 66.4725 169.197 66.4725 170.617C66.4725 172.037 73.7917 171.935 76.8504 171.825C79.9092 171.716 78.2706 169.422 78.2706 169.422L74.2286 165.489L69.6405 158.826C69.6405 158.826 67.5649 156.969 66.4725 158.826Z" fill="#2C1D01"/>
<path d="M34.2461 85.7429L38.8342 129.767C38.8342 129.767 41.3468 156.641 41.7838 157.078C42.2207 157.515 45.061 158.935 51.2878 157.078L49.8677 121.902L52.4895 100.054L58.4977 115.129C58.4977 115.129 59.9179 155.658 60.9011 155.658C61.8842 155.658 67.8925 157.624 69.3127 155.221C70.7328 152.817 70.5143 126.927 70.5143 126.927C70.5143 126.927 69.8589 86.0706 65.0522 84.7597C60.2456 83.4488 34.2461 85.7429 34.2461 85.7429Z" fill="#2C1D01"/>
<path d="M46.9181 29.5927C51.081 29.5927 54.4557 26.218 54.4557 22.055C54.4557 17.8921 51.081 14.5173 46.9181 14.5173C42.7551 14.5173 39.3804 17.8921 39.3804 22.055C39.3804 26.218 42.7551 29.5927 46.9181 29.5927Z" fill="#FEE2AD"/>
<path d="M47.3552 43.0294C47.3552 43.0294 46.5905 38.332 46.5905 37.4581C46.5905 36.5841 43.204 36.0379 43.204 36.0379C43.204 36.0379 40.5822 33.0884 40.036 33.5254C39.4898 33.9623 31.1874 39.5337 29.8765 40.2984C28.5656 41.063 27.1455 44.3403 27.2547 44.5588C27.364 44.7773 34.1369 58.9787 34.1369 58.9787C34.1369 58.9787 37.0865 67.718 35.0109 72.3062C32.9353 76.8943 30.3135 85.9614 34.1369 87.8185C37.9604 89.6756 56.5315 93.7175 59.918 90.2218C63.3045 86.7261 65.7078 85.7429 66.5817 85.7429C67.4557 85.7429 62.9767 70.5583 63.9599 69.1382C64.9431 67.718 63.523 58.8695 63.523 58.8695L68.5481 44.7773C68.5481 44.7773 68.1111 36.9119 58.1701 35.164L52.223 32.2805L47.3552 43.0294Z" fill="#FCB22A"/>
<path d="M26.927 87.7093C26.927 87.7093 26.3808 92.9529 26.3808 94.4823C26.3808 96.0117 23.759 104.97 27.5824 106.062C31.4059 107.154 31.0782 94.1546 31.0782 94.1546V87.4908L26.927 87.7093Z" fill="#FEE2AD"/>
<path d="M72.2623 82.7933C72.2623 82.7933 72.9178 87.8185 72.59 88.9109C72.2623 90.0033 75.7581 99.5073 71.0607 100.054C66.3633 100.6 67.5649 88.6924 67.5649 88.6924V82.7934L72.2623 82.7933Z" fill="#FEE2AD"/>
<path d="M25.9436 119.389L29.1116 102.566H30.0948C30.7822 103.452 31.2331 104.499 31.4051 105.607C31.5771 106.715 31.4645 107.849 31.078 108.902C29.7671 112.616 28.6746 119.389 28.6746 119.389H25.9436Z" fill="#2C1D01"/>
<path d="M28.8934 43.2478L27.2547 44.5587C27.2547 44.5587 25.0699 79.2976 25.6161 81.9194C26.1623 84.5412 23.6498 88.2554 25.8346 88.5831C28.0194 88.9108 30.6412 90.331 31.8429 89.457C33.0445 88.5831 33.263 85.4151 33.7 84.6504C34.137 83.8857 34.9016 74.8187 34.9016 74.8187C34.9016 74.8187 37.1957 65.7516 35.7756 58.9786C34.3554 52.2056 33.0445 45.3234 33.0445 45.3234L28.8934 43.2478Z" fill="#FCB22A"/>
<path d="M63.523 40.5168L68.5481 44.7773L72.3716 67.0626C72.3716 67.0626 74.7749 84.432 72.9178 84.6505C71.0607 84.869 68.2204 84.3228 67.0187 84.6505C65.8171 84.9782 64.8339 84.1043 64.8339 84.1043C64.8339 84.1043 63.523 77.1128 63.523 77.0036C63.523 76.8943 62.6491 68.9197 62.6491 68.9197L61.5566 59.9619L63.1953 50.1301L63.523 40.5168Z" fill="#FCB22A"/>
<path d="M39.8175 143.641C39.8175 143.641 39.1074 145.681 38.1286 148.458C37.6742 149.749 37.1618 151.201 36.6342 152.681C36.2944 153.638 35.9492 154.607 35.6095 155.553C35.0676 157.066 34.5411 158.519 34.0812 159.766C33.4738 161.412 32.9811 162.703 32.7168 163.305C31.5151 166.036 9.55751 161.666 7.80965 160.573C6.06178 159.481 5.62481 155.767 5.40633 150.523C5.40524 150.496 5.40414 150.469 5.40414 150.441C5.37574 149.383 5.64556 147.806 6.09675 145.957C6.32177 145.033 6.59269 144.041 6.8942 143.011C7.2984 141.629 7.75722 140.18 8.23677 138.738C10.2971 132.544 12.7255 126.49 12.7255 126.49C12.7255 126.49 16.986 123.541 18.5153 121.574C20.0447 119.608 28.4563 118.078 28.4563 118.078C30.8597 118.188 36.3218 127.473 38.5066 130.314C40.6914 133.154 39.8175 143.641 39.8175 143.641Z" fill="#6F4902"/>
<path d="M27.5825 127.036C28.1255 127.036 28.5657 126.596 28.5657 126.053C28.5657 125.51 28.1255 125.07 27.5825 125.07C27.0395 125.07 26.5994 125.51 26.5994 126.053C26.5994 126.596 27.0395 127.036 27.5825 127.036Z" fill="#2C1D01"/>
<path d="M29.1116 127.692C29.4133 127.692 29.6578 127.447 29.6578 127.146C29.6578 126.844 29.4133 126.599 29.1116 126.599C28.81 126.599 28.5654 126.844 28.5654 127.146C28.5654 127.447 28.81 127.692 29.1116 127.692Z" fill="#2C1D01"/>
<path d="M38.1286 148.458C37.6741 149.749 37.1618 151.201 36.6341 152.681L6.89417 143.011C7.29837 141.629 7.75718 140.18 8.23674 138.738L38.1286 148.458Z" fill="#F2F2F2"/>
<path d="M35.6095 155.553C35.0676 157.066 34.5411 158.519 34.0812 159.766L5.40414 150.441C5.37574 149.383 5.64556 147.806 6.09675 145.957L35.6095 155.553Z" fill="#F2F2F2"/>
<path d="M27.5823 126.272C27.5823 126.272 29.7671 135.885 28.4562 144.406C27.1453 152.927 31.7335 160.901 31.7335 160.901" stroke="#2C1D01" stroke-width="3" stroke-miterlimit="10"/>
<path d="M29.1118 127.036C29.1118 127.036 24.8514 142.549 24.7421 144.733C24.6329 146.918 22.885 162.54 20.7002 164.178" stroke="#2C1D01" stroke-width="3" stroke-miterlimit="10"/>
<path d="M41.1315 17.4554C41.1315 17.4554 39.4253 13.0192 41.8993 11.5689L42.5818 13.5311C42.5818 13.5311 48.8094 9.77743 50.4303 10.6305L48.8947 12.678C48.8947 12.678 56.1461 12.678 56.658 15.4932L54.0987 15.5785C54.0987 15.5785 56.8286 17.3701 56.9139 20.2706L51.4541 20.6119L54.0987 22.1474C54.0987 22.1474 44.2027 23.5124 41.814 19.5881L41.1315 17.4554Z" fill="#2C1D01"/>
<path d="M39.6536 17.6307C39.6536 17.6307 41.6199 21.5634 44.2417 20.5803C46.8635 19.5971 44.2417 15.9921 44.2417 15.9921L42.4938 15.1182L39.6536 17.6307Z" fill="#2C1D01"/>
<path d="M164.913 35.9115C170.464 35.9115 174.965 31.411 174.965 25.8595C174.965 20.3079 170.464 15.8075 164.913 15.8075C159.361 15.8075 154.861 20.3079 154.861 25.8595C154.861 31.411 159.361 35.9115 164.913 35.9115Z" fill="#F2F2F2"/>
<path d="M102.016 70.6494L98.9404 74.2089L109.302 83.1623L112.378 79.6029L102.016 70.6494Z" fill="#FDC45B"/>
<path d="M168.626 134.304L165.55 137.864L174.735 145.8L177.81 142.241L168.626 134.304Z" fill="#FDC45B"/>
<path d="M185.221 107.792V108.068C185.215 108.761 185.195 109.451 185.162 110.138C184.564 121.892 179.493 132.972 170.989 141.108C162.485 149.244 151.191 153.819 139.422 153.896C127.653 153.973 116.301 149.546 107.691 141.522C99.0809 133.498 93.8658 122.485 93.1142 110.74C93.0515 109.765 93.0201 108.782 93.0201 107.792C93.0035 98.2442 95.9669 88.9288 101.497 81.145C101.939 80.5178 102.399 79.9021 102.877 79.2979C103.206 78.8777 103.545 78.4668 103.887 78.0591C111.669 68.8398 122.754 63.0379 134.765 61.8981C146.776 60.7584 158.755 64.3716 168.133 71.9626C168.688 72.411 169.233 72.8752 169.766 73.3487C170.193 73.7282 170.612 74.116 171.024 74.5122C179.136 82.2713 184.129 92.7299 185.061 103.916C185.168 105.196 185.221 106.488 185.221 107.792Z" fill="#6F4902"/>
<path d="M139.121 159.695C110.502 159.695 87.2185 136.411 87.2185 107.792C87.2016 94.6984 92.1506 82.0852 101.067 72.4965L102.217 73.5632C93.5694 82.8621 88.7701 95.0941 88.7866 107.792C88.7866 135.547 111.366 158.127 139.121 158.127C145.864 158.149 152.543 156.806 158.753 154.177C164.963 151.549 170.577 147.69 175.255 142.833L176.381 143.924C171.557 148.933 165.769 152.912 159.365 155.622C152.961 158.333 146.075 159.718 139.121 159.695Z" fill="#FDC45B"/>
<path d="M146.647 158.597H133.476V171.769H146.647V158.597Z" fill="#FDC45B"/>
<path d="M102.877 79.2979C102.899 79.3074 102.921 79.3201 102.94 79.3356C103.187 79.5394 102.877 79.9314 102.914 80.2544C102.958 80.6684 103.51 80.7593 103.927 80.8001C104.344 80.844 104.871 81.1796 104.674 81.5497C103.626 81.9103 102.566 81.5559 101.497 81.1451C95.9669 88.9288 93.0035 98.2442 93.0201 107.792C93.0201 108.783 93.0515 109.766 93.1142 110.74C93.2019 110.804 93.2979 110.856 93.3996 110.894C93.7132 111.013 94.077 110.991 94.3655 111.161C94.5944 111.295 94.7481 111.534 94.977 111.659C95.6325 112.017 96.5419 111.33 97.1535 111.756C97.3115 111.9 97.4613 112.053 97.6019 112.214C98.1664 112.704 99.0947 112.374 99.747 112.741C100.167 112.976 100.384 113.447 100.609 113.873C101.171 114.94 102.08 115.987 103.281 116.072C103.66 116.054 104.04 116.067 104.417 116.109C104.787 116.194 105.15 116.517 105.091 116.89C104.987 117.533 105.304 118.236 105.219 118.879C105.066 120.055 103.401 120.569 103.259 121.745C103.259 122.004 103.244 122.262 103.216 122.52C103.14 122.827 102.908 123.078 102.827 123.385C102.67 123.965 103.087 124.545 103.542 124.934C104 125.326 104.545 125.665 104.796 126.211C105.06 126.791 104.931 127.465 105.016 128.095C105.204 129.472 106.392 130.491 107.615 131.15C108.007 131.314 108.355 131.567 108.632 131.89C108.945 132.345 108.914 132.944 109.02 133.486C109.278 134.813 110.394 135.907 110.425 137.259C110.447 138.222 109.914 139.094 109.594 140C109.265 140.95 109.167 141.965 109.309 142.961C111.097 144.477 112.998 145.856 114.995 147.084C115.103 146.924 115.183 146.746 115.23 146.558C115.268 146.35 115.242 146.135 115.155 145.943C115.068 145.75 114.925 145.588 114.744 145.479C115.081 145.351 115.387 145.155 115.644 144.902C115.77 144.772 115.853 144.607 115.882 144.429C115.911 144.25 115.885 144.067 115.807 143.904C116.359 143.973 117.014 144.008 117.378 143.585C117.67 143.246 117.651 142.738 117.535 142.308C117.376 141.891 117.27 141.454 117.221 141.01C118.5 141.072 119.782 141.029 121.054 140.881C120.87 140.261 120.451 139.737 119.887 139.42C120.464 139.323 120.988 138.633 121.17 138.078C121.327 137.511 121.336 136.914 121.195 136.343C121.151 136.197 121.145 136.042 121.176 135.892C121.269 135.693 121.432 135.535 121.634 135.45C122.587 134.901 123.54 134.353 124.494 133.806C124.664 133.72 124.819 133.607 124.952 133.471C125.25 133.116 125.206 132.586 125.052 132.15C124.898 131.715 124.654 131.304 124.594 130.846C124.419 129.475 125.886 128.491 126.382 127.199C126.55 126.683 126.641 126.145 126.651 125.602C126.692 125.019 126.695 124.345 126.25 123.972C125.82 123.611 125.152 123.692 124.704 123.357C124.293 123.049 124.152 122.457 123.704 122.209C123.296 121.983 122.788 122.127 122.333 122.021C121.537 121.836 121.035 120.917 120.219 120.832C119.762 120.782 119.241 121.008 118.865 120.741C118.532 120.503 118.52 120.029 118.457 119.628C118.346 119.003 118.045 118.427 117.597 117.977C117.148 117.527 116.573 117.226 115.948 117.113C115.474 117.038 114.96 117.066 114.556 116.806C114.148 116.542 113.963 116.05 113.64 115.683C113.126 115.096 112.31 114.886 111.548 114.708C110.513 114.466 109.479 114.224 108.447 113.98C107.898 113.848 107.189 113.779 106.891 114.262C106.803 114.446 106.742 114.641 106.709 114.842C106.597 115.204 106.374 115.522 106.071 115.749C105.768 115.977 105.401 116.103 105.022 116.109C104.763 115.667 104.342 115.341 103.849 115.2C103.527 115.146 103.208 115.07 102.896 114.974C102.732 114.894 102.587 114.782 102.469 114.644C102.351 114.506 102.262 114.345 102.208 114.172C102.154 113.998 102.136 113.815 102.155 113.635C102.174 113.454 102.23 113.279 102.319 113.121C102.496 112.802 102.565 112.435 102.513 112.074C102.462 111.713 102.293 111.379 102.033 111.123C101.506 110.649 100.744 110.533 100.036 110.58C99.8505 110.176 100.161 109.721 100.493 109.426C100.829 109.135 101.234 108.846 101.306 108.407C101.422 107.717 100.54 107.193 99.8725 107.397C99.2045 107.604 98.778 108.253 98.4957 108.893C98.3588 109.271 98.1722 109.628 97.9406 109.956C97.822 110.119 97.6608 110.245 97.4748 110.321C97.2888 110.398 97.0854 110.421 96.8869 110.389C96.3349 110.248 96.1248 109.593 96.0025 109.041C95.8065 108.303 95.7074 107.543 95.7077 106.779C95.7125 106.009 96.0187 105.27 96.5608 104.722C97.4734 103.882 98.8783 103.963 100.111 104.098C99.9788 103.922 99.9155 103.704 99.9328 103.485C99.9502 103.265 100.047 103.06 100.205 102.906C100.37 102.76 100.568 102.656 100.782 102.604C100.996 102.551 101.22 102.552 101.434 102.605C101.806 102.682 102.141 102.882 102.384 103.173C102.736 103.6 102.836 104.18 103.1 104.663C103.366 105.149 103.962 105.563 104.448 105.302C104.871 105.077 104.937 104.493 104.834 104.026C104.727 103.562 104.504 103.107 104.542 102.63C104.614 101.724 105.558 101.175 106.389 100.802C107.22 100.429 108.171 99.924 108.302 99.0208C108.308 98.8451 108.342 98.6715 108.403 98.5065C108.495 98.3591 108.623 98.2381 108.776 98.1552C111.2 96.5527 113.668 94.9282 116.44 94.0532C116.585 94.0062 116.6 94.0564 116.748 94.0219C116.955 93.9027 116.817 93.5734 116.619 93.4417C116.422 93.31 116.158 93.2065 116.108 92.9744C116.073 92.8051 116.174 92.6357 116.199 92.4632C116.206 92.3591 116.186 92.2549 116.143 92.1598C116.1 92.0647 116.034 91.9816 115.952 91.9178C115.869 91.8541 115.772 91.8116 115.669 91.794C115.566 91.7765 115.461 91.7844 115.362 91.8172C115.139 91.5224 115.578 91.1806 115.936 91.0802C117.006 90.787 118.105 90.6083 119.213 90.5471C119.341 90.526 119.472 90.548 119.586 90.6098C119.667 90.6884 119.716 90.7953 119.721 90.9084C119.726 91.0215 119.688 91.1324 119.614 91.2182C119.463 91.3858 119.296 91.5381 119.116 91.6729C118.936 91.8477 118.807 92.0685 118.744 92.3113C118.681 92.554 118.686 92.8095 118.758 93.0497C119.338 93.3445 119.965 93.6487 120.608 93.5452C121.248 93.4417 121.816 92.7204 121.515 92.1465C121.236 91.6102 120.392 91.4879 120.248 90.9015C120.078 90.2147 121.05 89.6031 120.831 88.932C120.737 88.6372 120.442 88.4616 120.216 88.2515C119.951 87.9898 119.77 87.6542 119.698 87.2884C119.626 86.9225 119.665 86.5434 119.812 86.2005C119.445 86.2646 119.067 86.24 118.712 86.1287C118.356 86.0174 118.032 85.8227 117.767 85.5607C117.278 85.0683 116.889 84.2875 116.193 84.3125C115.556 84.3314 115.007 85.0746 114.411 84.8488C114.264 84.7924 114.11 84.6795 113.969 84.7453C113.923 84.7753 113.883 84.8154 113.855 84.8626C113.826 84.9099 113.808 84.9631 113.803 85.0182C113.652 85.7426 113.913 86.5674 113.518 87.1946C113.088 87.8751 112.094 87.9692 111.573 88.5839C111.291 88.9163 111.181 89.3648 110.921 89.716C110.661 90.0673 110.112 90.2931 109.798 89.9857C109.952 89.6709 109.994 89.3132 109.917 88.9713C109.841 88.6295 109.651 88.3237 109.378 88.1041C109.089 87.9145 108.777 87.7627 108.45 87.6525C108.084 87.4981 107.736 87.3046 107.412 87.0754C107.25 86.977 107.119 86.836 107.032 86.6678C106.964 86.4563 106.973 86.2273 107.057 86.0217C107.216 85.5688 107.495 85.1677 107.865 84.8616C108.235 84.5555 108.681 84.3559 109.155 84.2843C109.569 84.2279 110.052 84.2467 110.328 83.93C110.472 83.7637 110.548 83.5097 110.761 83.4438C110.895 83.4158 111.035 83.4323 111.159 83.4909C111.677 83.6728 112.191 83.8547 112.708 84.0366C112.881 84.1157 113.072 84.1471 113.26 84.1275C113.354 84.1155 113.439 84.0682 113.499 83.9954C113.559 83.9226 113.589 83.8297 113.583 83.7355C113.533 83.4784 113.138 83.356 113.176 83.0958C113.194 83.0107 113.239 82.9338 113.304 82.8762C113.864 82.2813 114.548 81.8173 115.307 81.5175C116.067 81.2177 116.883 81.0895 117.698 81.142C117.892 81.465 117.585 81.8444 117.325 82.1173C117.068 82.3933 116.861 82.8825 117.174 83.0926C117.301 83.159 117.442 83.1914 117.585 83.1867C117.966 83.2379 118.337 83.3501 118.683 83.5191C119.219 83.7512 119.746 84.0084 120.26 84.2843C120.184 83.9481 120.197 83.598 120.298 83.2682C120.354 83.1064 120.469 82.9715 120.62 82.8897C120.771 82.808 120.947 82.7853 121.113 82.8261C121.421 82.9452 121.577 83.3529 121.907 83.3905C122.343 83.4407 122.515 82.7947 122.333 82.3933C122.151 81.9918 121.787 81.6594 121.759 81.2172C121.737 80.9224 121.85 80.5555 121.615 80.3768C121.531 80.3214 121.436 80.2869 121.336 80.2764C119.366 79.9158 117.396 79.5541 115.424 79.1913C115.073 79.1255 114.568 79.1756 114.552 79.53C114.543 79.7307 114.722 79.9283 114.643 80.1102C114.559 80.3046 114.283 80.2889 114.082 80.3579C113.931 80.4264 113.807 80.542 113.728 80.6874C113.648 80.8329 113.619 81.0001 113.643 81.1639C113.697 81.49 113.823 81.7998 114.013 82.0703C113.627 81.9103 113.047 81.8821 112.661 81.719C112.605 81.2724 112.491 80.8349 112.323 80.4175C112.313 80.3511 112.289 80.2876 112.252 80.2315C112.215 80.1754 112.167 80.128 112.11 80.0928C112.052 80.0575 111.988 80.0352 111.922 80.0273C111.855 80.0195 111.787 80.0264 111.724 80.0475C111.216 80.1259 110.708 80.2011 110.2 80.2795C110.072 80.2856 109.95 80.3329 109.852 80.4144C109.654 80.6245 109.848 80.9601 109.842 81.2486C109.824 81.4099 109.756 81.5615 109.647 81.6824C109.539 81.8032 109.395 81.8872 109.237 81.9229C108.918 81.9877 108.588 81.9834 108.271 81.9103C107.559 81.8005 106.85 81.6908 106.138 81.581C106.767 81.3808 107.326 81.0068 107.75 80.5022C108.033 80.1698 108.183 79.5488 107.775 79.392C107.655 79.359 107.529 79.3494 107.405 79.3638C106.439 79.3701 105.677 78.5641 104.774 78.2223C104.49 78.1163 104.19 78.0611 103.887 78.0592L102.877 79.2979Z" fill="#FDC45B"/>
<path d="M185.161 110.138C185.051 110.287 184.906 110.406 184.738 110.485C184.571 110.564 184.387 110.601 184.202 110.593C183.22 110.508 182.806 109.094 181.834 108.934C181.748 108.912 181.657 108.921 181.577 108.959C181.433 109.037 181.408 109.232 181.398 109.395C181.357 110.204 181.323 111.044 181.64 111.791C182.101 112.882 183.295 113.798 183.045 114.955C181.696 114.331 180.994 112.816 180.677 111.364C180.357 109.912 180.307 108.388 179.736 107.015C179.3 107.57 178.391 107.112 177.995 106.529C177.619 105.977 177.387 105.337 177.023 104.775C176.659 104.217 176.101 103.715 175.436 103.684C174.737 103.653 174.129 104.133 173.596 104.587C173.132 104.93 172.742 105.363 172.451 105.861C172.078 106.613 172.175 107.498 172.156 108.335C172.137 109.238 171.946 110.195 171.328 110.859C170.71 111.521 169.572 111.753 168.891 111.154C168.562 110.811 168.328 110.389 168.211 109.928C167.471 107.772 166.855 105.575 166.367 103.349C166.254 103.857 165.805 104.512 165.379 104.214C165.284 104.133 165.207 104.032 165.153 103.919C164.357 102.574 162.886 101.765 161.396 101.279C159.91 100.796 158.345 100.57 156.874 100.037C156.049 99.7373 155.261 99.3448 154.525 98.867C154.338 99.1424 154.229 99.4632 154.209 99.7955C154.189 100.128 154.259 100.459 154.412 100.755C154.577 101.044 154.834 101.271 155.141 101.4C155.448 101.528 155.79 101.552 156.112 101.467C156.438 101.36 156.714 101.134 157.037 101.022C157.36 100.912 157.796 100.965 157.937 101.279C158.075 101.577 157.868 101.937 157.972 102.251C158.125 102.724 158.843 102.762 159.094 103.195C159.168 103.366 159.185 103.557 159.143 103.738C159.1 103.92 159.001 104.084 158.859 104.205C158.57 104.44 158.252 104.636 157.912 104.788C156.858 105.374 156.109 106.375 155.187 107.153C154.265 107.933 152.963 108.501 151.866 108.002C152.126 106.676 150.548 105.704 150.257 104.383C150.16 103.948 150.21 103.486 150.075 103.063C149.877 102.448 149.332 102.028 148.886 101.564C148.345 100.994 147.924 100.322 147.646 99.5868C147.369 98.8517 147.241 98.0685 147.271 97.2833C147.296 96.7376 147.397 96.1825 147.271 95.6494C147.149 95.1194 146.707 94.6051 146.161 94.6271C144.916 94.6835 143.345 94.7776 142.693 93.7145C142.457 93.335 142.357 92.7799 142.696 92.4882C142.828 92.4043 142.976 92.3475 143.13 92.3212C143.285 92.2948 143.443 92.2993 143.596 92.3346C144.533 92.4255 145.468 92.5196 146.406 92.6105C147.061 92.6733 147.77 92.7266 148.334 92.3847C148.899 92.0429 149.143 91.1303 148.62 90.7257C148.24 90.431 147.557 90.4466 147.444 89.9794C147.353 89.5874 147.786 89.1452 147.55 88.8159C147.384 88.5838 147.008 88.6465 146.779 88.8221C146.579 89.0296 146.362 89.2195 146.13 89.3898C145.681 89.6218 145.148 89.3992 144.665 89.2487C144.182 89.0981 143.536 89.0856 143.304 89.534C143.041 90.0327 143.533 90.6912 143.276 91.193C142.931 91.8547 141.771 91.4784 141.288 92.0492C140.736 92.7015 141.664 93.6799 141.479 94.5141C141.241 94.6323 140.976 94.6866 140.71 94.6718C140.445 94.6569 140.188 94.5734 139.964 94.4295C139.745 94.2802 139.57 94.0742 139.458 93.8334C139.347 93.5926 139.303 93.326 139.331 93.0621C139.375 92.6858 139.572 92.3001 139.44 91.9457C139.298 91.672 139.064 91.4575 138.779 91.3404C137.869 90.8355 136.96 90.3327 136.05 89.832C135.796 90.3024 136.116 90.8825 136.518 91.2369C136.916 91.5882 137.418 91.8547 137.681 92.3189C137.848 92.6405 137.886 93.0138 137.786 93.3623C137.687 93.7108 137.459 94.0084 137.148 94.1942C137.109 94.2213 137.064 94.2396 137.017 94.2477C136.97 94.2558 136.921 94.2536 136.875 94.2413C136.832 94.2158 136.794 94.1818 136.764 94.1414C136.733 94.101 136.712 94.055 136.699 94.0061C136.22 92.7736 135.495 91.5599 134.341 90.917C133.184 90.271 131.525 90.4059 130.766 91.4878C130.587 91.745 130.465 92.0397 130.308 92.3126C129.477 93.7583 127.689 94.442 126.021 94.3981C125.858 94.4085 125.695 94.3703 125.554 94.2883C125.284 94.1033 125.297 93.7081 125.337 93.382C125.397 92.921 125.453 92.4631 125.513 92.0021C125.514 91.7206 125.623 91.4503 125.817 91.2463C126.128 91.0017 126.573 91.1554 126.968 91.1491C127.266 91.1358 127.553 91.0308 127.79 90.8484C128.026 90.6659 128.2 90.415 128.288 90.1299C128.368 89.8421 128.367 89.5381 128.287 89.2507C128.206 88.9633 128.048 88.7034 127.831 88.4991C127.652 88.3298 127.41 88.1165 127.504 87.8876C127.543 87.8245 127.594 87.7705 127.655 87.7294C127.717 87.6882 127.786 87.6609 127.859 87.6492C128.564 87.4454 129.314 87.3921 130.007 87.1475C130.703 86.906 131.378 86.4105 131.544 85.6923C131.594 85.4728 131.616 85.2062 131.813 85.0964C131.913 85.0564 132.02 85.0352 132.127 85.0337C132.504 84.9797 132.847 84.7866 133.089 84.4924C133.331 84.1982 133.455 83.8241 133.435 83.4437C133.767 83.2117 134.234 83.3841 134.557 83.6319C134.877 83.8796 135.163 84.2058 135.555 84.3124C136.285 84.5131 136.991 83.864 137.75 83.8608C138.07 83.8608 138.399 83.9737 138.697 83.864C139.001 83.7542 139.183 83.4531 139.415 83.2305C139.651 83.0047 140.058 82.8698 140.275 83.1113C140.212 82.6566 140.152 82.205 140.09 81.7534C140.459 81.8464 140.844 81.8593 141.219 81.7912C141.594 81.723 141.95 81.5754 142.263 81.3582C141.473 81.0917 140.685 80.8251 139.895 80.5585C139.812 80.5381 139.736 80.4971 139.672 80.4394C139.5 80.2543 139.672 79.9658 139.81 79.7557C140.146 79.2508 140.202 78.4197 139.651 78.1688C139.274 77.9963 138.845 78.2033 138.484 78.404C137.907 78.7239 137.33 79.0469 136.753 79.3668C136.699 79.6961 137.101 79.8843 137.349 80.1038C137.5 80.2377 137.606 80.4142 137.655 80.61C137.704 80.8059 137.692 81.0119 137.622 81.2009C137.551 81.39 137.425 81.5533 137.26 81.6692C137.095 81.7852 136.898 81.8484 136.696 81.8506C136.81 81.999 136.889 82.1709 136.928 82.3538C136.966 82.5367 136.963 82.7258 136.919 82.9075C136.533 82.9357 136.144 82.9639 135.755 82.9921C135.691 83.005 135.624 83.005 135.56 82.9921C135.495 82.9792 135.434 82.9536 135.379 82.9169C135.254 82.8071 135.273 82.6127 135.241 82.4496C135.19 82.2547 135.081 82.0797 134.929 81.9472C134.777 81.8147 134.588 81.7308 134.388 81.7063C133.989 81.6614 133.584 81.6988 133.2 81.8161C133.032 81.875 132.849 81.8705 132.685 81.8036C132.592 81.742 132.522 81.6517 132.485 81.5464C132.416 81.3313 132.405 81.1023 132.451 80.8815C132.497 80.6606 132.599 80.4554 132.748 80.2857C133.049 79.9512 133.381 79.6457 133.739 79.3731C134.55 78.6627 135.147 77.7393 135.461 76.7074C136.1 76.4377 136.762 76.0739 137.405 75.8042C137.922 75.5647 138.464 75.3828 139.02 75.2617C139.544 75.1817 140.075 75.1565 140.604 75.1864C141.325 75.199 142.05 75.2115 142.771 75.2272C143.415 75.2001 144.058 75.2926 144.668 75.5C145.261 75.7446 145.785 76.2746 145.825 76.9144C145.838 76.9873 145.831 77.0622 145.807 77.1319C145.782 77.2016 145.74 77.2638 145.684 77.3127C145.601 77.3587 145.507 77.3805 145.412 77.3754C144.813 77.3942 144.558 77.5447 143.96 77.5667C144.339 77.9713 144.765 78.3978 145.317 78.4699C146.29 78.5953 146.989 77.5886 147.437 76.7137C147.453 76.9364 147.556 77.144 147.723 77.2923C147.89 77.4405 148.108 77.5176 148.331 77.5071C148.571 77.4658 148.801 77.3762 149.005 77.2437C150.934 76.1895 153.095 75.6313 155.293 75.6192C155.272 75.4528 155.313 75.2843 155.408 75.1464C155.504 75.0084 155.647 74.911 155.811 74.8728C156.259 74.785 156.661 75.1707 156.877 75.5721C157.09 75.9736 157.225 76.4377 157.57 76.7388C157.912 77.0398 158.574 77.0242 158.709 76.5914C158.84 76.1743 158.404 75.8168 158.044 75.569C157.68 75.3244 157.3 74.8697 157.545 74.5059C159.389 74.0951 161.249 73.6873 163.14 73.6058C163.461 73.6156 163.781 73.5601 164.081 73.4427C164.229 73.38 164.352 73.27 164.432 73.13C164.511 72.9899 164.542 72.8276 164.52 72.6681C164.107 72.7644 163.675 72.736 163.279 72.5863C162.882 72.4367 162.539 72.1726 162.293 71.8277C164.234 71.6677 166.266 71.5266 168.132 71.9625L169.766 73.3487C169.456 73.6717 169.042 73.9759 169.268 74.2989C169.342 74.3731 169.433 74.4294 169.532 74.4636C169.631 74.4978 169.737 74.5091 169.842 74.4965C170.237 74.5027 170.632 74.5122 171.024 74.5122C179.136 82.2712 184.128 92.7298 185.061 103.916C184.402 103.891 183.797 104.725 183.882 105.453C183.982 106.296 184.591 106.974 185.027 107.701C185.099 107.82 185.164 107.942 185.221 108.068L185.161 110.138Z" fill="#FDC45B"/>
<path d="M0 171.73H239.413" stroke="#6F4902" stroke-width="2" stroke-miterlimit="10"/>
<path d="M98.7717 21.5755C100.969 21.5755 102.75 19.7944 102.75 17.5972C102.75 15.4001 100.969 13.619 98.7717 13.619C96.5746 13.619 94.7935 15.4001 94.7935 17.5972C94.7935 19.7944 96.5746 21.5755 98.7717 21.5755Z" stroke="#6F4902" stroke-width="2" stroke-miterlimit="10"/>
<path d="M216.321 97.3355C218.518 97.3355 220.299 95.5544 220.299 93.3573C220.299 91.1601 218.518 89.379 216.321 89.379C214.124 89.379 212.343 91.1601 212.343 93.3573C212.343 95.5544 214.124 97.3355 216.321 97.3355Z" stroke="#6F4902" stroke-width="2" stroke-miterlimit="10"/>
<path d="M189.163 57.703C191.36 57.703 193.141 55.9219 193.141 53.7248C193.141 51.5277 191.36 49.7466 189.163 49.7466C186.965 49.7466 185.184 51.5277 185.184 53.7248C185.184 55.9219 186.965 57.703 189.163 57.703Z" stroke="#6F4902" stroke-width="2" stroke-miterlimit="10"/>
<path d="M163.061 91.7966C165.527 91.7966 167.526 89.7978 167.526 87.3321C167.526 84.8665 165.527 82.8677 163.061 82.8677C160.596 82.8677 158.597 84.8665 158.597 87.3321C158.597 89.7978 160.596 91.7966 163.061 91.7966Z" fill="#6F4902"/>
<path d="M177.402 78.8673C180.652 78.8673 183.287 76.2326 183.287 72.9824C183.287 69.7322 180.652 67.0974 177.402 67.0974C174.152 67.0974 171.517 69.7322 171.517 72.9824C171.517 76.2326 174.152 78.8673 177.402 78.8673Z" fill="white"/>
<path d="M183.354 66.8815C181.774 65.3406 179.647 64.4903 177.441 64.5176C175.234 64.5449 173.129 65.4477 171.588 67.0272C168.38 70.3164 163.799 86.9272 163.799 86.9272C163.799 86.9272 180.291 81.9362 183.5 78.647C185.04 77.0675 185.891 74.9405 185.863 72.7341C185.836 70.5276 184.933 68.4223 183.354 66.8815ZM174.71 75.7423C174.164 75.2098 173.788 74.5273 173.63 73.7813C173.472 73.0353 173.539 72.2592 173.822 71.5511C174.105 70.843 174.592 70.2347 175.221 69.8032C175.849 69.3717 176.592 69.1364 177.355 69.127C178.117 69.1175 178.865 69.3344 179.504 69.7502C180.144 70.166 180.645 70.762 180.946 71.4628C181.246 72.1637 181.332 72.9379 181.193 73.6877C181.053 74.4374 180.695 75.1289 180.162 75.6747C179.448 76.4067 178.473 76.825 177.45 76.8377C176.428 76.8504 175.442 76.4563 174.71 75.7423Z" fill="#C88303"/>
</g>
<defs>
<clipPath id="clip0">
<rect width="239.413" height="172" fill="white"/>
</clipPath>
</defs>
</svg>
