<svg width="210" height="172" viewBox="0 0 210 172" fill="none" xmlns="http://www.w3.org/2000/svg">
<g clip-path="url(#clip0)">
<path opacity="0.1" d="M205.388 171.358C207.162 169.577 205.109 164.626 200.8 160.302C196.492 155.977 191.561 153.915 189.786 155.696C188.012 157.478 190.066 162.428 194.374 166.753C198.682 171.078 203.613 173.14 205.388 171.358Z" fill="#FCBF4E"/>
<path d="M198.368 164.25C199.715 164.25 200.807 162.815 200.807 161.044C200.807 159.273 199.715 157.838 198.368 157.838C197.021 157.838 195.929 159.273 195.929 161.044C195.929 162.815 197.021 164.25 198.368 164.25Z" fill="#C88303"/>
<path d="M198.368 160.332C199.715 160.332 200.807 158.896 200.807 157.126C200.807 155.355 199.715 153.919 198.368 153.919C197.021 153.919 195.929 155.355 195.929 157.126C195.929 158.896 197.021 160.332 198.368 160.332Z" fill="#C88303"/>
<path d="M198.368 156.414C199.715 156.414 200.807 154.978 200.807 153.207C200.807 151.437 199.715 150.001 198.368 150.001C197.021 150.001 195.929 151.437 195.929 153.207C195.929 154.978 197.021 156.414 198.368 156.414Z" fill="#C88303"/>
<path d="M198.368 152.495C199.715 152.495 200.807 151.06 200.807 149.289C200.807 147.518 199.715 146.083 198.368 146.083C197.021 146.083 195.929 147.518 195.929 149.289C195.929 151.06 197.021 152.495 198.368 152.495Z" fill="#C88303"/>
<path d="M198.368 148.577C199.715 148.577 200.807 147.142 200.807 145.371C200.807 143.6 199.715 142.165 198.368 142.165C197.021 142.165 195.929 143.6 195.929 145.371C195.929 147.142 197.021 148.577 198.368 148.577Z" fill="#C88303"/>
<path d="M198.368 144.659C199.715 144.659 200.807 143.223 200.807 141.452C200.807 139.682 199.715 138.246 198.368 138.246C197.021 138.246 195.929 139.682 195.929 141.452C195.929 143.223 197.021 144.659 198.368 144.659Z" fill="#C88303"/>
<path d="M198.368 140.741C199.715 140.741 200.807 139.305 200.807 137.534C200.807 135.763 199.715 134.328 198.368 134.328C197.021 134.328 195.929 135.763 195.929 137.534C195.929 139.305 197.021 140.741 198.368 140.741Z" fill="#C88303"/>
<path d="M207.499 110.72C207.833 110.295 208.137 109.846 208.409 109.378L201.998 108.322L208.931 108.372C209.597 106.92 209.96 105.346 209.999 103.748C210.038 102.15 209.752 100.561 209.159 99.0773L199.859 103.922L208.431 97.5916C207.628 96.1963 206.548 94.9819 205.257 94.0243C203.966 93.0668 202.492 92.3864 200.927 92.0258C199.363 91.6652 197.741 91.632 196.163 91.9283C194.585 92.2246 193.085 92.8441 191.756 93.748C190.427 94.652 189.298 95.8211 188.439 97.1825C187.58 98.5438 187.01 100.068 186.764 101.661C186.517 103.253 186.601 104.879 187.008 106.438C187.415 107.997 188.138 109.454 189.132 110.72C188.612 111.383 188.165 112.1 187.8 112.859L196.12 117.194L187.254 114.205C186.632 116.054 186.478 118.029 186.807 119.952C187.136 121.875 187.937 123.686 189.139 125.22C187.783 126.951 186.94 129.029 186.705 131.217C186.471 133.406 186.854 135.617 187.812 137.597C188.77 139.577 190.264 141.246 192.123 142.414C193.981 143.582 196.13 144.202 198.322 144.202C200.515 144.202 202.664 143.582 204.522 142.414C206.381 141.246 207.875 139.577 208.833 137.597C209.791 135.617 210.174 133.406 209.94 131.217C209.705 129.029 208.862 126.951 207.506 125.22C209.126 123.153 210.007 120.599 210.007 117.968C210.007 115.338 209.126 112.783 207.506 110.716L207.499 110.72Z" fill="#FCBF4E"/>
<path opacity="0.1" d="M186.631 117.973C186.627 120.604 187.508 123.159 189.132 125.225C187.776 126.955 186.933 129.033 186.698 131.222C186.464 133.411 186.848 135.621 187.806 137.601C188.764 139.581 190.257 141.251 192.116 142.419C193.974 143.587 196.123 144.206 198.316 144.206C200.508 144.206 202.657 143.587 204.516 142.419C206.374 141.251 207.868 139.581 208.826 137.601C209.784 135.621 210.168 133.411 209.933 131.222C209.698 129.033 208.855 126.955 207.5 125.225C209.066 123.23 186.631 116.656 186.631 117.973Z" fill="black"/>
<path d="M192.535 0V164.307L137.068 156.548L69.6423 170.357L69.099 170.469L15.451 155.635V12.7794L71.1449 0L132.067 12.7794L134.384 12.2888L192.535 0Z" fill="#6F4902"/>
<path d="M183.215 8.97302V155.985L133.588 149.043L73.259 161.398L72.7725 161.496L24.7712 148.226V20.4061L74.6048 8.97302L129.112 20.4061L131.185 19.9679L183.215 8.97302Z" fill="white"/>
<path opacity="0.1" d="M137.068 156.548L69.6423 170.357L71.1449 0L132.067 12.7794L134.384 12.2888L137.068 156.548Z" fill="black"/>
<g opacity="0.3">
<path opacity="0.3" d="M130.335 31.4922L130.362 79.301H150.139V59.6754H184.01L187.988 54.5545" stroke="#6F4902" stroke-width="3" stroke-miterlimit="10"/>
<path opacity="0.3" d="M20.2249 46.6677H93.7635L98.3099 44.6139H100.129V90.7112H131.954L133.318 94.8189V115.585H157.868V141.258" stroke="#6F4902" stroke-width="3" stroke-miterlimit="10"/>
<path opacity="0.3" d="M109.842 141.259V90.7113" stroke="#6F4902" stroke-width="3" stroke-miterlimit="10"/>
<path opacity="0.3" d="M187.988 127.717H109.842" stroke="#6F4902" stroke-width="3" stroke-miterlimit="10"/>
<path opacity="0.3" d="M168.416 31.4922V141.259" stroke="#6F4902" stroke-width="3" stroke-miterlimit="10"/>
<path opacity="0.3" d="M19.9976 118.014H187.988" stroke="#6F4902" stroke-width="3" stroke-miterlimit="10"/>
<path opacity="0.3" d="M40.4429 141.259V31.4922" stroke="#6F4902" stroke-width="3" stroke-miterlimit="10"/>
<path opacity="0.3" d="M79.4923 31.4922V141.259" stroke="#6F4902" stroke-width="3" stroke-miterlimit="10"/>
<path opacity="0.3" d="M20.2249 59.219L150.139 59.6754" stroke="#6F4902" stroke-width="3" stroke-miterlimit="10"/>
<path opacity="0.3" d="M58.0353 31.6907V141.258" stroke="#6F4902" stroke-width="3" stroke-miterlimit="10"/>
<path opacity="0.3" d="M19.9976 84.6228H79.4922L109.842 118.014" stroke="#6F4902" stroke-width="3" stroke-miterlimit="10"/>
<path opacity="0.3" d="M116.416 31.4922V90.7113" stroke="#6F4902" stroke-width="3" stroke-miterlimit="10"/>
<path opacity="0.3" d="M109.842 101.318H187.988" stroke="#6F4902" stroke-width="3" stroke-miterlimit="10"/>
</g>
<path d="M133.204 100.866H110.244V90.8254L131.954 90.7113L133.317 94.5908L133.204 100.866Z" fill="#FCBF4E"/>
<path d="M121.838 48.8358C118.505 48.8358 115.309 50.1649 112.952 52.5307C110.595 54.8965 109.271 58.1052 109.271 61.451C109.271 68.418 121.838 91.0536 121.838 91.0536C121.838 91.0536 134.404 68.4272 134.404 61.451C134.404 58.1052 133.08 54.8965 130.723 52.5307C128.367 50.1649 125.171 48.8358 121.838 48.8358ZM121.838 66.832C120.744 66.832 119.675 66.5065 118.766 65.8967C117.857 65.2868 117.149 64.4201 116.73 63.4059C116.312 62.3918 116.202 61.2759 116.415 60.1993C116.629 59.1228 117.155 58.1339 117.929 57.3577C118.702 56.5815 119.687 56.0529 120.759 55.8388C121.832 55.6246 122.943 55.7346 123.953 56.1546C124.964 56.5747 125.827 57.286 126.434 58.1987C127.042 59.1114 127.366 60.1844 127.366 61.2821C127.366 62.7536 126.783 64.1647 125.746 65.205C124.709 66.2453 123.304 66.8297 121.838 66.8297V66.832Z" fill="#C88303" fill-opacity="0.76"/>
<path d="M121.838 50.6614C118.505 50.6614 115.309 51.9905 112.952 54.3563C110.595 56.7221 109.271 59.9308 109.271 63.2765C109.271 70.2436 121.838 92.8792 121.838 92.8792C121.838 92.8792 134.404 70.2527 134.404 63.2765C134.404 59.9308 133.08 56.7221 130.723 54.3563C128.367 51.9905 125.171 50.6614 121.838 50.6614ZM121.838 68.6576C120.744 68.6576 119.675 68.3321 118.766 67.7223C117.857 67.1124 117.149 66.2456 116.73 65.2315C116.312 64.2174 116.202 63.1015 116.415 62.0249C116.629 60.9483 117.155 59.9594 117.929 59.1833C118.702 58.4071 119.687 57.8785 120.759 57.6644C121.832 57.4502 122.943 57.5601 123.953 57.9802C124.964 58.4002 125.827 59.1116 126.434 60.0243C127.042 60.937 127.366 62.01 127.366 63.1077C127.366 64.5792 126.783 65.9903 125.746 67.0306C124.709 68.0709 123.304 68.6553 121.838 68.6553V68.6576Z" fill="#C88303"/>
<path opacity="0.1" d="M117.578 170.258C121.436 168.59 124.008 165.945 123.323 164.35C122.639 162.755 118.957 162.814 115.1 164.481C111.243 166.149 108.671 168.794 109.356 170.389C110.04 171.984 113.721 171.925 117.578 170.258Z" fill="#FCBF4E"/>
<path d="M116.25 168.335C117.179 168.335 117.932 167.346 117.932 166.126C117.932 164.906 117.179 163.917 116.25 163.917C115.321 163.917 114.568 164.906 114.568 166.126C114.568 167.346 115.321 168.335 116.25 168.335Z" fill="#C88303"/>
<path d="M116.25 165.633C117.179 165.633 117.932 164.644 117.932 163.424C117.932 162.204 117.179 161.215 116.25 161.215C115.321 161.215 114.568 162.204 114.568 163.424C114.568 164.644 115.321 165.633 116.25 165.633Z" fill="#C88303"/>
<path d="M116.25 162.933C117.179 162.933 117.932 161.944 117.932 160.724C117.932 159.504 117.179 158.515 116.25 158.515C115.321 158.515 114.568 159.504 114.568 160.724C114.568 161.944 115.321 162.933 116.25 162.933Z" fill="#C88303"/>
<path d="M116.25 160.234C117.179 160.234 117.932 159.245 117.932 158.025C117.932 156.805 117.179 155.816 116.25 155.816C115.321 155.816 114.568 156.805 114.568 158.025C114.568 159.245 115.321 160.234 116.25 160.234Z" fill="#C88303"/>
<path d="M116.25 157.532C117.179 157.532 117.932 156.543 117.932 155.323C117.932 154.103 117.179 153.114 116.25 153.114C115.321 153.114 114.568 154.103 114.568 155.323C114.568 156.543 115.321 157.532 116.25 157.532Z" fill="#C88303"/>
<path d="M116.25 154.832C117.179 154.832 117.932 153.843 117.932 152.623C117.932 151.403 117.179 150.414 116.25 150.414C115.321 150.414 114.568 151.403 114.568 152.623C114.568 153.843 115.321 154.832 116.25 154.832Z" fill="#C88303"/>
<path d="M116.25 152.133C117.179 152.133 117.932 151.143 117.932 149.923C117.932 148.703 117.179 147.714 116.25 147.714C115.321 147.714 114.568 148.703 114.568 149.923C114.568 151.143 115.321 152.133 116.25 152.133Z" fill="#C88303"/>
<path d="M109.956 131.441C109.726 131.151 109.517 130.846 109.328 130.528L113.747 129.798L108.974 129.835C108.516 128.833 108.266 127.749 108.24 126.648C108.213 125.546 108.41 124.451 108.819 123.429L115.23 126.756L109.319 122.393C109.873 121.432 110.618 120.595 111.507 119.935C112.397 119.276 113.413 118.807 114.491 118.559C115.569 118.31 116.686 118.288 117.774 118.492C118.861 118.696 119.895 119.123 120.81 119.746C121.726 120.369 122.504 121.174 123.096 122.113C123.688 123.051 124.081 124.101 124.251 125.198C124.42 126.295 124.363 127.416 124.083 128.49C123.802 129.564 123.304 130.569 122.62 131.441C122.974 131.899 123.279 132.393 123.529 132.915L117.798 135.907L123.913 133.853C124.343 135.127 124.449 136.489 124.222 137.815C123.996 139.14 123.443 140.388 122.615 141.446C123.55 142.638 124.131 144.071 124.293 145.579C124.455 147.088 124.191 148.612 123.53 149.977C122.87 151.342 121.84 152.493 120.559 153.298C119.278 154.103 117.797 154.53 116.285 154.53C114.774 154.53 113.293 154.103 112.012 153.298C110.731 152.493 109.701 151.342 109.041 149.977C108.38 148.612 108.116 147.088 108.278 145.579C108.44 144.071 109.021 142.638 109.956 141.446C108.839 140.02 108.233 138.26 108.233 136.447C108.233 134.634 108.839 132.873 109.956 131.448V131.441Z" fill="#FCBF4E"/>
<path opacity="0.1" d="M124.338 136.432C124.341 138.246 123.734 140.008 122.615 141.432C123.55 142.625 124.131 144.057 124.293 145.566C124.455 147.075 124.191 148.598 123.53 149.963C122.87 151.328 121.84 152.479 120.559 153.284C119.278 154.09 117.797 154.517 116.285 154.517C114.774 154.517 113.293 154.09 112.012 153.284C110.731 152.479 109.701 151.328 109.041 149.963C108.38 148.598 108.116 147.075 108.278 145.566C108.44 144.057 109.021 142.625 109.956 141.432C108.876 140.063 124.338 135.533 124.338 136.432Z" fill="black"/>
<path opacity="0.1" d="M18.7562 166.337C20.5309 164.556 18.4769 159.606 14.1687 155.281C9.86046 150.956 4.92934 148.894 3.15474 150.675C1.38013 152.457 3.43404 157.407 7.74228 161.732C12.0505 166.057 16.9816 168.119 18.7562 166.337Z" fill="#FCBF4E"/>
<path d="M11.7367 159.23C13.0838 159.23 14.1758 157.794 14.1758 156.023C14.1758 154.253 13.0838 152.817 11.7367 152.817C10.3895 152.817 9.29749 154.253 9.29749 156.023C9.29749 157.794 10.3895 159.23 11.7367 159.23Z" fill="#C88303"/>
<path d="M11.7367 155.311C13.0838 155.311 14.1758 153.876 14.1758 152.105C14.1758 150.334 13.0838 148.899 11.7367 148.899C10.3895 148.899 9.29749 150.334 9.29749 152.105C9.29749 153.876 10.3895 155.311 11.7367 155.311Z" fill="#C88303"/>
<path d="M11.7367 151.393C13.0838 151.393 14.1758 149.958 14.1758 148.187C14.1758 146.416 13.0838 144.981 11.7367 144.981C10.3895 144.981 9.29749 146.416 9.29749 148.187C9.29749 149.958 10.3895 151.393 11.7367 151.393Z" fill="#C88303"/>
<path d="M11.7367 147.475C13.0838 147.475 14.1758 146.039 14.1758 144.269C14.1758 142.498 13.0838 141.062 11.7367 141.062C10.3895 141.062 9.29749 142.498 9.29749 144.269C9.29749 146.039 10.3895 147.475 11.7367 147.475Z" fill="#C88303"/>
<path d="M11.7367 143.557C13.0838 143.557 14.1758 142.121 14.1758 140.35C14.1758 138.58 13.0838 137.144 11.7367 137.144C10.3895 137.144 9.29749 138.58 9.29749 140.35C9.29749 142.121 10.3895 143.557 11.7367 143.557Z" fill="#C88303"/>
<path d="M11.7367 139.638C13.0838 139.638 14.1758 138.203 14.1758 136.432C14.1758 134.661 13.0838 133.226 11.7367 133.226C10.3895 133.226 9.29749 134.661 9.29749 136.432C9.29749 138.203 10.3895 139.638 11.7367 139.638Z" fill="#C88303"/>
<path d="M11.7367 135.72C13.0838 135.72 14.1758 134.285 14.1758 132.514C14.1758 130.743 13.0838 129.307 11.7367 129.307C10.3895 129.307 9.29749 130.743 9.29749 132.514C9.29749 134.285 10.3895 135.72 11.7367 135.72Z" fill="#C88303"/>
<path d="M20.8681 105.7C21.2019 105.274 21.5057 104.826 21.7774 104.358L15.3669 103.301L22.3003 103.351C22.9654 101.899 23.3286 100.326 23.3676 98.7276C23.4067 97.1295 23.1209 95.5402 22.5276 94.0567L13.2278 98.9015L21.8002 92.5711C20.9972 91.1758 19.9165 89.9614 18.6254 89.0038C17.3343 88.0462 15.8606 87.3659 14.296 87.0053C12.7315 86.6447 11.1098 86.6115 9.5319 86.9078C7.95403 87.2041 6.45389 87.8236 5.12501 88.7275C3.79613 89.6315 2.66701 90.8006 1.80804 92.162C0.94908 93.5233 0.378694 95.0477 0.132456 96.6401C-0.113783 98.2325 -0.0305943 99.8587 0.37683 101.417C0.784253 102.976 1.50718 104.434 2.50053 105.7C1.98088 106.362 1.53424 107.079 1.16842 107.838L9.4884 112.174L0.622848 109.184C0.000343886 111.033 -0.15334 113.008 0.175693 114.932C0.504725 116.855 1.3061 118.666 2.50735 120.2C1.15171 121.93 0.308401 124.008 0.0738458 126.197C-0.16071 128.385 0.222951 130.596 1.18097 132.576C2.13898 134.556 3.63268 136.226 5.49129 137.394C7.3499 138.562 9.4984 139.181 11.6912 139.181C13.8839 139.181 16.0324 138.562 17.891 137.394C19.7496 136.226 21.2433 134.556 22.2013 132.576C23.1594 130.596 23.543 128.385 23.3085 126.197C23.0739 124.008 22.2306 121.93 20.875 120.2C22.4948 118.132 23.3754 115.578 23.3754 112.948C23.3754 110.317 22.4948 107.763 20.875 105.695L20.8681 105.7Z" fill="#FCBF4E"/>
<path opacity="0.1" d="M-0.000105723 112.952C-0.00449872 115.583 0.876645 118.139 2.50044 120.204C1.1448 121.935 0.301489 124.013 0.066933 126.201C-0.167623 128.39 0.216038 130.601 1.17405 132.581C2.13207 134.561 3.62577 136.23 5.48438 137.398C7.34298 138.566 9.49149 139.186 11.6842 139.186C13.877 139.186 16.0255 138.566 17.8841 137.398C19.7427 136.23 21.2364 134.561 22.1944 132.581C23.1524 130.601 23.5361 128.39 23.3015 126.201C23.067 124.013 22.2237 121.935 20.868 120.204C22.4343 118.21 -0.000105723 111.635 -0.000105723 112.952Z" fill="black"/>
</g>
<defs>
<clipPath id="clip0">
<rect width="210" height="172" fill="white"/>
</clipPath>
</defs>
</svg>
