<svg width="266" height="208" viewBox="0 0 266 208" fill="none" xmlns="http://www.w3.org/2000/svg">
<path d="M242.13 189.882C237.03 195.32 231.188 200.014 224.773 203.828C224.626 203.918 224.477 204.003 224.327 204.09L213.942 194.937C214.051 194.836 214.172 194.723 214.302 194.598C222.04 187.281 260.451 136.12 263.01 123.661C262.834 124.699 265.32 165.402 242.13 189.882Z" fill="#FFFAF1"/>
<path d="M226.777 205.595C226.58 205.641 226.381 205.685 226.18 205.725L218.39 198.857C218.542 198.804 218.72 198.742 218.924 198.672C222.266 197.493 232.221 193.935 242.129 189.881C252.774 185.524 263.369 180.602 265.647 177.448C265.158 178.181 250.102 200.4 226.777 205.595Z" fill="#FFFAF1"/>
<path d="M241.986 54.4746H240.876V24.205C240.876 21.9044 240.421 19.6263 239.537 17.5007C238.653 15.3752 237.358 13.4439 235.724 11.8171C234.091 10.1903 232.152 8.89982 230.017 8.01939C227.883 7.13897 225.596 6.68582 223.286 6.68582H158.896C156.586 6.68582 154.299 7.13896 152.164 8.01938C150.03 8.89979 148.091 10.1902 146.458 11.8171C144.824 13.4439 143.529 15.3752 142.645 17.5007C141.761 19.6262 141.306 21.9043 141.306 24.205V190.266C141.306 192.567 141.761 194.845 142.645 196.971C143.529 199.096 144.824 201.027 146.458 202.654C148.091 204.281 150.03 205.571 152.164 206.452C154.299 207.332 156.586 207.785 158.896 207.785H223.286C225.596 207.786 227.883 207.332 230.017 206.452C232.152 205.572 234.091 204.281 235.724 202.654C237.357 201.027 238.653 199.096 239.537 196.971C240.421 194.845 240.876 192.567 240.876 190.266V76.021H241.986V54.4746Z" fill="#2C1D01"/>
<path d="M237.132 24.3254V190.145C237.132 191.863 236.792 193.564 236.132 195.152C235.471 196.739 234.503 198.181 233.283 199.396C232.063 200.611 230.615 201.574 229.021 202.231C227.427 202.888 225.719 203.226 223.994 203.225H159.293C157.569 203.226 155.861 202.887 154.267 202.23C152.674 201.573 151.226 200.609 150.006 199.395C148.787 198.18 147.819 196.738 147.159 195.151C146.499 193.564 146.16 191.863 146.16 190.145V24.3254C146.16 22.6076 146.499 20.9066 147.159 19.3196C147.819 17.7325 148.787 16.2905 150.006 15.0758C151.226 13.8612 152.674 12.8977 154.267 12.2404C155.861 11.5831 157.569 11.2448 159.293 11.2449H167.145C166.76 12.1888 166.613 13.2125 166.718 14.226C166.823 15.2396 167.177 16.2119 167.747 17.0574C168.318 17.903 169.089 18.5959 169.992 19.0752C170.895 19.5545 171.902 19.8056 172.925 19.8063H209.812C210.836 19.8072 211.844 19.5573 212.748 19.0784C213.651 18.5995 214.423 17.9065 214.994 17.0604C215.565 16.2144 215.919 15.2413 216.023 14.2271C216.127 13.2129 215.979 12.1887 215.592 11.2449H223.994C225.719 11.2443 227.427 11.5822 229.021 12.2393C230.615 12.8963 232.063 13.8597 233.283 15.0744C234.503 16.2891 235.471 17.7313 236.132 19.3186C236.792 20.9059 237.132 22.6072 237.132 24.3254Z" fill="white"/>
<path d="M217.006 110.494H160.136C159.14 110.493 158.185 110.098 157.481 109.397C156.777 108.695 156.381 107.744 156.379 106.752V104.89C156.381 103.898 156.777 102.946 157.481 102.245C158.185 101.543 159.14 101.149 160.136 101.148H217.006C218.002 101.149 218.957 101.543 219.661 102.245C220.366 102.946 220.762 103.898 220.763 104.89V106.752C220.762 107.744 220.366 108.695 219.661 109.397C218.957 110.098 218.002 110.493 217.006 110.494Z" fill="#FFFAF1"/>
<path d="M217.006 126.55H160.136C159.14 126.548 158.185 126.154 157.481 125.452C156.777 124.751 156.381 123.8 156.379 122.808V120.945C156.381 119.953 156.777 119.002 157.481 118.3C158.185 117.599 159.14 117.204 160.136 117.203H217.006C218.002 117.204 218.957 117.599 219.661 118.3C220.366 119.002 220.762 119.953 220.763 120.945V122.808C220.762 123.8 220.366 124.751 219.661 125.452C218.957 126.154 218.002 126.548 217.006 126.55Z" fill="#FFFAF1"/>
<path d="M219.851 106.903H162.981C161.935 106.902 160.933 106.488 160.193 105.751C159.454 105.015 159.038 104.016 159.036 102.974V101.112C159.038 100.07 159.454 99.0714 160.193 98.3349C160.933 97.5983 161.935 97.184 162.981 97.1828H219.851C220.897 97.184 221.899 97.5983 222.639 98.3349C223.378 99.0714 223.794 100.07 223.796 101.112V102.974C223.794 104.016 223.378 105.015 222.639 105.751C221.899 106.488 220.897 106.902 219.851 106.903ZM162.981 97.9311C162.135 97.9321 161.323 98.2675 160.724 98.8638C160.125 99.46 159.789 100.269 159.788 101.112V102.974C159.789 103.818 160.125 104.626 160.724 105.222C161.323 105.819 162.135 106.154 162.981 106.155H219.851C220.697 106.154 221.509 105.819 222.108 105.222C222.707 104.626 223.043 103.818 223.044 102.974V101.112C223.043 100.269 222.707 99.46 222.108 98.8638C221.509 98.2675 220.697 97.9321 219.851 97.9311H162.981Z" fill="#2C1D01"/>
<path d="M219.851 122.959H162.981C161.935 122.958 160.933 122.543 160.193 121.807C159.454 121.07 159.038 120.071 159.036 119.03V117.167C159.038 116.126 159.454 115.127 160.193 114.39C160.933 113.654 161.935 113.239 162.981 113.238H219.851C220.897 113.239 221.899 113.654 222.639 114.39C223.378 115.127 223.794 116.126 223.796 117.167V119.03C223.794 120.071 223.378 121.07 222.639 121.807C221.899 122.543 220.897 122.958 219.851 122.959ZM162.981 113.987C162.135 113.988 161.323 114.323 160.724 114.919C160.125 115.515 159.789 116.324 159.788 117.167V119.03C159.789 119.873 160.125 120.681 160.724 121.278C161.323 121.874 162.135 122.209 162.981 122.21H219.851C220.697 122.209 221.509 121.874 222.108 121.278C222.707 120.681 223.043 119.873 223.044 119.03V117.167C223.043 116.324 222.707 115.515 222.108 114.919C221.509 114.323 220.697 113.988 219.851 113.987H162.981Z" fill="#2C1D01"/>
<path d="M237.132 24.3254V60.3935C231.377 61.9012 225.353 62.0742 219.521 60.8991C213.689 59.724 208.205 57.2321 203.492 53.6152C198.779 49.9982 194.961 45.3526 192.333 40.0358C189.706 34.719 188.337 28.8726 188.334 22.9465C188.334 21.8888 188.377 20.842 188.462 19.8063H209.812C210.836 19.8072 211.844 19.5573 212.748 19.0784C213.651 18.5995 214.423 17.9065 214.994 17.0604C215.565 16.2144 215.919 15.2413 216.023 14.2271C216.127 13.2129 215.979 12.1887 215.592 11.2449H223.994C225.719 11.2443 227.427 11.5822 229.021 12.2393C230.615 12.8963 232.063 13.8597 233.283 15.0744C234.503 16.2891 235.471 17.7313 236.132 19.3186C236.792 20.9059 237.132 22.6072 237.132 24.3254Z" fill="#FFFAF1"/>
<path d="M178.851 200.973C178.851 201.733 178.823 202.484 178.761 203.225H159.293C157.569 203.226 155.861 202.887 154.267 202.23C152.674 201.573 151.226 200.609 150.006 199.395C148.787 198.18 147.819 196.738 147.159 195.151C146.499 193.564 146.16 191.863 146.16 190.145V172.408C150.241 171.88 154.388 172.224 158.324 173.417C162.261 174.61 165.898 176.625 168.991 179.328C172.085 182.031 174.564 185.359 176.264 189.092C177.964 192.824 178.846 196.874 178.851 200.973H178.851Z" fill="#EF7F1A"/>
<path d="M21.8366 169.852C22.3836 170.091 23.0037 170.105 23.5609 169.89C24.1181 169.675 24.5669 169.248 24.8088 168.704L42.3465 129.117C42.7479 128.211 42.8706 127.207 42.6989 126.232C42.5273 125.256 42.0691 124.354 41.3824 123.638C40.6956 122.922 39.811 122.425 38.8406 122.209C37.8701 121.994 36.8574 122.07 35.9304 122.428H35.9304C34.8594 122.836 33.9632 123.6 33.3943 124.591C33.3038 124.748 33.2217 124.909 33.1484 125.075L15.6107 164.662C15.4912 164.932 15.4262 165.222 15.4194 165.517C15.4126 165.812 15.4642 166.105 15.5713 166.38C15.6783 166.655 15.8386 166.906 16.0431 167.119C16.2476 167.332 16.4923 167.503 16.7632 167.622L21.8366 169.852Z" fill="#EF7F1A"/>
<path d="M41.6264 145.369L24.2794 141.53L28.573 130.217C29.3044 127.452 31.0066 125.04 33.3709 123.418C35.7351 121.796 38.6048 121.072 41.4593 121.376L41.6265 121.395L41.6264 145.369Z" fill="#6F4902"/>
<path d="M76.6647 170.418C76.1545 170.417 75.6554 170.269 75.2279 169.992C74.8004 169.714 74.4627 169.32 74.2557 168.855L56.7181 129.268C56.1603 128.009 56.1085 126.584 56.5732 125.288C57.0379 123.991 57.9838 122.921 59.2164 122.298C60.4489 121.675 61.8743 121.546 63.1993 121.938C64.5244 122.33 65.6482 123.213 66.3397 124.405V124.405C66.4369 124.573 66.525 124.746 66.6037 124.924L84.1413 164.511C84.4229 165.147 84.4394 165.868 84.1873 166.515C83.9351 167.163 83.435 167.684 82.7968 167.965L77.5514 170.27L77.5488 170.264C77.2652 170.366 76.9661 170.418 76.6647 170.418Z" fill="#EF7F1A"/>
<path d="M52.4056 156.824C51.8079 156.825 51.235 157.061 50.8123 157.482C50.3897 157.903 50.152 158.474 50.1514 159.069V205.1C50.152 205.695 50.3897 206.266 50.8123 206.687C51.235 207.108 51.8079 207.344 52.4056 207.345H57.9508C58.5485 207.344 59.1215 207.108 59.5441 206.687C59.9667 206.266 60.2044 205.695 60.2051 205.1V159.069C60.2044 158.474 59.9667 157.903 59.5441 157.482C59.1215 157.061 58.5485 156.825 57.9508 156.824H52.4056Z" fill="#EF7F1A"/>
<path d="M41.4378 156.824C40.8402 156.825 40.2672 157.061 39.8446 157.482C39.422 157.903 39.1843 158.474 39.1836 159.069V205.1C39.1843 205.695 39.422 206.266 39.8446 206.687C40.2672 207.108 40.8402 207.344 41.4378 207.345H46.9832C47.5808 207.344 48.1538 207.108 48.5764 206.687C48.999 206.266 49.2367 205.695 49.2374 205.1V159.069C49.2367 158.474 48.999 157.903 48.5764 157.482C48.1538 157.061 47.5808 156.825 46.9832 156.824H41.4378Z" fill="#EF7F1A"/>
<path d="M49.5287 108.599C60.111 108.599 68.6897 100.055 68.6897 89.5152C68.6897 78.9756 60.111 70.4315 49.5287 70.4315C38.9464 70.4315 30.3677 78.9756 30.3677 89.5152C30.3677 100.055 38.9464 108.599 49.5287 108.599Z" fill="#EF7F1A"/>
<path d="M55.905 97.5262C57.1471 97.4919 58.6929 97.4489 59.8838 96.5825C60.2384 96.3139 60.5298 95.9714 60.7374 95.5789C60.9451 95.1863 61.0641 94.7533 61.0861 94.3102C61.1076 93.9952 61.0557 93.6796 60.9345 93.3879C60.8132 93.0962 60.6259 92.8365 60.3871 92.6289C59.7651 92.1054 58.8569 91.9826 57.8781 92.2691L58.8922 84.888L58.1478 84.7864L56.9556 93.4639L57.5772 93.1797C58.298 92.8505 59.2873 92.683 59.9021 93.2004C60.0531 93.3357 60.1707 93.5038 60.2458 93.6917C60.3209 93.8796 60.3515 94.0822 60.3352 94.2839C60.3169 94.6137 60.2276 94.9357 60.0732 95.2281C59.9188 95.5205 59.7031 95.7763 59.4405 95.9781C58.5138 96.6523 57.2816 96.7393 55.8842 96.7782L55.905 97.5262Z" fill="#6F4902"/>
<path d="M66.6208 85.5246H62.5739V86.2729H66.6208V85.5246Z" fill="#6F4902"/>
<path d="M53.8468 85.5246H49.7998V86.2729H53.8468V85.5246Z" fill="#6F4902"/>
<path d="M68.5144 170.65L61.618 120.509C61.544 119.971 61.277 119.479 60.8664 119.122C60.4558 118.765 59.9293 118.569 59.3845 118.569H54.1789C54.2006 118.445 54.2119 118.32 54.2127 118.194V116.323C54.2126 115.728 53.9751 115.157 53.5524 114.736C53.1296 114.315 52.5563 114.078 51.9584 114.078H47.4499C46.8521 114.078 46.2787 114.315 45.856 114.736C45.4332 115.157 45.1957 115.728 45.1957 116.323V118.194C45.1965 118.32 45.2078 118.445 45.2295 118.569H40.0239C39.479 118.569 38.9526 118.765 38.542 119.122C38.1314 119.479 37.8644 119.971 37.7904 120.509L30.8939 170.65C30.8502 170.968 30.8753 171.291 30.9676 171.598C31.0598 171.906 31.217 172.19 31.4285 172.431C31.6401 172.673 31.9012 172.866 32.1942 172.999C32.4872 173.132 32.8054 173.2 33.1272 173.2H66.2811C66.603 173.2 66.9211 173.132 67.2141 172.999C67.5071 172.866 67.7682 172.673 67.9798 172.431C68.1914 172.19 68.3486 171.906 68.4408 171.598C68.533 171.291 68.5581 170.968 68.5144 170.65Z" fill="#6F4902"/>
<path d="M57.7819 145.369V121.395L57.949 121.376C60.807 121.072 63.6799 121.799 66.0457 123.425C68.4114 125.051 70.1131 127.468 70.8415 130.237L75.1288 141.53L57.7819 145.369Z" fill="#6F4902"/>
<path d="M48.5638 109.194L35.3106 104.071C33.1434 103.233 30.9641 102.421 28.8084 101.554C27.885 101.234 27.0344 100.735 26.3057 100.085C25.6712 99.4163 25.2387 98.5828 25.0579 97.6803C24.5982 95.7453 24.6813 93.6297 24.7141 91.6549C24.7396 89.4947 24.9181 87.3389 25.2483 85.2037C25.8271 81.1912 27.1862 77.3297 29.2497 73.8356C32.9664 67.7619 39.3701 63.1923 46.7361 63.557C50.1463 63.7258 53.5761 64.9446 56.1097 67.2667C56.374 67.5813 56.6706 67.8675 56.9946 68.1208C57.2197 68.2049 57.4648 68.2213 57.6993 68.1679C58.0084 68.1481 58.3179 68.133 58.6276 68.1225C59.7022 68.0774 60.7787 68.1224 61.8457 68.257C63.7902 68.4662 65.6332 69.2284 67.1546 70.4525C68.4207 71.5373 69.451 73.0687 69.557 74.7706C69.6082 75.5518 69.4785 76.3344 69.1779 77.0578C68.8773 77.7812 68.4139 78.4262 67.8234 78.943C66.2422 80.2702 63.9863 79.8037 62.0896 79.7036L55.1414 79.337L51.621 79.1513C50.8961 79.113 50.8982 80.2357 51.621 80.2738L60.9779 80.7676C62.4815 80.8469 64.0312 81.0413 65.5361 80.9515C66.6924 80.8994 67.7965 80.457 68.6669 79.6971C69.4619 78.9698 70.054 78.0497 70.3857 77.0266C70.7173 76.0035 70.7771 74.9123 70.5592 73.8593C70.0768 71.5627 68.3607 69.6629 66.3488 68.5327C63.6114 66.9948 60.342 66.8475 57.279 67.0748L57.6775 67.2392C54.2126 63.5354 48.9053 61.9716 43.9228 62.5189C38.662 63.0967 33.9831 66.0198 30.6213 70.0168C26.873 74.4731 24.8305 80.0299 24.0364 85.7439C23.6232 88.8289 23.4872 91.9445 23.6299 95.0536C23.624 96.4248 23.8596 97.7864 24.3258 99.0766C24.8578 100.332 25.8197 101.359 27.0404 101.975C28.4398 102.648 29.8786 103.237 31.3489 103.738L36.2317 105.625L45.8228 109.333L48.2642 110.277C48.9408 110.538 49.2339 109.453 48.5638 109.194Z" fill="#6F4902"/>
<path d="M27.7253 71.0465C26.5735 71.0465 25.4476 70.7063 24.49 70.069C23.5323 69.4317 22.7859 68.5259 22.3451 67.4661C21.9044 66.4063 21.7891 65.2401 22.0138 64.115C22.2385 62.99 22.7931 61.9565 23.6075 61.1454C24.4219 60.3342 25.4596 59.7818 26.5892 59.558C27.7188 59.3342 28.8897 59.4491 29.9538 59.8881C31.0179 60.3271 31.9274 61.0705 32.5673 62.0243C33.2072 62.9781 33.5488 64.0994 33.5488 65.2465C33.547 66.7843 32.9329 68.2585 31.8412 69.3458C30.7495 70.4331 29.2692 71.0448 27.7253 71.0465ZM27.7253 60.5692C26.7965 60.5692 25.8885 60.8435 25.1162 61.3574C24.3439 61.8714 23.7419 62.6019 23.3865 63.4566C23.031 64.3113 22.938 65.2517 23.1192 66.1591C23.3004 67.0664 23.7477 67.8998 24.4045 68.554C25.0613 69.2081 25.8981 69.6536 26.8091 69.8341C27.7201 70.0145 28.6644 69.9219 29.5225 69.5679C30.3807 69.2139 31.1141 68.6144 31.6302 67.8452C32.1462 67.076 32.4216 66.1716 32.4216 65.2465C32.4202 64.0065 31.925 62.8176 31.0446 61.9407C30.1641 61.0638 28.9704 60.5706 27.7253 60.5692Z" fill="#6F4902"/>
<path d="M125.072 106.989L112.468 97.3879L102.827 109.942L115.432 119.543L125.072 106.989Z" fill="#FFFAF1"/>
<path d="M53.8369 21.2792C55.8284 21.2777 57.7927 21.7406 59.5723 22.6309C61.3519 23.5213 62.8975 24.8143 64.0852 26.4064L71.4452 16.822L49.3616 0L32.4716 21.9945L41.9895 29.2448C42.942 26.892 44.5789 24.8766 46.6899 23.4572C48.801 22.0379 51.2899 21.2794 53.8369 21.2792Z" fill="#FFFAF1"/>
<path d="M265.624 208H0.375706C0.276063 208 0.1805 207.961 0.110042 207.89C0.0395829 207.82 0 207.725 0 207.626C0 207.527 0.0395829 207.431 0.110042 207.361C0.1805 207.291 0.276063 207.252 0.375706 207.252H265.624C265.724 207.252 265.819 207.291 265.89 207.361C265.96 207.431 266 207.527 266 207.626C266 207.725 265.96 207.82 265.89 207.89C265.819 207.961 265.724 208 265.624 208Z" fill="#2C1D01"/>
<path d="M200.885 145.91H173.886C172.89 145.909 171.935 145.515 171.231 144.813C170.527 144.112 170.13 143.161 170.129 142.169V140.306C170.13 139.314 170.527 138.363 171.231 137.661C171.935 136.96 172.89 136.565 173.886 136.564H200.885C201.881 136.565 202.836 136.96 203.541 137.661C204.245 138.363 204.641 139.314 204.642 140.306V142.169C204.641 143.161 204.245 144.112 203.541 144.813C202.836 145.515 201.881 145.909 200.885 145.91Z" fill="#EF7F1A"/>
<path d="M203.73 142.32H176.731C175.685 142.319 174.682 141.904 173.943 141.168C173.203 140.431 172.787 139.432 172.786 138.391V136.528C172.787 135.487 173.203 134.488 173.943 133.751C174.682 133.015 175.685 132.6 176.731 132.599H203.73C204.776 132.6 205.779 133.015 206.518 133.751C207.258 134.488 207.674 135.487 207.675 136.528V138.391C207.674 139.432 207.258 140.431 206.518 141.168C205.779 141.904 204.776 142.319 203.73 142.32ZM176.731 133.348C175.884 133.349 175.073 133.684 174.474 134.28C173.875 134.877 173.538 135.685 173.538 136.528V138.391C173.538 139.234 173.875 140.043 174.474 140.639C175.073 141.235 175.884 141.57 176.731 141.571H203.73C204.577 141.57 205.389 141.235 205.987 140.639C206.586 140.043 206.923 139.234 206.924 138.391V136.528C206.923 135.685 206.586 134.877 205.987 134.28C205.389 133.684 204.577 133.349 203.73 133.348H176.731Z" fill="#2C1D01"/>
</svg>
