<svg width="20" height="20" viewBox="0 0 20 20" fill="none" xmlns="http://www.w3.org/2000/svg">
<path d="M20 7.81609H0V3.79309C0 3.60266 0.154414 3.44824 0.344843 3.44824H19.6552C19.8456 3.44824 20 3.60266 20 3.79309L20 7.81609Z" fill="#82AFFF"/>
<path d="M19.6551 16.5517H0.344843C0.154414 16.5517 0 16.3973 0 16.2069V12.1839H20V16.2069C20 16.3973 19.8455 16.5517 19.6551 16.5517Z" fill="#73AF00"/>
<path d="M20 7.81604H0V12.1836H20V7.81604Z" fill="#F5F5F5"/>
<path d="M20 7.42816H0V7.97277H20V7.42816Z" fill="#FF4B55"/>
<path d="M20 12.027H0V12.5716H20V12.027Z" fill="#FF4B55"/>
<path d="M4.43307 6.72154C3.72713 6.72154 3.15491 6.15068 3.15491 5.44728C3.15491 4.74131 3.7271 4.16787 4.43307 4.16787C4.4358 4.16787 4.43846 4.16787 4.44112 4.16791C4.48268 4.16846 4.49725 4.11326 4.46061 4.09361C4.24323 3.97709 3.99514 3.91115 3.73139 3.91307C2.88671 3.91908 2.20058 4.61904 2.20956 5.46373C2.21839 6.2997 2.90182 6.97638 3.74245 6.97638C4.00256 6.97638 4.24717 6.91056 4.46186 6.79564C4.49838 6.77607 4.48362 6.72087 4.44221 6.72146C4.43909 6.72154 4.43608 6.72154 4.43307 6.72154Z" fill="#F5F5F5"/>
<path d="M5.43403 6.36915L5.37696 6.54032L5.19653 6.54169C5.17317 6.54185 5.16349 6.57169 5.18228 6.58556L5.32743 6.69274L5.27298 6.86478C5.26595 6.88704 5.2913 6.90548 5.31032 6.89189L5.45712 6.78696L5.60392 6.89189C5.62294 6.90548 5.64825 6.88704 5.64126 6.86478L5.58681 6.69274L5.73192 6.58556C5.75071 6.57169 5.74102 6.54185 5.71767 6.54169L5.53724 6.54032L5.48017 6.36915C5.47278 6.347 5.44146 6.347 5.43403 6.36915Z" fill="#F5F5F5"/>
<path d="M6.70527 6.36915L6.6482 6.54032L6.46777 6.54169C6.44441 6.54185 6.43473 6.57169 6.45352 6.58556L6.59863 6.69274L6.54418 6.86478C6.53715 6.88704 6.5625 6.90548 6.58152 6.89189L6.72832 6.78696L6.87512 6.89189C6.89414 6.90548 6.91945 6.88704 6.91246 6.86478L6.85801 6.69274L7.00313 6.58556C7.02192 6.57169 7.01223 6.54185 6.98887 6.54169L6.80844 6.54032L6.75137 6.36915C6.74398 6.347 6.71262 6.347 6.70527 6.36915Z" fill="#F5F5F5"/>
<path d="M7.97651 6.36915L7.91944 6.54032L7.73901 6.54169C7.71565 6.54185 7.70597 6.57169 7.72476 6.58556L7.86991 6.69274L7.81546 6.86478C7.80843 6.88704 7.83378 6.90548 7.8528 6.89189L7.9996 6.78696L8.14639 6.89189C8.16542 6.90548 8.19073 6.88704 8.18374 6.86478L8.12928 6.69274L8.2744 6.58556C8.29319 6.57169 8.2835 6.54185 8.26014 6.54169L8.07971 6.54032L8.02264 6.36915C8.01526 6.347 7.98389 6.347 7.97651 6.36915Z" fill="#F5F5F5"/>
<path d="M9.24751 6.36915L9.19044 6.54032L9.01001 6.54169C8.98665 6.54185 8.97696 6.57169 8.99575 6.58556L9.14087 6.69274L9.08642 6.86478C9.07938 6.88704 9.10474 6.90548 9.12376 6.89189L9.27056 6.78696L9.41735 6.89189C9.43637 6.90548 9.46169 6.88704 9.45469 6.86478L9.40024 6.69274L9.54536 6.58556C9.56415 6.57169 9.55446 6.54185 9.5311 6.54169L9.35067 6.54032L9.2936 6.36915C9.28626 6.347 9.25489 6.347 9.24751 6.36915Z" fill="#F5F5F5"/>
<path d="M10.5188 6.36915L10.4617 6.54032L10.2813 6.54169C10.2579 6.54185 10.2482 6.57169 10.267 6.58556L10.4121 6.69274L10.3577 6.86478C10.3507 6.88704 10.376 6.90548 10.395 6.89189L10.5418 6.78696L10.6886 6.89189C10.7077 6.90548 10.733 6.88704 10.726 6.86478L10.6715 6.69274L10.8167 6.58556C10.8355 6.57169 10.8258 6.54185 10.8024 6.54169L10.622 6.54032L10.5649 6.36915C10.5575 6.347 10.5261 6.347 10.5188 6.36915Z" fill="#F5F5F5"/>
<path d="M6.70527 5.18275L6.6482 5.35392L6.46777 5.35529C6.44441 5.35544 6.43473 5.38529 6.45352 5.39915L6.59863 5.50634L6.54418 5.67837C6.53715 5.70064 6.5625 5.71907 6.58152 5.70548L6.72832 5.60056L6.87512 5.70548C6.89414 5.71907 6.91945 5.70064 6.91246 5.67837L6.85801 5.50634L7.00313 5.39915C7.02192 5.38529 7.01223 5.35544 6.98887 5.35529L6.80844 5.35392L6.75137 5.18275C6.74398 5.16052 6.71262 5.16052 6.70527 5.18275Z" fill="#F5F5F5"/>
<path d="M7.97651 5.18275L7.91944 5.35392L7.73901 5.35529C7.71565 5.35544 7.70597 5.38529 7.72476 5.39915L7.86991 5.50634L7.81546 5.67837C7.80843 5.70064 7.83378 5.71907 7.8528 5.70548L7.9996 5.60056L8.14639 5.70548C8.16542 5.71907 8.19073 5.70064 8.18374 5.67837L8.12928 5.50634L8.2744 5.39915C8.29319 5.38529 8.2835 5.35544 8.26014 5.35529L8.07971 5.35392L8.02264 5.18275C8.01526 5.16052 7.98389 5.16052 7.97651 5.18275Z" fill="#F5F5F5"/>
<path d="M9.24751 5.18275L9.19044 5.35392L9.01001 5.35529C8.98665 5.35544 8.97696 5.38529 8.99575 5.39915L9.14087 5.50634L9.08642 5.67837C9.07938 5.70064 9.10474 5.71907 9.12376 5.70548L9.27056 5.60056L9.41735 5.70548C9.43637 5.71907 9.46169 5.70064 9.45469 5.67837L9.40024 5.50634L9.54536 5.39915C9.56415 5.38529 9.55446 5.35544 9.5311 5.35529L9.35067 5.35392L9.2936 5.18275C9.28626 5.16052 9.25489 5.16052 9.24751 5.18275Z" fill="#F5F5F5"/>
<path d="M10.5188 5.18275L10.4617 5.35392L10.2813 5.35529C10.2579 5.35544 10.2482 5.38529 10.267 5.39915L10.4121 5.50634L10.3577 5.67837C10.3507 5.70064 10.376 5.71907 10.395 5.70548L10.5418 5.60056L10.6886 5.70548C10.7077 5.71907 10.733 5.70064 10.726 5.67837L10.6715 5.50634L10.8167 5.39915C10.8355 5.38529 10.8258 5.35544 10.8024 5.35529L10.622 5.35392L10.5649 5.18275C10.5575 5.16052 10.5261 5.16052 10.5188 5.18275Z" fill="#F5F5F5"/>
<path d="M7.97651 6.36915L7.91944 6.54032L7.73901 6.54169C7.71565 6.54185 7.70597 6.57169 7.72476 6.58556L7.86991 6.69274L7.81546 6.86478C7.80843 6.88704 7.83378 6.90548 7.8528 6.89189L7.9996 6.78696L8.14639 6.89189C8.16542 6.90548 8.19073 6.88704 8.18374 6.86478L8.12928 6.69274L8.2744 6.58556C8.29319 6.57169 8.2835 6.54185 8.26014 6.54169L8.07971 6.54032L8.02264 6.36915C8.01526 6.347 7.98389 6.347 7.97651 6.36915Z" fill="#F5F5F5"/>
<path d="M7.97651 3.99623L7.91944 4.1674L7.73901 4.16876C7.71565 4.16892 7.70597 4.19876 7.72476 4.21263L7.86991 4.31982L7.81546 4.49185C7.80843 4.51412 7.83378 4.53255 7.8528 4.51896L7.9996 4.41404L8.14639 4.51896C8.16542 4.53255 8.19073 4.51412 8.18374 4.49185L8.12928 4.31982L8.2744 4.21263C8.29319 4.19876 8.2835 4.16892 8.26014 4.16876L8.07971 4.1674L8.02264 3.99623C8.01526 3.97408 7.98389 3.97408 7.97651 3.99623Z" fill="#F5F5F5"/>
<path d="M9.24751 6.36915L9.19044 6.54032L9.01001 6.54169C8.98665 6.54185 8.97696 6.57169 8.99575 6.58556L9.14087 6.69274L9.08642 6.86478C9.07938 6.88704 9.10474 6.90548 9.12376 6.89189L9.27056 6.78696L9.41735 6.89189C9.43637 6.90548 9.46169 6.88704 9.45469 6.86478L9.40024 6.69274L9.54536 6.58556C9.56415 6.57169 9.55446 6.54185 9.5311 6.54169L9.35067 6.54032L9.2936 6.36915C9.28626 6.347 9.25489 6.347 9.24751 6.36915Z" fill="#F5F5F5"/>
<path d="M10.5188 6.36915L10.4617 6.54032L10.2813 6.54169C10.2579 6.54185 10.2482 6.57169 10.267 6.58556L10.4121 6.69274L10.3577 6.86478C10.3507 6.88704 10.376 6.90548 10.395 6.89189L10.5418 6.78696L10.6886 6.89189C10.7077 6.90548 10.733 6.88704 10.726 6.86478L10.6715 6.69274L10.8167 6.58556C10.8355 6.57169 10.8258 6.54185 10.8024 6.54169L10.622 6.54032L10.5649 6.36915C10.5575 6.347 10.5261 6.347 10.5188 6.36915Z" fill="#F5F5F5"/>
<path d="M9.24751 3.99623L9.19044 4.1674L9.01001 4.16876C8.98665 4.16892 8.97696 4.19876 8.99575 4.21263L9.14087 4.31982L9.08642 4.49185C9.07938 4.51412 9.10474 4.53255 9.12376 4.51896L9.27056 4.41404L9.41735 4.51896C9.43637 4.53255 9.46169 4.51412 9.45469 4.49185L9.40024 4.31982L9.54536 4.21263C9.56415 4.19876 9.55446 4.16892 9.5311 4.16876L9.35067 4.1674L9.2936 3.99623C9.28626 3.97408 9.25489 3.97408 9.24751 3.99623Z" fill="#F5F5F5"/>
<path d="M10.5188 3.99623L10.4617 4.1674L10.2813 4.16876C10.2579 4.16892 10.2482 4.19876 10.267 4.21263L10.4121 4.31982L10.3577 4.49185C10.3507 4.51412 10.376 4.53255 10.395 4.51896L10.5418 4.41404L10.6886 4.51896C10.7077 4.53255 10.733 4.51412 10.726 4.49185L10.6715 4.31982L10.8167 4.21263C10.8355 4.19876 10.8258 4.16892 10.8024 4.16876L10.622 4.1674L10.5649 3.99623C10.5575 3.97408 10.5261 3.97408 10.5188 3.99623Z" fill="#F5F5F5"/>
</svg>
