<svg width="64" height="64" viewBox="0 0 64 64" fill="none" xmlns="http://www.w3.org/2000/svg">
<path d="M32 64C49.6731 64 64 49.6731 64 32C64 14.3269 49.6731 0 32 0C14.3269 0 0 14.3269 0 32C0 49.6731 14.3269 64 32 64Z" fill="#6F3FAA"/>
<path d="M45.8831 17.5553C38.0941 15.6741 30.2912 13.4736 22.3035 16.2693C17.1317 18.2087 17.1317 23.8115 17.3472 28.5522C17.3472 29.8451 15.8389 31.5691 16.4852 33.0775C17.7781 37.3872 18.8556 41.697 23.3809 43.8518C24.0274 44.2828 23.3809 45.1447 23.8119 45.7912C23.5964 45.7912 23.1654 46.0067 23.1654 46.2222C23.1654 47.2551 23.6289 48.835 23.321 49.8535L37.0717 63.5985C51.208 61.3472 62.2565 49.84 63.811 35.4833L45.8831 17.5553Z" fill="#512D84"/>
<path d="M48.9284 22.4905L48.9179 22.4482C48.0629 18.9916 44.2082 15.2826 40.6682 14.511L40.6283 14.5028C34.9025 13.4105 29.0969 13.4105 23.3724 14.5028L23.3313 14.511C19.7925 15.2826 15.9377 18.9919 15.0815 22.4482L15.072 22.4905C14.015 27.3176 14.015 32.2131 15.072 37.0402L15.0815 37.0825C15.9013 40.3915 19.4689 43.9302 22.8768 44.9034V48.7619C22.8768 50.1585 24.5787 50.8444 25.5464 49.8365L29.4558 45.7729C30.3038 45.8202 31.1522 45.8467 32.0003 45.8467C34.8824 45.8467 37.7659 45.5741 40.6282 45.0281L40.668 45.0199C44.208 44.2482 48.0628 40.539 48.9178 37.0826L48.9283 37.0404C49.9853 32.2131 49.9853 27.3179 48.9284 22.4905ZM45.8345 36.3404C45.2637 38.5955 42.3369 41.399 40.0114 41.917C36.967 42.496 33.8984 42.7434 30.8329 42.6585C30.7719 42.6567 30.7133 42.6805 30.6709 42.7242C30.2358 43.1707 27.8165 45.6545 27.8165 45.6545L24.7805 48.7705C24.5585 49.002 24.1685 48.8444 24.1685 48.525V42.133C24.1685 42.0274 24.0932 41.9377 23.9894 41.9172C23.9888 41.917 23.9883 41.917 23.9877 41.9169C21.6622 41.3989 18.7364 38.5954 18.1645 36.3402C17.2132 31.977 17.2132 27.5537 18.1645 23.1905C18.7364 20.9354 21.6622 18.1319 23.9877 17.6139C29.3047 16.6026 34.6957 16.6026 40.0115 17.6139C42.3382 18.1319 45.2638 20.9354 45.8347 23.1905C46.787 27.5539 46.787 31.9771 45.8345 36.3404Z" fill="white"/>
<path d="M37.0584 39.2908C36.7009 39.1822 36.3603 39.1093 36.0437 38.9782C32.7648 37.6178 29.7473 35.8628 27.3572 33.1727C25.9979 31.6429 24.9341 29.9158 24.0348 28.0881C23.6083 27.2213 23.2489 26.3207 22.8826 25.4257C22.5486 24.6097 23.0406 23.7667 23.5586 23.1517C24.0447 22.5746 24.6703 22.1331 25.3478 21.8074C25.8766 21.5534 26.3981 21.6999 26.7843 22.1481C27.6191 23.1171 28.3861 24.1356 29.0068 25.2588C29.3887 25.9497 29.2839 26.7942 28.5918 27.2643C28.4236 27.3786 28.2703 27.5128 28.1137 27.6418C27.9762 27.7549 27.8469 27.8692 27.7527 28.0223C27.5806 28.3024 27.5723 28.6331 27.6831 28.9377C28.5364 31.2828 29.9748 33.1066 32.3354 34.0889C32.7132 34.2461 33.0924 34.4289 33.5277 34.3783C34.2564 34.2932 34.4924 33.4937 35.0032 33.0761C35.5023 32.6679 36.1403 32.6626 36.6779 33.0028C37.2158 33.3433 37.7371 33.7086 38.2553 34.0779C38.7641 34.4404 39.2704 34.7948 39.7396 35.2082C40.1908 35.6056 40.3462 36.1268 40.0921 36.6659C39.6271 37.6536 38.9502 38.4749 37.9741 38.9994C37.6984 39.1472 37.3692 39.1951 37.0584 39.2908C36.7009 39.1822 37.3692 39.1951 37.0584 39.2908Z" fill="white"/>
<path d="M32.0092 20.6782C36.2978 20.7985 39.8205 23.6446 40.5754 27.8846C40.704 28.6071 40.7497 29.3456 40.807 30.079C40.8311 30.3873 40.6564 30.6803 40.3236 30.6845C39.9798 30.6886 39.8252 30.4008 39.8027 30.0927C39.7586 29.4825 39.728 28.8693 39.6439 28.2643C39.2 25.0695 36.6525 22.4263 33.4725 21.8592C32.9938 21.7738 32.5043 21.7515 32.0195 21.7006C31.7131 21.6685 31.3118 21.65 31.244 21.269C31.1871 20.9496 31.4566 20.6953 31.7607 20.679C31.8431 20.6741 31.9262 20.678 32.0092 20.6782C36.2981 20.7985 31.9262 20.678 32.0092 20.6782Z" fill="white"/>
<path d="M38.5264 29.1275C38.5193 29.1811 38.5157 29.307 38.4842 29.4255C38.3704 29.856 37.7174 29.9098 37.5673 29.4755C37.5227 29.3466 37.5161 29.1998 37.5158 29.0611C37.5143 28.1528 37.3169 27.2453 36.8588 26.455C36.3879 25.6426 35.6684 24.96 34.8248 24.5466C34.3146 24.2968 33.7629 24.1415 33.2037 24.0491C32.9593 24.0086 32.7123 23.9842 32.4667 23.95C32.1691 23.9086 32.0101 23.719 32.0243 23.4257C32.0374 23.151 32.2383 22.9531 32.5378 22.9702C33.5219 23.026 34.4727 23.239 35.3478 23.7022C37.1271 24.6446 38.1436 26.1318 38.4403 28.118C38.4537 28.2081 38.4752 28.2971 38.4821 28.3873C38.4988 28.6101 38.5094 28.8332 38.5264 29.1275C38.5193 29.1808 38.5094 28.8332 38.5264 29.1275Z" fill="white"/>
<path d="M35.8587 29.0235C35.5 29.03 35.308 28.8312 35.2709 28.5025C35.2452 28.2732 35.2247 28.0407 35.17 27.8175C35.0622 27.3779 34.8286 26.9706 34.4589 26.7012C34.2844 26.5741 34.0865 26.4815 33.8794 26.4215C33.6162 26.3454 33.3427 26.3664 33.0804 26.3021C32.7952 26.2322 32.6375 26.0012 32.6824 25.7339C32.7231 25.4904 32.9599 25.3004 33.226 25.3197C34.8887 25.4397 36.0771 26.2994 36.2467 28.2569C36.2589 28.395 36.2729 28.5409 36.2422 28.6732C36.1895 28.8991 36.022 29.0125 35.8587 29.0235C35.4999 29.0299 36.022 29.0125 35.8587 29.0235Z" fill="white"/>
<path d="M48.9282 22.4904L48.9177 22.4482C48.4385 20.5106 47.0162 18.4938 45.2355 16.9593L42.8281 19.0928C44.2596 20.2334 45.4861 21.8136 45.8346 23.1903C46.7871 27.5537 46.7871 31.9768 45.8346 36.3403C45.2637 38.5954 42.3368 41.3989 40.0115 41.9169C36.9671 42.4959 33.8985 42.7433 30.833 42.6584C30.772 42.6567 30.7133 42.6804 30.671 42.7242C30.2358 43.1707 27.8166 45.6544 27.8166 45.6544L24.7806 48.7704C24.5586 49.0019 24.1686 48.8446 24.1686 48.5249V42.1329C24.1686 42.0273 24.0932 41.9377 23.9895 41.9172C23.9888 41.9172 23.9883 41.9169 23.9877 41.9169C22.6661 41.6226 21.1512 40.5897 19.9842 39.3393L17.6055 41.4472C19.0911 43.0633 21.0072 44.3698 22.8765 44.9036V48.7621C22.8765 50.1587 24.5783 50.8446 25.5461 49.8367L29.4555 45.7731C30.3035 45.8204 31.1516 45.8469 32 45.8469C34.8821 45.8469 37.7656 45.5743 40.6278 45.0283L40.6677 45.0202C44.2077 44.2486 48.0625 40.5396 48.9175 37.0829L48.928 37.0407C49.9851 32.2131 49.9851 27.3178 48.9282 22.4904Z" fill="#D1D1D1"/>
<path d="M37.0586 39.2907C37.3693 39.195 36.7011 39.1821 37.0586 39.2907V39.2907Z" fill="white"/>
<path d="M39.7401 35.208C39.271 34.7949 38.7643 34.4403 38.2558 34.0778C37.7376 33.7084 37.2163 33.3431 36.6785 33.0026C36.1408 32.6624 35.503 32.6677 35.0037 33.0759C34.493 33.4935 34.2571 34.293 33.5282 34.3781C33.0931 34.4287 32.7137 34.2457 32.336 34.0887C30.8836 33.4845 29.7816 32.5605 28.9487 31.3939L27.1787 32.9626C27.2388 33.0322 27.2962 33.1038 27.3573 33.1725C29.7476 35.8626 32.7652 37.6176 36.0438 38.978C36.3602 39.1092 36.7011 39.1822 37.0586 39.2906C36.7011 39.182 37.3696 39.195 37.0586 39.2906C37.3696 39.195 37.6986 39.1469 37.9745 38.9991C38.9508 38.4746 39.6275 37.6531 40.0925 36.6656C40.3467 36.1266 40.1913 35.6054 39.7401 35.208Z" fill="#D1D1D1"/>
<path d="M32.0197 20.6788C32.0161 20.6788 32.0126 20.6784 32.009 20.6784C32.0055 20.6782 32.01 20.6784 32.0197 20.6788Z" fill="white"/>
<path d="M32.0088 20.6782C32.0124 20.6782 32.0159 20.6786 32.0195 20.6786C32.2575 20.6871 36.1285 20.7937 32.0088 20.6782Z" fill="white"/>
<path d="M38.1609 23.2296L37.4062 23.8985C38.5921 25.0522 39.4099 26.5814 39.6436 28.2641C39.7276 28.8694 39.7585 29.4822 39.8026 30.0925C39.825 30.4009 39.9795 30.6885 40.3235 30.6845C40.6564 30.6804 40.831 30.3875 40.8069 30.079C40.7495 29.3457 40.7039 28.607 40.5753 27.8846C40.2449 26.0286 39.384 24.4397 38.1609 23.2296Z" fill="#D1D1D1"/>
<path d="M38.4403 28.1173C38.2242 26.67 37.6238 25.489 36.6265 24.5893L35.874 25.2562C36.2631 25.6015 36.5998 26.0072 36.859 26.4545C37.3172 27.2449 37.5145 28.1524 37.516 29.0607C37.5163 29.1994 37.5229 29.3462 37.5675 29.4753C37.7179 29.9099 38.3707 29.856 38.4844 29.4253C38.5159 29.3065 38.5195 29.1807 38.5267 29.1273C38.5195 29.1809 38.5094 28.8332 38.5267 29.1273C38.5094 28.8332 38.4989 28.6099 38.482 28.3869C38.4754 28.2963 38.4538 28.2073 38.4403 28.1173Z" fill="#D1D1D1"/>
<path d="M38.527 29.1274C38.51 28.8331 38.5199 29.1808 38.527 29.1274V29.1274Z" fill="white"/>
<path d="M35.8594 29.0235C35.865 29.0231 35.8703 29.0202 35.8757 29.0196C35.8606 29.0196 35.8374 29.02 35.8135 29.0209C35.829 29.0213 35.8431 29.0236 35.8594 29.0235Z" fill="white"/>
<path d="M35.8593 29.0235C35.8432 29.0238 35.8289 29.0214 35.8134 29.0209C35.7358 29.023 35.6556 29.0271 35.8593 29.0235Z" fill="white"/>
<path d="M35.8757 29.0196C35.8701 29.0202 35.8647 29.0231 35.8594 29.0235C35.9014 29.0206 35.8977 29.0196 35.8757 29.0196Z" fill="white"/>
<path d="M35.1019 25.9406L34.3359 26.6196C34.3782 26.6452 34.4196 26.672 34.4597 26.7011C34.8294 26.9705 35.0631 27.3777 35.1708 27.8173C35.2256 28.0406 35.2458 28.2728 35.2717 28.5023C35.3071 28.8165 35.4854 29.0096 35.8137 29.0208C35.8376 29.0202 35.8611 29.0197 35.876 29.0196C36.034 29.0021 36.1923 28.8913 36.243 28.6728C36.2736 28.5407 36.2596 28.3946 36.2475 28.2565C36.1522 27.1621 35.7384 26.4112 35.1019 25.9406Z" fill="#D1D1D1"/>
</svg>
