<svg width="64" height="64" viewBox="0 0 64 64" fill="none" xmlns="http://www.w3.org/2000/svg">
<g clip-path="url(#clip0)">
<path d="M32 64C49.6731 64 64 49.6731 64 32C64 14.3269 49.6731 0 32 0C14.3269 0 0 14.3269 0 32C0 49.6731 14.3269 64 32 64Z" fill="#75B73B"/>
<path d="M45.0298 18.9783C43.1744 18.5143 40.4459 16.9118 38.6798 16.2694C31.7841 14.1145 22.5181 15.8384 19.9323 23.8115C19.7168 24.027 19.2858 24.027 19.0703 24.027C13.8985 30.0606 17.3464 37.3873 16.9154 44.0674C16.7683 46.4223 15.53 48.5045 13.9365 50.2659L27.3468 63.6621C28.866 63.8834 30.419 64 31.9996 64C47.8041 64 60.9311 52.5419 63.5305 37.4799L45.0298 18.9783Z" fill="#52891D"/>
<path d="M31.1048 13.5558C21.3512 14.0198 13.6543 22.1428 13.6837 31.9072C13.6927 34.8812 14.4107 37.6883 15.6774 40.1691L13.7328 49.6083C13.6277 50.1191 14.0882 50.5662 14.5954 50.4459L23.8448 48.2547C26.2212 49.4386 28.8903 50.1221 31.7151 50.1652C41.6842 50.3176 49.9964 42.4021 50.3076 32.4366C50.6403 21.7543 41.8241 13.0452 31.1048 13.5558ZM42.1414 41.992C39.4328 44.7006 35.8311 46.1925 32.0002 46.1925C29.7572 46.1925 27.6094 45.6891 25.6169 44.6967L24.3292 44.055L18.6579 45.3983L19.8516 39.6038L19.2172 38.361C18.1827 36.3352 17.6582 34.1449 17.6582 31.8504C17.6582 28.0194 19.1501 24.4181 21.8587 21.7092C24.5432 19.0244 28.2036 17.5087 32.0004 17.5087C35.8309 17.5087 39.4327 19.0006 42.1413 21.7092C44.8499 24.4178 46.3418 28.0196 46.3418 31.8501C46.3421 35.6471 44.8261 39.3073 42.1414 41.992Z" fill="white"/>
<path d="M40.8893 35.8226L37.3413 34.804C36.8751 34.6704 36.3726 34.8027 36.0328 35.149L35.165 36.0327C34.7993 36.4057 34.2443 36.5253 33.76 36.3295C32.0816 35.6502 28.551 32.511 27.6499 30.9412C27.3894 30.4882 27.4325 29.9222 27.752 29.5085L28.5093 28.5286C28.806 28.1449 28.8685 27.629 28.6724 27.1852L27.1798 23.8092C26.8223 23.0007 25.789 22.7652 25.1139 23.3362C24.1238 24.1739 22.9489 25.4462 22.8063 26.8562C22.5544 29.3421 23.6206 32.4755 27.6515 36.2381C32.3086 40.5853 36.0383 41.1592 38.4669 40.5711C39.8443 40.2377 40.945 38.9005 41.6393 37.8053C42.1131 37.0582 41.7386 36.0667 40.8893 35.8226Z" fill="white"/>
<path d="M44.5009 18.4635L41.723 21.3108C41.8644 21.4414 42.0052 21.5728 42.1419 21.7096C44.8507 24.4183 46.3424 28.02 46.3424 31.8505C46.3424 35.6474 44.8264 39.3075 42.1419 41.9923C39.4333 44.7009 35.8315 46.1928 32.0007 46.1928C29.7577 46.1928 27.61 45.6894 25.6174 44.697L24.3297 44.0553L18.6584 45.3986L18.7757 44.8295L13.7539 49.976C13.8647 50.3089 14.217 50.5354 14.5957 50.4458L23.845 48.2545C26.2214 49.4384 28.8905 50.1219 31.7153 50.165C41.6844 50.3174 49.9969 42.4019 50.3078 32.4364C50.4797 26.9196 48.2112 21.9294 44.5009 18.4635Z" fill="#D1D1D1"/>
<path d="M40.8894 35.8227L37.3414 34.8041C36.8753 34.6705 36.3728 34.8028 36.0329 35.1491L35.1651 36.0328C34.7994 36.4058 34.2444 36.5255 33.7601 36.3296C32.7906 35.9372 31.2038 34.724 29.862 33.4666L27.3955 35.9947C27.4801 36.0757 27.5645 36.1566 27.6518 36.2382C32.3089 40.5855 36.0385 41.1593 38.4671 40.5712C39.8445 40.2378 40.9452 38.9006 41.6395 37.8055C42.1132 37.0583 41.7387 36.0668 40.8894 35.8227Z" fill="#D1D1D1"/>
</g>
<defs>
<clipPath id="clip0">
<rect width="64" height="64" fill="white"/>
</clipPath>
</defs>
</svg>
