<svg width="42" height="41" viewBox="0 0 42 41" fill="none" xmlns="http://www.w3.org/2000/svg">
<path d="M32.3138 26.156L29.4858 23.328L32.3138 20.5C33.0567 19.7571 33.646 18.8752 34.048 17.9046C34.4501 16.9339 34.657 15.8936 34.657 14.843C34.657 13.7924 34.4501 12.7521 34.048 11.7815C33.646 10.8108 33.0567 9.92891 32.3138 9.18602C31.5709 8.44313 30.689 7.85384 29.7184 7.45179C28.7477 7.04974 27.7074 6.84281 26.6568 6.84281C25.6062 6.84281 24.5659 7.04974 23.5953 7.45179C22.6246 7.85384 21.7427 8.44313 20.9998 9.18602L18.1718 12.014L15.3438 9.18602L18.1718 6.35802C20.4284 4.13786 23.4709 2.89933 26.6366 2.91222C29.8022 2.92511 32.8345 4.18837 35.073 6.42684C37.3115 8.6653 38.5747 11.6976 38.5876 14.8633C38.6005 18.0289 37.362 21.0714 35.1418 23.328L32.3138 26.156ZM26.6558 31.814L23.8278 34.642C22.7168 35.7712 21.3933 36.6693 19.9335 37.2844C18.4738 37.8996 16.9066 38.2196 15.3226 38.226C13.7385 38.2325 12.1688 37.9252 10.7041 37.322C9.23935 36.7188 7.90854 35.8315 6.78842 34.7114C5.6683 33.5913 4.78104 32.2605 4.17782 30.7957C3.5746 29.331 3.26735 27.7613 3.2738 26.1773C3.28025 24.5932 3.60027 23.0261 4.2154 21.5663C4.83053 20.1065 5.7286 18.783 6.8578 17.672L9.6858 14.844L12.5138 17.672L9.6858 20.5C8.94292 21.2429 8.35363 22.1248 7.95158 23.0955C7.54953 24.0661 7.3426 25.1064 7.3426 26.157C7.3426 27.2076 7.54953 28.2479 7.95158 29.2186C8.35363 30.1892 8.94292 31.0711 9.6858 31.814C10.4287 32.5569 11.3106 33.1462 12.2813 33.5482C13.2519 33.9503 14.2922 34.1572 15.3428 34.1572C16.3934 34.1572 17.4337 33.9503 18.4044 33.5482C19.375 33.1462 20.2569 32.5569 20.9998 31.814L23.8278 28.986L26.6558 31.814ZM26.6558 12.014L29.4858 14.844L15.3438 28.984L12.5138 26.156L26.6558 12.016V12.014ZM8.5498 1.08602L12.4138 0.0500183L14.4838 7.78002L10.6218 8.81602L8.5498 1.08802V1.08602ZM27.5158 33.222L31.3778 32.186L33.4498 39.914L29.5858 40.95L27.5158 33.222ZM1.5858 8.05002L9.3138 10.122L8.2778 13.984L0.549805 11.914L1.5858 8.05002ZM33.7218 27.016L41.4498 29.086L40.4138 32.95L32.6858 30.878L33.7218 27.016Z" fill="#EF7F1A"/>
</svg>
