<svg width="274" height="239" viewBox="0 0 274 239" fill="none" xmlns="http://www.w3.org/2000/svg">
<path fill-rule="evenodd" clip-rule="evenodd" d="M123.393 1.76226C120.454 3.44126 105.52 10.8893 101.803 12.5283C100.923 12.9173 98.5833 14.0083 96.6033 14.9533C94.6233 15.8983 92.1033 17.0593 91.0033 17.5333C88.1863 18.7483 83.5603 20.9653 76.6953 24.3913C73.4453 26.0123 70.4303 27.5173 69.9953 27.7343C68.2803 28.5893 69.0733 28.9653 71.2063 28.3093C71.9743 28.0723 73.5033 27.6363 74.6033 27.3403C75.7033 27.0443 77.6833 26.5103 79.0033 26.1533C80.3233 25.7953 82.1233 25.3283 83.0033 25.1143C83.8833 24.9003 84.9633 24.5633 85.4033 24.3663C85.8433 24.1693 86.9233 23.8253 87.8033 23.6023C88.6833 23.3803 90.3933 22.9033 91.6033 22.5433C92.8133 22.1843 94.7933 21.6473 96.0033 21.3513C99.9803 20.3763 101.792 19.8763 102.603 19.5283C103.043 19.3403 104.213 19.0043 105.203 18.7813C106.193 18.5593 107.993 18.0823 109.203 17.7213C110.413 17.3603 112.393 16.8203 113.603 16.5213C114.813 16.2223 116.793 15.6813 118.003 15.3193C120.204 14.6593 122.621 13.9873 126.003 13.0953C126.993 12.8343 128.37 12.3773 129.063 12.0803C129.757 11.7823 130.747 11.5333 131.263 11.5263C131.78 11.5193 133.193 11.1683 134.403 10.7473C137.071 9.81927 137.076 9.49026 134.478 6.13926C133.455 4.81926 132.435 3.49227 132.211 3.19027C129.35 -0.665734 128.02 -0.880735 123.393 1.76226ZM171.403 8.42826C169.863 8.85826 167.568 9.46327 166.303 9.77427C164.068 10.3233 161.323 11.0113 156.803 12.1563C155.593 12.4623 153.703 12.9103 152.603 13.1523C151.503 13.3933 149.793 13.8293 148.803 14.1193C147.813 14.4103 145.833 14.9533 144.403 15.3263C142.973 15.7003 140.927 16.2603 139.857 16.5723C138.787 16.8843 137.428 17.1393 136.837 17.1393C136.246 17.1393 135.592 17.3103 135.383 17.5183C135.174 17.7273 134.013 18.0763 132.803 18.2933C130.342 18.7363 126.888 19.6023 121.403 21.1523C120.743 21.3383 119.483 21.6083 118.603 21.7513C117.723 21.8933 116.283 22.2423 115.403 22.5263C113.786 23.0473 110.969 23.7793 108.403 24.3463C106.894 24.6803 100.099 26.3683 96.2033 27.3783C94.8833 27.7203 92.7233 28.2743 91.4033 28.6103C87.9003 29.5013 85.0883 30.3673 84.4033 30.7663C84.0583 30.9673 105.685 31.0793 135.203 31.0283L186.603 30.9393L186.548 28.8343C186.517 27.6763 186.3 26.4973 186.065 26.2143C185.83 25.9313 185.516 24.8983 185.366 23.9193C185.216 22.9403 184.959 21.9593 184.795 21.7393C184.63 21.5193 184.376 20.7093 184.231 19.9393C183.82 17.7693 182.755 13.4273 182.416 12.5393C182.247 12.0993 181.948 11.2053 181.751 10.5513C180.869 7.63027 177.064 6.85026 171.403 8.42826ZM52.2303 38.2953C52.1093 38.4903 51.5333 38.7703 50.9493 38.9173C47.4093 39.8053 43.8593 43.8883 42.9523 48.1153C42.1823 51.6973 42.1903 153.134 42.9603 156.339C43.6703 159.296 46.6433 163.939 47.8263 163.939C48.0893 163.939 48.5293 164.209 48.8033 164.539C49.0773 164.869 49.5943 165.14 49.9523 165.141C50.3103 165.143 51.1193 165.413 51.7493 165.741C53.3133 166.557 93.8203 166.631 92.7493 165.816C88.2843 162.417 86.9743 161.122 86.2493 159.387C84.8683 156.083 85.9803 153.692 90.6033 150.017C92.3633 148.619 94.1773 147.174 94.6343 146.807C95.0923 146.439 95.7453 145.959 96.0873 145.739C96.7473 145.315 102.464 140.736 102.803 140.36C102.913 140.239 103.633 139.697 104.403 139.157C106.054 137.998 105.573 138.366 110.699 134.349C112.952 132.583 114.968 131.139 115.179 131.139C115.39 131.139 115.707 130.907 115.883 130.622C116.059 130.338 118.543 128.328 121.403 126.155C124.263 123.981 126.693 122.099 126.803 121.971C129.4 118.956 134.282 118.039 136.941 120.066C139.442 121.971 139.736 122.732 139.93 127.79C140.094 132.092 140.154 132.362 140.989 132.571C141.476 132.693 156.618 132.722 174.639 132.635C209.57 132.465 210.531 132.411 214.308 130.39C214.771 130.142 215.522 129.939 215.977 129.939C216.431 129.939 216.803 129.759 216.803 129.539C216.803 129.277 208.365 129.139 192.288 129.139C165.641 129.139 166.121 129.176 162.403 126.865C157.336 123.716 157.061 122.624 156.882 104.939C156.667 83.6953 157.218 80.8083 162.089 77.6583C165.718 75.3123 164.869 75.3823 192.403 75.1523L217.803 74.9393L217.921 62.1393C218.035 49.7453 217.869 47.3703 216.763 45.5393C216.564 45.2093 216.232 44.5513 216.026 44.0763C215.517 42.9063 213.032 40.4663 212.023 40.1453C211.572 40.0023 211.203 39.7173 211.203 39.5123C211.203 39.3073 210.888 39.1383 210.503 39.1373C210.118 39.1353 209.287 38.8653 208.657 38.5373C207.333 37.8463 52.6553 37.6073 52.2303 38.2953ZM167.231 82.5303C163.653 83.8233 163.499 84.7673 163.675 104.357C163.856 124.466 160.295 122.339 193.775 122.339C226.951 122.339 223.169 124.937 223.189 102.128C223.205 83.1873 223.347 84.0873 220.123 82.7053C217.889 81.7473 169.838 81.5883 167.231 82.5303ZM184.929 91.7093C189.48 93.8383 191.753 97.2973 191.785 102.139C191.851 112.286 180.309 117.213 172.377 110.424C171.511 109.683 170.803 108.88 170.803 108.639C170.803 108.399 170.558 107.918 170.259 107.57C168.593 105.636 168.7 99.6953 170.463 96.3143C172.967 91.5103 179.831 89.3253 184.929 91.7093ZM131.851 127.872C130.894 128.057 125.028 132.37 121.841 135.231C121.417 135.611 120.335 136.421 119.437 137.031C118.538 137.64 117.545 138.384 117.23 138.683C116.915 138.983 114.141 141.125 111.064 143.443C107.988 145.762 105.186 147.898 104.837 148.19C104.212 148.713 98.2323 153.412 95.7033 155.368C93.4223 157.132 93.2133 156.877 103.167 164.48C105.717 166.427 107.863 168.182 107.936 168.38C108.01 168.577 108.28 168.743 108.536 168.748C108.793 168.753 109.723 169.384 110.603 170.149C112.812 172.069 112.952 172.181 114.709 173.432C115.564 174.041 117.6 175.566 119.233 176.82C120.867 178.075 124.326 180.73 126.921 182.72C133.143 187.493 132.803 187.629 132.803 180.363C132.803 176.021 132.94 174.298 133.303 174.063C133.578 173.885 149.373 173.639 168.403 173.516C203.743 173.288 204.984 173.231 208.403 171.705C216.833 167.941 220.172 164.896 225.907 155.739C226.183 155.299 226.523 154.669 226.664 154.339C228.462 150.133 228.686 149.516 229.794 145.739C230.181 144.419 230.675 142.799 230.892 142.139C231.318 140.843 232.209 136.946 232.81 133.744C233.016 132.646 233.384 131.268 233.627 130.682C234.733 128.01 234.005 127.701 231.303 129.694C229.928 130.708 228.218 131.859 227.503 132.252C226.788 132.644 225.442 133.454 224.511 134.052C223.58 134.65 222.715 135.139 222.589 135.139C222.309 135.139 218.871 136.618 217.908 137.153C217.526 137.365 216.896 137.547 216.508 137.557C216.12 137.566 215.083 137.847 214.203 138.18C213.323 138.513 211.613 138.938 210.403 139.125C209.193 139.311 207.033 139.666 205.603 139.913C202.527 140.443 133.874 140.343 133.336 139.807C133.153 139.625 132.913 136.832 132.803 133.601C132.616 128.12 132.553 127.736 131.851 127.872ZM10.0603 204.339C-1.6177 208.54 -3.6587 227.715 6.7403 235.529C8.8683 237.127 14.1803 238.592 16.4823 238.215C22.5973 237.213 25.5813 235.275 27.7753 230.881C29.1853 228.057 28.5283 226.997 25.2033 226.731C23.4383 226.589 23.2563 226.707 22.3103 228.604C19.1653 234.912 8.5913 234.433 7.3543 227.927C7.2093 227.163 6.89831 226.295 6.66331 225.998C4.88131 223.737 6.4103 213.742 8.9653 210.953C12.9043 206.652 21.0003 207.687 22.5893 212.695C22.9003 213.674 23.4003 213.72 26.3223 213.041C28.3823 212.562 28.4553 212.5 28.2363 211.406C27.0323 205.386 17.4763 201.671 10.0603 204.339ZM77.4263 204.136C73.2623 205.619 71.2033 208.482 71.2033 212.787V215.973L72.9713 217.856C75.4063 220.45 76.6843 221.017 85.0033 223.191C91.0603 224.774 92.5113 228.292 88.6093 231.939C85.1883 235.136 75.6033 232.121 75.6033 227.848C75.6033 226.053 70.2903 226.59 70.0803 228.406C69.8723 230.2 73.3603 235.939 74.6583 235.939C74.8133 235.939 75.2243 236.184 75.5723 236.484C77.5303 238.175 83.9103 238.643 88.8973 237.461C94.9923 236.018 98.2843 229.143 95.6233 223.417C94.5983 221.211 90.7593 218.344 88.8183 218.337C88.4803 218.335 87.7423 218.094 87.1793 217.8C86.6163 217.506 85.3563 217.141 84.3793 216.989C76.8333 215.814 73.8983 211.304 79.0503 208.801C83.0063 206.879 89.6033 208.97 89.6033 212.146C89.6033 212.613 90.1963 212.739 92.4033 212.739H95.2033V211.17C95.2033 205.635 84.7883 201.513 77.4263 204.136ZM217.71 204.296C213.357 205.915 210.728 208.669 208.571 213.871C207.989 215.275 207.858 216.678 207.883 221.271L207.913 226.939L209.304 229.511C210.66 232.018 214.14 235.939 215.009 235.939C215.248 235.939 215.666 236.162 215.939 236.435C216.46 236.956 219.591 237.864 222.064 238.211C223.675 238.437 230.12 236.974 230.336 236.334C230.41 236.117 230.692 235.939 230.964 235.939C232.09 235.939 236.403 230.04 236.403 228.5C236.403 227.879 234.152 226.842 232.439 226.673C231.169 226.548 231.01 226.668 230.136 228.408C227.143 234.363 218.891 234.816 215.577 229.207C212.245 223.569 213.29 213.157 217.494 210.095C221.392 207.256 226.763 207.652 229.068 210.947C231.216 214.016 231.259 214.044 232.89 213.361C233.708 213.019 234.833 212.739 235.39 212.739C235.947 212.739 236.403 212.565 236.403 212.353C236.403 211.791 235.082 209.023 234.539 208.446C234.283 208.175 234.013 207.809 233.939 207.632C233.769 207.23 231.903 205.917 229.803 204.722C227.492 203.408 220.74 203.17 217.71 204.296ZM46.1283 204.439C45.9233 204.714 45.4363 205.749 45.0473 206.739C44.6583 207.729 44.0843 209.049 43.7713 209.671C43.4593 210.294 43.2033 211.076 43.2033 211.41C43.2033 211.743 42.9563 212.493 42.6553 213.077C41.9763 214.39 39.6033 220.479 39.6033 220.906C39.6033 221.265 38.6233 223.61 37.7793 225.271C37.4623 225.894 37.2033 226.587 37.2033 226.811C37.2033 227.252 36.3023 229.455 35.3793 231.271C35.0623 231.894 34.8033 232.709 34.8033 233.082C34.8033 233.456 34.5213 234.164 34.1763 234.656C32.8983 236.481 33.5203 237.325 36.2403 237.456C39.1763 237.598 39.3213 237.464 40.7893 233.24C42.0853 229.509 41.7823 229.632 49.8143 229.579C56.7453 229.533 57.2503 229.714 57.9523 232.502C58.2003 233.486 58.5833 234.403 58.8033 234.539C59.0233 234.675 59.2033 235.215 59.2033 235.739C59.2033 236.263 59.4063 236.817 59.6543 236.97C60.1013 237.247 65.6373 237.239 65.9143 236.961C66.0563 236.819 64.7433 233.601 63.9893 232.244C63.7773 231.862 63.6033 231.358 63.6033 231.122C63.6033 230.687 62.2893 227.503 61.5893 226.244C61.3773 225.862 61.2033 225.342 61.2033 225.088C61.2033 224.834 60.8633 223.887 60.4473 222.983C60.0313 222.079 59.3763 220.529 58.9923 219.539C57.7023 216.212 57.1633 214.945 56.5813 213.877C56.2633 213.293 56.0033 212.543 56.0033 212.21C56.0033 211.876 55.7443 211.094 55.4283 210.471C55.1123 209.849 54.4623 208.349 53.9823 207.139C52.7293 203.972 52.6813 203.939 49.4033 203.939C47.5473 203.939 46.3673 204.119 46.1283 204.439ZM104.003 220.539V237.139H106.803H109.603V230.219C109.603 221.662 108.984 222.339 116.807 222.339C125.173 222.339 124.571 221.733 124.729 230.306L124.856 237.139H127.629H130.403V220.539V203.939H127.631H124.859L124.731 210.126C124.565 218.156 125.115 217.629 116.972 217.559C109.002 217.492 109.603 218.084 109.603 210.29V203.939H106.803H104.003V220.539ZM139.089 204.186C138.368 204.907 138.771 237.073 139.503 237.235C139.888 237.319 144.793 237.316 150.403 237.228L160.603 237.067L162.645 235.694C167.944 232.132 168 224.227 162.748 221.204C160.955 220.172 160.814 219.392 162.19 218.116C166.508 214.114 165.542 207.814 160.2 205.139C158.191 204.133 139.965 203.31 139.089 204.186ZM183.085 205.637C182.69 206.573 182.105 207.849 181.785 208.471C181.465 209.094 181.203 209.915 181.203 210.295C181.203 210.675 180.939 211.335 180.616 211.763C180.293 212.19 180.023 212.864 180.016 213.261C180.009 213.658 179.675 214.738 179.274 215.661C178.873 216.584 178.218 218.149 177.819 219.139C177.421 220.129 176.872 221.479 176.599 222.139C176.327 222.799 175.774 224.239 175.369 225.339C174.965 226.439 174.403 227.789 174.121 228.339C173.839 228.889 173.607 229.549 173.605 229.807C173.604 230.064 173.344 230.784 173.027 231.407C170.258 236.856 170.646 238.013 175.019 237.357C176.705 237.105 177.9 235.259 179.332 230.696C179.614 229.799 181.337 229.539 187.003 229.539C193.958 229.539 194.167 229.604 195.194 232.083C195.663 233.214 196.2 234.499 196.388 234.939C196.576 235.379 196.831 236.054 196.954 236.439C197.188 237.171 197.294 237.196 200.203 237.196C203.871 237.196 203.658 237.298 203.037 235.839C202.733 235.124 202.173 233.729 201.793 232.739C201.413 231.749 200.872 230.399 200.589 229.739C200.307 229.079 199.772 227.729 199.399 226.739C199.026 225.749 198.559 224.626 198.362 224.244C198.164 223.862 197.759 222.872 197.461 222.044C196.63 219.733 192.911 210.498 191.46 207.139L190.163 204.139L186.983 204.037L183.803 203.935L183.085 205.637ZM244.382 204.839C244.212 211.964 244.5 236.996 244.754 237.25C244.942 237.438 246.155 237.444 247.449 237.264L249.803 236.936L250.003 231.938L250.203 226.939L252.924 224.339C254.42 222.909 255.845 221.739 256.09 221.739C256.502 221.739 259.116 225.01 259.176 225.601C259.238 226.21 265.33 236.194 265.989 236.766C266.689 237.374 272.509 237.566 273.076 237C273.194 236.882 272.731 235.955 272.047 234.942C271.363 233.928 270.803 233.025 270.803 232.934C270.803 232.844 269.723 231.226 268.403 229.339C267.083 227.452 266.003 225.833 266.003 225.742C266.003 225.65 265.266 224.532 264.366 223.257C263.465 221.982 262.557 220.579 262.348 220.139C262.14 219.699 261.71 218.889 261.395 218.339C260.761 217.235 260.959 216.083 261.953 215.088C266.929 210.104 272.003 204.686 272.003 204.357C272.003 204.098 270.653 203.939 268.451 203.939H264.899L262.998 206.039C260.027 209.32 252.684 217.186 251.859 217.972C250.248 219.507 250.003 218.684 250.003 211.729C250.003 203.569 250.148 203.939 246.96 203.939C244.581 203.939 244.402 204.002 244.382 204.839ZM158.226 210.126C159.47 211.574 159.591 214.57 158.457 215.876C156.718 217.882 147.327 218.9 145.534 217.277C144.635 216.463 144.452 210.063 145.303 209.181C146.423 208.02 157.087 208.8 158.226 210.126ZM51.2183 214.833C51.7863 216.311 52.3753 217.644 52.5273 217.796C52.6793 217.948 52.8033 218.412 52.8033 218.828C52.8033 219.243 53.1723 220.393 53.6233 221.383C55.0543 224.524 54.2333 225.139 48.6153 225.139C44.5753 225.139 44.0833 224.583 45.2243 221.306C45.6773 220.004 46.1453 218.579 46.2653 218.139C46.3853 217.699 46.7353 216.772 47.0433 216.079C47.3513 215.385 47.6033 214.57 47.6033 214.268C47.6033 211.195 49.9613 211.564 51.2183 214.833ZM188.513 214.139C188.922 215.239 189.412 216.589 189.6 217.139C189.789 217.689 190.332 219.129 190.807 220.339C192.525 224.717 192.448 224.836 187.733 225.051C183.881 225.227 182.003 224.767 182.003 223.649C182.004 222.858 183.273 219.336 183.718 218.891C183.875 218.734 184.003 218.258 184.003 217.833C184.003 217.408 184.252 216.493 184.556 215.799C184.86 215.106 185.336 213.945 185.613 213.219C186.373 211.227 187.571 211.607 188.513 214.139ZM155.781 222.598C160.357 223.225 162.196 228.389 158.914 231.395L157.425 232.758L151.214 232.649L145.003 232.539L144.889 227.996C144.814 224.989 144.932 223.265 145.238 222.896C145.742 222.29 152.201 222.107 155.781 222.598Z" fill="#404040"/>
<path fill-rule="evenodd" clip-rule="evenodd" d="M123.331 1.76226C120.392 3.44126 105.458 10.8893 101.741 12.5283C100.861 12.9173 98.5209 14.0083 96.5409 14.9533C94.5609 15.8983 92.0409 17.0593 90.9409 17.5333C88.1239 18.7483 83.4979 20.9653 76.6329 24.3913C73.3829 26.0123 70.3679 27.5173 69.9329 27.7343C68.2179 28.5893 69.0109 28.9653 71.1439 28.3093C71.9119 28.0723 73.4409 27.6363 74.5409 27.3403C75.6409 27.0443 77.6209 26.5103 78.9409 26.1533C80.2609 25.7953 82.0609 25.3283 82.9409 25.1143C83.8209 24.9003 84.9009 24.5633 85.3409 24.3663C85.7809 24.1693 86.8609 23.8253 87.7409 23.6023C88.6209 23.3803 90.3309 22.9033 91.5409 22.5433C92.7509 22.1843 94.7309 21.6473 95.9409 21.3513C99.9179 20.3763 101.73 19.8763 102.541 19.5283C102.981 19.3403 104.151 19.0043 105.141 18.7813C106.131 18.5593 107.931 18.0823 109.141 17.7213C110.351 17.3603 112.331 16.8203 113.541 16.5213C114.751 16.2223 116.731 15.6813 117.941 15.3193C120.142 14.6593 122.559 13.9873 125.941 13.0953C126.931 12.8343 128.308 12.3773 129.001 12.0803C129.695 11.7823 130.685 11.5333 131.201 11.5263C131.718 11.5193 133.131 11.1683 134.341 10.7473C137.009 9.81927 137.014 9.49026 134.416 6.13926C133.393 4.81926 132.373 3.49227 132.149 3.19027C129.288 -0.665734 127.958 -0.880735 123.331 1.76226ZM171.341 8.42826C169.801 8.85826 167.506 9.46327 166.241 9.77427C164.006 10.3233 161.261 11.0113 156.741 12.1563C155.531 12.4623 153.641 12.9103 152.541 13.1523C151.441 13.3933 149.731 13.8293 148.741 14.1193C147.751 14.4103 145.771 14.9533 144.341 15.3263C142.911 15.7003 140.865 16.2603 139.795 16.5723C138.725 16.8843 137.366 17.1393 136.775 17.1393C136.184 17.1393 135.53 17.3103 135.321 17.5183C135.112 17.7273 133.951 18.0763 132.741 18.2933C130.28 18.7363 126.826 19.6023 121.341 21.1523C120.681 21.3383 119.421 21.6083 118.541 21.7513C117.661 21.8933 116.221 22.2423 115.341 22.5263C113.724 23.0473 110.907 23.7793 108.341 24.3463C106.832 24.6803 100.037 26.3683 96.1409 27.3783C94.8209 27.7203 92.6609 28.2743 91.3409 28.6103C87.8379 29.5013 85.0259 30.3673 84.3409 30.7663C83.9959 30.9673 105.623 31.0793 135.141 31.0283L186.541 30.9393L186.486 28.8343C186.455 27.6763 186.238 26.4973 186.003 26.2143C185.768 25.9313 185.454 24.8983 185.304 23.9193C185.154 22.9403 184.897 21.9593 184.733 21.7393C184.568 21.5193 184.314 20.7093 184.169 19.9393C183.758 17.7693 182.693 13.4273 182.354 12.5393C182.185 12.0993 181.886 11.2053 181.689 10.5513C180.807 7.63027 177.002 6.85026 171.341 8.42826ZM131.789 127.872C130.832 128.057 124.966 132.37 121.779 135.231C121.355 135.611 120.273 136.421 119.375 137.031C118.476 137.64 117.483 138.384 117.168 138.683C116.853 138.983 114.079 141.125 111.002 143.443C107.926 145.762 105.124 147.898 104.775 148.19C104.15 148.713 98.1699 153.412 95.6409 155.368C93.3599 157.132 93.1509 156.877 103.105 164.48C105.655 166.427 107.801 168.182 107.874 168.38C107.948 168.577 108.218 168.743 108.474 168.748C108.731 168.753 109.661 169.384 110.541 170.149C112.75 172.069 112.89 172.181 114.647 173.432C115.502 174.041 117.538 175.566 119.171 176.82C120.805 178.075 124.264 180.73 126.859 182.72C133.081 187.493 132.741 187.629 132.741 180.363C132.741 176.021 132.878 174.298 133.241 174.063C133.516 173.885 149.311 173.639 168.341 173.516C203.681 173.288 204.922 173.231 208.341 171.705C216.771 167.941 220.11 164.896 225.845 155.739C226.121 155.299 226.461 154.669 226.602 154.339C228.4 150.133 228.624 149.516 229.732 145.739C230.119 144.419 230.613 142.799 230.83 142.139C231.256 140.843 232.147 136.946 232.748 133.744C232.954 132.646 233.322 131.268 233.565 130.682C234.671 128.01 233.943 127.701 231.241 129.694C229.866 130.708 228.156 131.859 227.441 132.252C226.726 132.644 225.38 133.454 224.449 134.052C223.518 134.65 222.653 135.139 222.527 135.139C222.247 135.139 218.809 136.618 217.846 137.153C217.464 137.365 216.834 137.547 216.446 137.557C216.058 137.566 215.021 137.847 214.141 138.18C213.261 138.513 211.551 138.938 210.341 139.125C209.131 139.311 206.971 139.666 205.541 139.913C202.465 140.443 133.812 140.343 133.274 139.807C133.091 139.625 132.851 136.832 132.741 133.601C132.554 128.12 132.491 127.736 131.789 127.872Z" fill="#EF7F1A"/>
</svg>
