<svg version="1.1" xmlns="http://www.w3.org/2000/svg" viewBox="0 0 256 256">
<path d="M128.001,28.501c-54.953,0-99.501,44.543-99.501,99.501c0,54.949,44.548,99.496,99.501,99.496
c54.95,0,99.499-44.547,99.499-99.496C227.5,73.044,182.951,28.501,128.001,28.501z"/>
<path fill="#FFFFFF" d="M143.834,75.031c-1.613-2.065-3.754-3.099-6.424-3.099c-2.369,0-3.981,0.454-4.838,1.361
c-0.857,0.907-2.696,3.325-5.517,7.256c-2.822,3.93-6.06,7.482-9.712,10.657c-3.654,3.174-8.529,6.198-14.625,9.07
c-4.081,1.915-6.929,3.477-8.541,4.686c-1.613,1.209-2.419,3.099-2.419,5.668c0,2.218,0.818,4.17,2.457,5.858
c1.636,1.688,3.515,2.532,5.63,2.532c4.433,0,13.05-4.913,25.849-14.738v68.778c0,4.032,0.932,7.08,2.796,9.146
c1.864,2.065,4.333,3.1,7.407,3.1c6.902,0,10.354-5.064,10.354-15.192V83.572C146.253,79.944,145.446,77.098,143.834,75.031z"/>
</svg>
