<svg version="1.1" xmlns="http://www.w3.org/2000/svg" viewBox="0 0 256 256">
<path d="M128.001,28.501c-54.953,0-99.5,44.543-99.5,99.501c0,54.948,44.548,99.496,99.5,99.496
c54.95,0,99.499-44.548,99.499-99.496C227.5,73.045,182.951,28.501,128.001,28.501z"/>
<path fill="#FFFFFF" d="M164.996,167.996c-2.066-1.612-5.062-2.42-8.994-2.42h-39.453c1.259-1.914,2.494-3.552,3.704-4.912
c2.821-3.426,8.023-8.238,15.607-14.436c7.583-6.198,12.987-10.745,16.212-13.643c3.225-2.896,6.387-6.903,9.485-12.018
c3.099-5.113,4.648-10.795,4.648-17.043c0-3.98-0.744-7.823-2.229-11.526c-1.486-3.704-3.565-6.965-6.235-9.788
c-2.671-2.821-5.771-5.038-9.297-6.651c-5.441-2.419-12.017-3.628-19.726-3.628c-6.4,0-11.98,0.945-16.742,2.834
c-4.761,1.889-8.692,4.372-11.791,7.445c-3.099,3.074-5.43,6.5-6.991,10.279c-1.562,3.779-2.343,7.407-2.343,10.884
c0,2.872,0.831,5.14,2.494,6.803c1.663,1.663,3.753,2.494,6.273,2.494c2.872,0,5.051-0.907,6.538-2.721
c1.485-1.814,2.821-4.409,4.006-7.785c1.183-3.375,2.028-5.442,2.532-6.198c3.779-5.793,8.968-8.692,15.57-8.692
c3.124,0,6.009,0.707,8.653,2.117c2.646,1.411,4.736,3.389,6.273,5.933c1.537,2.545,2.306,5.43,2.306,8.653
c0,2.974-0.718,6.009-2.154,9.107c-1.437,3.099-3.528,6.122-6.272,9.07c-2.748,2.948-6.187,5.883-10.317,8.805
c-2.318,1.562-6.173,4.825-11.564,9.787c-5.392,4.964-11.438,10.922-18.139,17.875c-1.613,1.714-3.099,4.07-4.459,7.067
c-1.36,2.999-2.041,5.403-2.041,7.218c0,2.822,1.058,5.279,3.174,7.369c2.116,2.092,5.063,3.137,8.843,3.137h55.628
c3.324,0,5.807-0.856,7.444-2.57c1.637-1.712,2.456-3.803,2.456-6.273C168.096,171.801,167.062,169.609,164.996,167.996z"/>
</svg>
