<svg version="1.1" xmlns="http://www.w3.org/2000/svg" viewBox="0 0 256 256">
<path d="M128.001,28.501c-54.953,0-99.5,44.543-99.5,99.501c0,54.948,44.548,99.496,99.5,99.496
c54.95,0,99.499-44.548,99.499-99.496C227.5,73.045,182.951,28.501,128.001,28.501z"/>
<path fill="#FFFFFF" d="M164.922,139.161c-1.361-3.3-3.39-6.311-6.085-9.032c-2.696-2.72-6.009-5.139-9.938-7.255
c4.081-3.426,7.217-6.94,9.409-10.544c2.192-3.602,3.288-7.922,3.288-12.962c0-3.829-0.756-7.407-2.268-10.733
c-1.512-3.326-3.754-6.247-6.727-8.767c-2.974-2.519-6.476-4.446-10.506-5.782c-4.031-1.334-8.491-2.003-13.378-2.003
c-5.593,0-10.657,0.793-15.191,2.38c-4.535,1.587-8.327,3.692-11.375,6.311c-3.049,2.621-5.366,5.379-6.954,8.276
c-1.587,2.898-2.381,5.657-2.381,8.276c0,2.721,0.843,4.901,2.532,6.538c1.688,1.638,3.539,2.457,5.556,2.457
c1.712,0,3.224-0.302,4.535-0.907c1.31-0.604,2.217-1.436,2.721-2.494c0.856-1.965,1.801-4.055,2.834-6.273
c1.032-2.217,2.128-4.031,3.288-5.442c1.158-1.41,2.732-2.544,4.724-3.401c1.989-0.856,4.522-1.285,7.596-1.285
c4.536,0,8.137,1.398,10.808,4.195c2.67,2.796,4.006,6.135,4.006,10.014c0,5.09-1.676,8.995-5.026,11.715
c-3.352,2.721-7.344,4.082-11.979,4.082h-3.099c-3.578,0-6.273,0.744-8.087,2.229c-1.814,1.487-2.721,3.439-2.721,5.858
c0,2.469,0.756,4.396,2.268,5.781c1.512,1.387,3.652,2.078,6.424,2.078c0.605,0,1.965-0.1,4.082-0.302
c2.117-0.2,3.677-0.302,4.686-0.302c5.744,0,10.228,1.676,13.453,5.025c3.224,3.352,4.837,7.974,4.837,13.869
c0,3.981-0.944,7.482-2.834,10.506c-1.889,3.023-4.283,5.303-7.18,6.84c-2.898,1.537-5.908,2.305-9.032,2.305
c-5.442,0-9.663-1.699-12.66-5.102c-2.999-3.4-5.808-8.604-8.427-15.607c-0.404-1.158-1.26-2.154-2.57-2.984
c-1.311-0.832-2.671-1.248-4.081-1.248c-2.822,0-5.177,0.896-7.067,2.684c-1.889,1.789-2.834,4.145-2.834,7.066
c0,2.268,0.793,5.14,2.381,8.616c1.587,3.477,3.93,6.84,7.029,10.091c3.099,3.25,7.041,5.958,11.829,8.124
c4.786,2.166,10.203,3.25,16.25,3.25c5.945,0,11.375-0.944,16.288-2.834s9.157-4.509,12.735-7.86
c3.577-3.35,6.285-7.167,8.125-11.45c1.838-4.282,2.759-8.717,2.759-13.302C166.962,146.027,166.281,142.463,164.922,139.161z"/>
</svg>
