<svg version="1.1" xmlns="http://www.w3.org/2000/svg" viewBox="0 0 256 256">
<path d="M128.001,28.501c-54.953,0-99.501,44.543-99.501,99.501c0,54.949,44.548,99.496,99.501,99.496
c54.95,0,99.499-44.547,99.499-99.496C227.5,73.044,182.951,28.501,128.001,28.501z"/>
<path fill="#FFFFFF" d="M167.68,144.414c-2.343-1.059-5.455-1.587-9.334-1.587h-3.25v-58.5c0-8.767-3.83-13.151-11.488-13.151
c-2.369,0-4.396,0.793-6.085,2.381c-1.688,1.587-3.843,4.145-6.462,7.671l-40.058,53.586c-1.109,1.462-2.041,2.696-2.797,3.704
s-1.487,2.053-2.191,3.136c-0.707,1.085-1.235,2.116-1.587,3.099c-0.354,0.982-0.529,1.954-0.529,2.91
c0,3.73,1.196,6.678,3.59,8.844c2.393,2.167,5.983,3.25,10.771,3.25H136.2v14.058c0,3.779,0.87,6.64,2.608,8.579
c1.738,1.938,4.018,2.91,6.84,2.91c2.871,0,5.164-0.945,6.877-2.835s2.57-4.772,2.57-8.653v-14.059h4.61
c3.829,0,6.7-0.667,8.616-2.002c1.914-1.335,2.871-3.465,2.871-6.387C171.194,147.791,170.023,145.473,167.68,144.414z
 M136.201,142.827h-32.5l32.5-43.912V142.827z"/>
</svg>
