<svg version="1.1" xmlns="http://www.w3.org/2000/svg" viewBox="0 0 256 256">
<path d="M128.001,28.501c-54.953,0-99.501,44.543-99.501,99.501c0,54.949,44.548,99.496,99.501,99.496
c54.95,0,99.499-44.547,99.499-99.496C227.5,73.044,182.951,28.501,128.001,28.501z"/>
<path fill="#FFFFFF" d="M165.375,131.641c-1.814-4.383-4.309-8.174-7.482-11.375c-3.174-3.199-6.866-5.707-11.072-7.52
c-4.208-1.814-8.73-2.721-13.567-2.721c-6.046,0-12.648,1.915-19.802,5.744l4.309-24.488h35.901c3.729,0,6.549-0.805,8.465-2.419
c1.914-1.612,2.871-3.728,2.871-6.349c0-5.996-3.93-8.994-11.79-8.994h-39.907c-4.334,0-7.458,0.982-9.372,2.947
c-1.916,1.965-3.226,5.115-3.93,9.448l-6.349,36.203c-0.555,3.174-0.831,4.888-0.831,5.139c0,2.268,0.957,4.296,2.872,6.084
c1.914,1.789,4.106,2.684,6.575,2.684c2.268,0,5.151-1.323,8.654-3.969c3.501-2.645,6.185-4.497,8.05-5.555
c1.863-1.058,4.962-1.587,9.296-1.587c3.526,0,6.727,0.845,9.599,2.532c2.872,1.688,5.164,4.246,6.879,7.671
c1.712,3.428,2.568,7.559,2.568,12.396c0,4.485-0.793,8.491-2.381,12.018c-1.586,3.527-3.842,6.299-6.764,8.313
c-2.923,2.016-6.324,3.023-10.203,3.023c-4.232,0-8.062-1.248-11.488-3.742c-3.427-2.494-6.148-5.982-8.163-10.467
c-2.066-4.887-5.215-7.332-9.448-7.332c-2.469,0-4.523,0.883-6.159,2.646c-1.638,1.765-2.457,3.628-2.457,5.593
c0,3.226,1.171,6.992,3.515,11.299c2.343,4.309,6.323,8.125,11.942,11.451c5.618,3.325,12.937,4.988,21.957,4.988
c8.062,0,15.179-1.764,21.352-5.291c6.171-3.525,10.896-8.288,14.171-14.285c3.275-5.995,4.913-12.646,4.913-19.953
C168.096,140.737,167.188,136.025,165.375,131.641z"/>
</svg>
