<svg version="1.1" xmlns="http://www.w3.org/2000/svg" viewBox="0 0 256 256">
<path d="M128.001,28.501c-54.953,0-99.501,44.543-99.501,99.501c0,54.949,44.548,99.496,99.501,99.496
c54.95,0,99.499-44.547,99.499-99.496C227.5,73.044,182.951,28.501,128.001,28.501z"/>
<path fill="#FFFFFF" d="M165.752,133.455c-1.662-4.483-4.018-8.376-7.066-11.677c-3.049-3.299-6.602-5.844-10.656-7.633
c-4.057-1.788-8.479-2.683-13.265-2.683c-4.988,0-9.498,0.982-13.529,2.948c-4.032,1.965-7.76,4.988-11.186,9.069
c0.654-13.705,2.821-23.228,6.5-28.569c1.814-2.62,4.043-4.698,6.689-6.235c2.645-1.537,5.302-2.306,7.974-2.306
c3.324,0,6.246,0.92,8.767,2.759c2.519,1.84,4.358,4.27,5.518,7.293c0.856,2.369,2.191,4.221,4.006,5.555
c1.813,1.336,3.778,2.003,5.896,2.003c2.418,0,4.408-0.843,5.971-2.532c1.561-1.688,2.343-3.564,2.343-5.63
c0-3.426-1.247-7.003-3.741-10.733c-2.494-3.728-6.197-6.852-11.11-9.372c-4.913-2.519-10.595-3.779-17.044-3.779
c-6.701,0-12.672,1.26-17.912,3.779c-5.241,2.52-9.7,6.249-13.378,11.187c-3.679,4.938-6.5,11.161-8.465,18.668
c-1.965,7.508-2.948,16.023-2.948,25.546c0,11.69,1.625,21.578,4.875,29.666c3.25,8.087,7.948,14.197,14.096,18.328
c6.146,4.132,13.453,6.197,21.917,6.197c7.356,0,13.945-1.625,19.766-4.875c5.819-3.25,10.354-7.771,13.604-13.566
c3.25-5.794,4.875-12.244,4.875-19.35C168.246,142.627,167.416,137.94,165.752,133.455z M143.078,164.179
c-3.325,4.157-7.533,6.235-12.621,6.235c-5.342,0-9.776-2.268-13.303-6.803c-3.527-4.534-5.291-10.203-5.291-17.005
c0-4.233,0.869-7.923,2.607-11.073c1.738-3.148,4.031-5.555,6.878-7.217c2.846-1.663,5.832-2.494,8.956-2.494
c3.275,0,6.273,0.869,8.995,2.607c2.722,1.739,4.862,4.258,6.425,7.558c1.561,3.3,2.342,7.244,2.342,11.828
C148.066,154.568,146.404,160.021,143.078,164.179z"/>
</svg>
