<svg version="1.1" xmlns="http://www.w3.org/2000/svg" viewBox="0 0 256 256">
<path d="M128.001,28.501c-54.953,0-99.501,44.543-99.501,99.501c0,54.949,44.548,99.496,99.501,99.496
c54.95,0,99.499-44.547,99.499-99.496C227.5,73.044,182.951,28.501,128.001,28.501z"/>
<path fill="#FFFFFF" d="M166.961,75.938c-2.166-1.512-5.668-2.268-10.505-2.268h-50.337c-3.981,0-7.08,0.505-9.297,1.512
c-2.218,1.009-3.325,3.25-3.325,6.727c0,3.276,1.045,5.682,3.136,7.218c2.09,1.537,5.253,2.305,9.486,2.305h40.436
c-6.35,8.062-11.828,16.163-16.438,24.299c-4.611,8.138-8.453,16.073-11.526,23.808c-3.074,7.736-5.291,14.373-6.651,19.916
c-1.36,5.544-2.041,9.928-2.041,13.151c0,4.183,0.932,7.344,2.796,9.485c1.864,2.141,4.333,3.213,7.407,3.213
c3.224,0,5.807-0.996,7.747-2.986c1.939-1.989,3.439-5.555,4.498-10.694c0.453-2.217,0.982-5.417,1.587-9.599
s1.158-7.583,1.663-10.203c0.504-2.62,1.36-5.921,2.569-9.901c2.872-9.019,6.033-16.652,9.485-22.901
c3.451-6.247,6.803-11.475,10.053-15.683c3.25-4.207,6.146-8.05,8.691-11.526c2.543-3.477,3.816-6.273,3.816-8.389
C170.211,79.944,169.127,77.45,166.961,75.938z"/>
</svg>
