<svg version="1.1" xmlns="http://www.w3.org/2000/svg" viewBox="0 0 256 256">
<path d="M128.001,28.501c-54.953,0-99.501,44.543-99.501,99.501c0,54.949,44.548,99.496,99.501,99.496
c54.95,0,99.499-44.547,99.499-99.496C227.5,73.044,182.951,28.501,128.001,28.501z"/>
<path fill="#FFFFFF" d="M165.109,139.539c-1.436-3.552-3.564-6.675-6.387-9.371c-2.822-2.695-6.373-4.875-10.656-6.538
c5.039-2.468,8.83-5.643,11.375-9.523c2.543-3.879,3.816-8.288,3.816-13.227c0-3.879-0.73-7.545-2.191-10.997
c-1.462-3.451-3.704-6.55-6.727-9.297c-3.023-2.746-6.803-4.899-11.338-6.462c-4.535-1.562-9.801-2.343-15.796-2.343
c-7.105,0-13.315,1.335-18.63,4.006c-5.317,2.671-9.347,6.235-12.093,10.695c-2.747,4.459-4.119,9.209-4.119,14.247
c0,10.43,5.165,18.064,15.494,22.901c-12.799,5.04-19.198,14.335-19.198,27.889c0,6.35,1.512,12.082,4.535,17.195
c3.023,5.114,7.507,9.133,13.453,12.055c5.945,2.922,13.1,4.383,21.465,4.383c8.061,0,15.065-1.461,21.012-4.383
c5.945-2.922,10.455-6.966,13.529-12.131c3.072-5.164,4.61-10.922,4.61-17.271C167.264,147.035,166.546,143.092,165.109,139.539z
 M116.208,90.639c2.897-2.948,6.714-4.421,11.451-4.421c3.124,0,5.896,0.68,8.313,2.041c2.418,1.361,4.295,3.225,5.631,5.593
c1.334,2.369,2.003,5.039,2.003,8.011c0,2.218-0.378,4.246-1.134,6.084c-0.756,1.84-1.826,3.427-3.213,4.762
c-1.387,1.335-3.049,2.38-4.988,3.136s-4.094,1.134-6.461,1.134c-4.686,0-8.516-1.423-11.488-4.27
c-2.974-2.846-4.459-6.412-4.459-10.695C111.863,97.378,113.311,93.586,116.208,90.639z M144.136,161.193
c-1.612,3.023-3.83,5.366-6.651,7.029c-2.822,1.663-5.996,2.494-9.523,2.494c-3.477,0-6.626-0.818-9.448-2.457
c-2.823-1.637-5.053-3.955-6.689-6.953c-1.638-2.997-2.457-6.462-2.457-10.393c0-6.146,1.738-10.934,5.215-14.36
s7.785-5.14,12.924-5.14c3.627,0,6.903,0.781,9.826,2.344c2.922,1.562,5.189,3.805,6.802,6.727s2.42,6.348,2.42,10.278
S145.748,158.17,144.136,161.193z"/>
</svg>
