<svg version="1.1" xmlns="http://www.w3.org/2000/svg" viewBox="0 0 256 256">
<path d="M128.001,28.501c-54.953,0-99.501,44.543-99.501,99.501c0,54.949,44.548,99.496,99.501,99.496
c54.95,0,99.499-44.547,99.499-99.496C227.5,73.044,182.951,28.501,128.001,28.501z"/>
<path fill="#FFFFFF" d="M163.258,102.845c-1.865-6.852-4.535-12.533-8.012-17.043c-3.477-4.509-7.76-7.948-12.848-10.316
c-5.09-2.368-10.885-3.553-17.384-3.553c-5.644,0-10.796,0.958-15.456,2.872c-4.662,1.915-8.68,4.586-12.055,8.011
c-3.376,3.427-5.971,7.471-7.785,12.131c-1.814,4.661-2.721,9.587-2.721,14.776c0,4.837,0.806,9.46,2.418,13.869
c1.612,4.409,3.917,8.264,6.916,11.564c2.998,3.301,6.549,5.87,10.657,7.709c4.106,1.84,8.527,2.759,13.265,2.759
c4.988,0,9.534-0.995,13.642-2.985c4.106-1.99,7.822-4.951,11.147-8.881c-0.705,13.655-2.871,23.179-6.5,28.569
c-1.814,2.671-4.006,4.737-6.575,6.198s-5.291,2.191-8.163,2.191c-3.225,0-6.122-0.919-8.692-2.759
c-2.569-1.839-4.41-4.271-5.517-7.294c-0.907-2.469-2.243-4.32-4.006-5.555c-1.764-1.234-3.754-1.853-5.971-1.853
c-2.418,0-4.409,0.831-5.971,2.494c-1.562,1.663-2.343,3.553-2.343,5.669c0,3.427,1.259,6.991,3.779,10.694
c2.519,3.704,6.198,6.803,11.035,9.297c4.837,2.494,10.53,3.741,17.081,3.741c6.651,0,12.596-1.223,17.836-3.666
c5.24-2.442,9.736-6.171,13.491-11.186c3.753-5.014,6.613-11.211,8.579-18.593c1.965-7.381,2.947-15.909,2.947-25.584
C166.055,117.458,165.121,109.698,163.258,102.845z M140.621,121.665c-1.789,3.125-4.107,5.505-6.953,7.142
c-2.848,1.639-5.833,2.457-8.956,2.457c-5.09,0-9.297-1.99-12.622-5.971c-3.326-3.98-4.988-9.321-4.988-16.023
c0-6.751,1.663-12.181,4.988-16.288c3.325-4.106,7.381-6.16,12.168-6.16c2.771,0,5.328,0.605,7.671,1.814
c2.343,1.209,4.357,2.872,6.047,4.988c1.688,2.116,2.997,4.624,3.93,7.52c0.932,2.898,1.398,6.06,1.398,9.485
C143.305,114.862,142.409,118.541,140.621,121.665z"/>
</svg>
