<svg version="1.1" xmlns="http://www.w3.org/2000/svg" viewBox="0 0 256 256">
<path fill="#D80027" d="M227.162,186.927l-58.922-58.921l58.922-58.922c11.112-11.112,11.112-29.129,0-40.241
s-29.129-11.112-40.24,0l-58.927,58.921L69.073,28.838c-11.117-11.112-29.134-11.112-40.241,0
c-11.112,11.117-11.112,29.134,0,40.241L87.759,128l-58.926,58.921c-11.112,11.117-11.112,29.134,0,40.24
c5.563,5.56,12.838,8.333,20.123,8.333c7.28,0,14.564-2.778,20.123-8.333l58.917-58.917l58.927,58.922
c5.562,5.555,12.838,8.333,20.122,8.333c7.285,0,14.564-2.778,20.123-8.333C238.274,216.056,238.274,198.044,227.162,186.927z"/>
</svg>
