<svg version="1.1" xmlns="http://www.w3.org/2000/svg" viewBox="0 0 256 256">
<path d="M168.537,200.595c-2.701,0-5.362-0.249-7.989-0.749c-12-2.281-22.212-9.531-30.353-21.548
c-7.656-11.302-13.437-26.688-17.672-47.038c-5.336-25.641-13.833-41.963-22.728-43.664c-15.211-2.908-43.872,26.712-58.708,49.213
L4.372,119.192c0.456-0.691,11.345-17.115,26.79-32.875c23.284-23.756,45.034-33.901,64.643-30.152
c12.005,2.295,22.221,9.547,30.365,21.556c7.667,11.303,13.45,26.683,17.682,47.019c5.339,25.653,13.812,41.977,22.665,43.667
c7.826,1.497,21.009-6.278,35.253-20.796c13.301-13.556,23.036-28.256,23.133-28.403l26.743,17.572
c-0.453,0.691-11.285,17.104-26.659,32.859C204.91,190.214,185.962,200.593,168.537,200.595z"/>
</svg>
