<svg version="1.1" xmlns="http://www.w3.org/2000/svg" viewBox="0 0 256 256">
<path fill="#324D5B" d="M244.036,0v16c0,4.416-2.675,8-5.983,8h-5.982c-3.308,0-5.981-3.583-5.981-8V0H118.41v16
c0,4.416-2.674,8-5.982,8h-5.982c-3.302,0-5.983-3.583-5.983-8V0H88.5v256h11.964v-16c0-4.416,2.68-8,5.982-8h5.982
c3.308,0,5.982,3.583,5.982,8v16H226.09v-16c0-4.416,2.673-8,5.981-8h5.982c3.309,0,5.982,3.583,5.982,8v16H256V0H244.036z
 M118.41,208c0,4.424-2.674,8-5.982,8h-5.982c-3.302,0-5.983-3.576-5.983-8v-16c0-4.424,2.68-8,5.983-8h5.982
c3.308,0,5.982,3.576,5.982,8V208z M118.41,160c0,4.424-2.674,8-5.982,8h-5.982c-3.302,0-5.983-3.576-5.983-8v-16
c0-4.416,2.68-8,5.983-8h5.982c3.308,0,5.982,3.584,5.982,8V160z M118.41,112c0,4.424-2.674,8-5.982,8h-5.982
c-3.302,0-5.983-3.577-5.983-8V96c0-4.416,2.68-8,5.983-8h5.982c3.308,0,5.982,3.583,5.982,8V112z M118.41,64
c0,4.424-2.674,8-5.982,8h-5.982c-3.302,0-5.983-3.577-5.983-8V48c0-4.416,2.68-8,5.983-8h5.982c3.308,0,5.982,3.583,5.982,8V64z
 M244.036,208c0,4.424-2.675,8-5.983,8h-5.982c-3.308,0-5.981-3.576-5.981-8v-16c0-4.424,2.674-8,5.981-8h5.982
c3.309,0,5.983,3.576,5.983,8V208z M244.036,160c0,4.424-2.675,8-5.983,8h-5.982c-3.308,0-5.981-3.576-5.981-8v-16
c0-4.416,2.674-8,5.981-8h5.982c3.309,0,5.983,3.584,5.983,8V160z M244.036,112c0,4.424-2.675,8-5.983,8h-5.982
c-3.308,0-5.981-3.577-5.981-8V96c0-4.416,2.674-8,5.981-8h5.982c3.309,0,5.983,3.583,5.983,8V112z M244.036,64
c0,4.424-2.675,8-5.983,8h-5.982c-3.308,0-5.981-3.577-5.981-8V48c0-4.416,2.674-8,5.981-8h5.982c3.309,0,5.983,3.583,5.983,8V64z"/>
<path fill="#5B717C" d="M208.143,64.008h-71.785c-3.302,0-5.982,3.584-5.982,8v112c0,4.433,2.68,8,5.982,8h71.785
c3.309,0,5.982-3.567,5.982-8V72C214.125,67.592,211.451,64.008,208.143,64.008z M130.375,0v40c0,4.424,2.68,8,5.982,8h71.785
c3.309,0,5.982-3.576,5.982-8V0H130.375z M208.143,208h-71.785c-3.302,0-5.982,3.584-5.982,8v40h83.75v-40
C214.125,211.592,211.451,208,208.143,208z"/>
<path fill="#B8BFCC" d="M64.57,51.55L37.5,68c-0.337,0-0.667-0.007-1.003-0.015l41.865,35.149l25.825-18.12L64.57,51.55z"/>
<path fill="#4596E6" d="M37.5,0C16.789,0,0,17.289,0,38c0,20.71,16.789,37.5,37.5,37.5S75,58.71,75,38C75,17.289,58.211,0,37.5,0z
M37.5,60.5C25.074,60.5,15,50.427,15,38s10.074-23,22.5-23S60,25.573,60,38S49.926,60.5,37.5,60.5z"/>
<path fill="#D5DCEC" d="M160.045,43.292c-10.424-7.198-24.6-7.113-35.041,0.706l-83.122,61.944l27.238,17.087l90.806-67.728
C163.895,52.327,164.124,46.11,160.045,43.292z"/>
<path fill="#4DA6FF" d="M37.5,105.5C16.789,105.5,0,122.289,0,143c0,20.71,16.789,37.5,37.5,37.5S75,163.71,75,143
C75,122.289,58.211,105.5,37.5,105.5z M37.5,165.5C25.074,165.5,15,155.427,15,143s10.074-22.5,22.5-22.5S60,130.573,60,143
S49.926,165.5,37.5,165.5z"/>
</svg>
