<svg version="1.1" xmlns="http://www.w3.org/2000/svg" viewBox="0 0 256 256">
<path d="M128,227.576c-32.51,0-63.239-9.873-86.526-27.801C16.945,180.893,3.437,155.402,3.437,128
c0-27.402,13.508-52.893,38.037-71.776C64.761,38.296,95.49,28.423,128,28.423s63.239,9.873,86.526,27.801
c24.528,18.883,38.037,44.374,38.037,71.776c0,27.402-13.509,52.892-38.037,71.775C191.239,217.703,160.51,227.576,128,227.576z
 M128,60.423c-25.487,0-49.283,7.514-67.006,21.157C44.513,94.269,35.437,110.754,35.437,128c0,17.246,9.077,33.731,25.558,46.418
c17.723,13.644,41.519,21.157,67.006,21.157c25.487,0,49.283-7.514,67.006-21.157c16.481-12.688,25.558-29.173,25.558-46.418
c0-17.246-9.076-33.731-25.558-46.42C177.283,67.937,153.486,60.423,128,60.423z"/>
</svg>
