<svg version="1.1" xmlns="http://www.w3.org/2000/svg" viewBox="0 0 256 256">
<path d="M227.946,204.763h-82.485l18.562-18.949c0.19-0.194,0.355-0.465,0.536-0.664l72.219-72.251c1.612-1.612,2.5-3.789,2.5-6.082
c0-2.293-0.888-4.448-2.5-6.061l-70.379-70.381c-1.613-1.612-3.765-2.501-6.058-2.501c-2.294,0-4.445,0.888-6.058,2.5L71.197,113.46
c-0.378,0.379-0.708,0.785-0.999,1.21l-48.807,48.809c-6.573,6.57-6.705,17.392-0.299,24.117l31.079,32.803
c3.043,3.198,7.638,5.774,12.265,6.979c1.073,0.372,2.216,0.59,3.406,0.633c0.676,0.071,1.346,0.115,2.001,0.115h42.366
c0.586,0,1.184,0,1.787,0h113.949c6.451,0,11.682-5.23,11.682-11.681C239.628,209.994,234.396,204.763,227.946,204.763z
 M43.748,178.839c-0.664-0.697-1.03-1.557-1.135-2.46l-0.499-0.516l0.503-0.499c0.111-0.934,0.501-1.835,1.205-2.538l47.168-47.168
c1.643-1.644,4.317-1.629,5.943,0.033l44.589,45.568c1.625,1.661,1.622,4.374-0.009,6.031l-26.515,26.918
c-0.172,0.175-0.37,0.557-0.575,0.557H68.449c-0.221,0-0.429-0.414-0.612-0.604L43.748,178.839z"/>
</svg>
