<svg version="1.1" xmlns="http://www.w3.org/2000/svg" viewBox="0 0 512 512">
<path fill="#EFCE4A" d="M392.501,441.164H39.831c-8.115,0-14.017-7.707-11.897-15.546l80.101-219.604
c1.45-5.374,6.327-9.108,11.898-9.108h352.669c8.116,0,11.898,7.753,11.898,15.546l-80.102,219.604
C402.949,437.429,398.071,441.164,392.501,441.164z"/>
<path fill="#EBBA16" d="M423.577,125.991H224.482l-39.396-55.155H41.147c-7.533,0-13.647,6.106-13.647,13.647V421.15
c0.543,0.016,1.087,0.047,1.615,0.078l78.911-215.215c1.45-5.381,6.327-9.108,11.897-9.108h317.3v-57.267
C437.224,132.098,431.11,125.991,423.577,125.991z"/>
</svg>
