<svg version="1.1" xmlns="http://www.w3.org/2000/svg" viewBox="0 0 256 256">
<path fill="none" d="M73.694,190.639h-5.431c-2.998,0-5.431,3.246-5.431,7.262v14.525c0,4.016,2.434,7.262,5.431,7.262h5.431
c3.003,0,5.43-3.246,5.43-7.262V197.9C79.124,193.885,76.697,190.639,73.694,190.639z"/>
<path fill="none" d="M73.694,36.312h-5.431c-2.998,0-5.431,3.254-5.431,7.263v14.524c0,4.016,2.434,7.263,5.431,7.263h5.431
c3.003,0,5.43-3.247,5.43-7.263V43.575C79.124,39.565,76.697,36.312,73.694,36.312z"/>
<path fill="none" d="M182.305,65.362h5.431c3.004,0,5.433-3.247,5.433-7.263V43.575c0-4.01-2.429-7.263-5.433-7.263h-5.431
c-3.002,0-5.43,3.254-5.43,7.263v14.524C176.875,62.115,179.303,65.362,182.305,65.362z"/>
<path fill="none" d="M73.694,79.887h-5.431c-2.998,0-5.431,3.254-5.431,7.262v14.525c0,4.016,2.434,7.263,5.431,7.263h5.431
c3.003,0,5.43-3.247,5.43-7.263V87.149C79.124,83.14,76.697,79.887,73.694,79.887z"/>
<path fill="none" d="M182.305,108.937h5.431c3.004,0,5.433-3.247,5.433-7.263V87.149c0-4.009-2.429-7.262-5.433-7.262h-5.431
c-3.002,0-5.43,3.254-5.43,7.262v14.525C176.875,105.69,179.303,108.937,182.305,108.937z"/>
<path fill="none" d="M187.735,190.639h-5.431c-3.002,0-5.43,3.246-5.43,7.262v14.525c0,4.016,2.428,7.262,5.43,7.262h5.431
c3.004,0,5.433-3.246,5.433-7.262V197.9C193.168,193.885,190.739,190.639,187.735,190.639z"/>
<path fill="none" d="M73.694,147.063h-5.431c-2.998,0-5.431,3.254-5.431,7.263v14.524c0,4.017,2.434,7.263,5.431,7.263h5.431
c3.003,0,5.43-3.246,5.43-7.263v-14.524C79.124,150.317,76.697,147.063,73.694,147.063z"/>
<path fill="none" d="M187.735,147.063h-5.431c-3.002,0-5.43,3.254-5.43,7.263v14.524c0,4.017,2.428,7.263,5.43,7.263h5.431
c3.004,0,5.433-3.246,5.433-7.263v-14.524C193.168,150.317,190.739,147.063,187.735,147.063z"/>
<path fill="#324D5B" d="M166.015,139.802v50.845c0,4.023-2.428,7.262-5.432,7.262H95.417c-2.998,0-5.431-3.238-5.431-7.262v-50.845
H51.972V256h10.861v-14.524c0-4.009,2.433-7.263,5.431-7.263h5.431c3.003,0,5.431,3.253,5.431,7.263V256h10.861v-36.312
c0-4.009,2.434-7.262,5.431-7.262h65.167c3.004,0,5.432,3.261,5.432,7.262V256h10.861v-14.524c0-4.009,2.427-7.263,5.43-7.263h5.431
c3.004,0,5.432,3.253,5.432,7.263V256h10.86V139.802H166.015z M79.124,212.426c0,4.016-2.427,7.262-5.43,7.262h-5.431
c-2.998,0-5.431-3.246-5.431-7.262V197.9c0-4.016,2.433-7.262,5.431-7.262h5.431c3.003,0,5.43,3.246,5.43,7.262V212.426z
 M79.124,168.851c0,4.017-2.427,7.263-5.43,7.263h-5.431c-2.998,0-5.431-3.246-5.431-7.263v-14.524c0-4.009,2.433-7.263,5.431-7.263
h5.431c3.003,0,5.43,3.254,5.43,7.263V168.851z M193.168,212.426c0,4.016-2.429,7.262-5.433,7.262h-5.431
c-3.002,0-5.43-3.246-5.43-7.262V197.9c0-4.016,2.428-7.262,5.43-7.262h5.431c3.004,0,5.433,3.246,5.433,7.262V212.426z
 M193.168,168.851c0,4.017-2.429,7.263-5.433,7.263h-5.431c-3.002,0-5.43-3.246-5.43-7.263v-14.524c0-4.009,2.428-7.263,5.43-7.263
h5.431c3.004,0,5.433,3.254,5.433,7.263V168.851z"/>
<path fill="#324D5B" d="M89.986,65.37c0-4.009,2.434-7.263,5.431-7.263h65.167c3.004,0,5.432,3.253,5.432,7.255v50.836h38.014V0
h-10.86v14.525c0,4.008-2.429,7.262-5.433,7.262h-5.431c-3.002,0-5.43-3.253-5.43-7.262V0h-10.86v36.312
c0,4.016-2.428,7.263-5.432,7.263H95.417c-2.998,0-5.431-3.247-5.431-7.263V0H79.124v14.525c0,4.008-2.427,7.262-5.43,7.262h-5.431
c-2.998,0-5.431-3.253-5.431-7.262V0h-10.86v116.199h38.014V65.37z M176.875,43.575c0-4.009,2.428-7.263,5.43-7.263h5.431
c3.004,0,5.433,3.253,5.433,7.263v14.524c0,4.016-2.429,7.263-5.433,7.263h-5.431c-3.002,0-5.43-3.247-5.43-7.263V43.575z
 M176.875,87.149c0-4.008,2.428-7.262,5.43-7.262h5.431c3.004,0,5.433,3.253,5.433,7.262v14.525c0,4.016-2.429,7.263-5.433,7.263
h-5.431c-3.002,0-5.43-3.247-5.43-7.263V87.149z M79.124,101.674c0,4.016-2.427,7.263-5.43,7.263h-5.431
c-2.998,0-5.431-3.247-5.431-7.263V87.149c0-4.008,2.433-7.262,5.431-7.262h5.431c3.003,0,5.43,3.253,5.43,7.262V101.674z
 M79.124,58.099c0,4.016-2.427,7.263-5.43,7.263h-5.431c-2.998,0-5.431-3.247-5.431-7.263V43.575c0-4.009,2.433-7.263,5.431-7.263
h5.431c3.003,0,5.43,3.253,5.43,7.263V58.099z"/>
<path fill="#5B717C" d="M160.583,58.107H95.417c-2.997,0-5.431,3.253-5.431,7.263v50.829h76.029V65.362
C166.015,61.36,163.587,58.107,160.583,58.107z"/>
<path fill="#5B717C" d="M89.986,190.646c0,4.023,2.433,7.262,5.431,7.262h65.167c3.004,0,5.432-3.238,5.432-7.262v-50.845H89.986
V190.646z"/>
<path fill="#5B717C" d="M95.417,43.575h65.167c3.004,0,5.432-3.247,5.432-7.263V0H89.986v36.312
C89.986,40.328,92.418,43.575,95.417,43.575z"/>
<path fill="#5B717C" d="M160.583,212.426H95.417c-2.997,0-5.431,3.253-5.431,7.262V256h76.029v-36.312
C166.015,215.687,163.587,212.426,160.583,212.426z"/>
<path fill="#A3E1FF" d="M186.083,69.655c12.384,12.379,12.384,32.451,0,44.833l-26.12,26.125c-3.518,3.517-7.652,6.032-12.059,7.551
c-6.7,2.311-14.02,2.311-20.72,0c-4.406-1.519-8.542-4.034-12.058-7.551c-3.514-3.517-6.032-7.652-7.551-12.058l0.556-0.556
c-0.556,0.556,9.797-9.999,9.797-9.999l9.812,9.999c5.404,5.408,14.2,5.408,19.608,0l0.555-0.556l25.571-25.57
c5.404-5.405,5.404-14.201,0-19.608c-5.408-5.405-14.206-5.405-19.61,0l-25.569,25.569l-10.36,4.213l-10.36-4.213
c1.519-4.402,4.034-8.541,7.551-12.058l26.125-26.122C153.633,57.273,173.706,57.273,186.083,69.655z"/>
<path fill="#4AAEE2" d="M128.296,107.835c4.402,1.519,8.537,4.037,12.055,7.554c3.517,3.514,6.034,7.652,7.554,12.056l-0.555,0.555
c-5.408,5.408-14.206,5.408-19.61,0c-5.407-5.405-14.204-5.405-19.608,0l-0.556,0.556l-25.569,25.569
c-5.407,5.408-5.407,14.204,0,19.609c5.405,5.407,14.201,5.407,19.609,0l25.57-25.569c6.7,2.31,14.02,2.31,20.72,0
c-1.52,4.405-4.037,8.541-7.554,12.058l-26.122,26.125c-12.382,12.379-32.454,12.379-44.836,0
c-12.378-12.382-12.378-32.454,0-44.836l26.125-26.122c3.518-3.517,7.653-6.035,12.058-7.554
C114.276,105.526,121.595,105.526,128.296,107.835z"/>
</svg>
