<svg version="1.1" xmlns="http://www.w3.org/2000/svg" viewBox="0 0 256 256">
<path fill="#F39C12" d="M213.002,50.763c-25.002-24.992-64.874-25.643-90.517,0c-24.885,24.885-24.992,65.515,0,90.507
c24.992,25.002,65.621,24.896,90.517,0C238.635,115.626,237.994,75.765,213.002,50.763z M197.909,65.845
c8.341,8.331,8.299,21.877,0,30.176c-8.288,8.298-21.835,8.331-30.165,0c-8.32-8.331-8.299-21.877,0-30.176
C176.043,57.547,189.578,57.525,197.909,65.845z"/>
<path fill="#F1C40F" d="M212.683,42.912c-25.003-24.992-65.525-24.992-90.517,0c-24.992,24.992-24.992,65.515,0,90.506
c24.992,25.004,65.514,25.004,90.517,0C237.675,108.427,237.686,67.904,212.683,42.912z M197.6,58.005
c8.331,8.331,8.331,21.834,0,30.166c-8.33,8.331-21.834,8.331-30.176,0c-8.32-8.331-8.32-21.835,0-30.166
C175.766,49.664,189.27,49.664,197.6,58.005z"/>
<rect x="90.161" y="122.758" transform="matrix(0.7071 0.7071 -0.7071 0.7071 130.1236 -47.3019)" fill="#F1C40F" width="63.999" height="21.333"/>
<path fill="#F1C40F" d="M99.552,125.877L31.669,193.76v30.176h30.176l7.542-7.541l-7.542-22.635l22.635,7.553l7.542-7.553v-15.082
h15.083l22.634-22.625L99.552,125.877z"/>
<path fill="#F39C12" d="M122.176,148.502L92,178.678h15.083l22.634-22.625L122.176,148.502z M92,178.678l-18.859,18.858
l11.317,3.776L92,193.771V178.678z M65.6,205.088l-18.859,18.859h15.083l7.541-7.542L65.6,205.088z"/>
<path fill="#F39C12" d="M107.093,133.418l-75.424,75.436v15.082l30.165-30.176l52.8-52.8L107.093,133.418z"/>
</svg>
