<svg version="1.1" xmlns="http://www.w3.org/2000/svg" viewBox="0 0 200 200">
<path fill="#1689FC" d="M168.763,77.202l-20.477-20.475c-2.379-2.379-5.692-3.738-9.005-3.738h-0.766l-38.232,30.246l-4.758,3.738
L61.484,52.988h-21.24c-7.052,0-12.744,5.692-12.744,12.744v119.512c0,7.052,5.692,12.744,12.744,12.744h12.744l47.295-16.737
l0.681-0.255l45.963,16.992h12.829c7.053,0,12.744-5.692,12.744-12.744V86.208C172.5,82.81,171.142,79.666,168.763,77.202z"/>
<path fill="#136EF1" d="M172.5,86.208v99.037c0,7.052-5.691,12.744-12.744,12.744h-12.829l-45.963-16.992l-0.681,0.255V83.234
l38.232-30.246h0.766c3.312,0,6.626,1.359,9.005,3.738l20.477,20.475C171.142,79.666,172.5,82.81,172.5,86.208z"/>
<path fill="#E1E4FB" d="M61.484,52.988v38.232c0,7.051,5.692,12.744,12.744,12.744h51.543c7.053,0,12.744-5.693,12.744-12.744
V52.988H61.484z"/>
<path fill="#C5C9F7" d="M125.771,103.965h-25.488V52.988h38.232v38.232C138.516,98.272,132.824,103.965,125.771,103.965z"/>
<path fill="#0059AA" d="M121.523,52.988v29.736c0,2.378-1.869,4.248-4.248,4.248s-4.248-1.87-4.248-4.248V52.988H121.523z"/>
<path fill="#E1E4FB" d="M142.764,137.949H57.236c-2.379,0-4.248,1.869-4.248,4.248v55.791h94.023v-55.791
C147.012,139.818,145.143,137.949,142.764,137.949z"/>
<path fill="#C5C9F7" d="M147.012,142.197v55.791h-46.729v-60.039h42.48C145.143,137.949,147.012,139.818,147.012,142.197z"/>
<path fill="#0D70B2" d="M134.268,120.957H65.732c-7.052,0-12.744,5.692-12.744,12.744v12.744h94.023v-12.744
C147.012,126.649,141.32,120.957,134.268,120.957z"/>
<path fill="#0059AA" d="M147.012,133.701v12.744h-46.729v-25.488h33.984C141.32,120.957,147.012,126.649,147.012,133.701z"/>
<path fill="#32D736" d="M150.027,62.114L104.081,6.979c-0.919-1.103-2.205-1.562-3.491-1.562c-1.287,0-2.574,0.459-3.492,1.562
L50.54,62.114c-2.617,3.019-0.274,7.534,3.492,7.534h22.973v51.245c0,2.573,2.021,4.595,4.594,4.595h37.369
c2.573,0,4.595-2.021,4.595-4.595V69.649h22.973C150.301,69.649,152.645,65.133,150.027,62.114z"/>
<path fill="#10BB67" d="M118.968,125.488H100.59V5.417c1.286,0,2.572,0.459,3.491,1.562l45.946,55.135
c2.617,3.019,0.273,7.534-3.492,7.534h-22.973v51.245C123.562,123.467,121.541,125.488,118.968,125.488z"/>
</svg>
