<svg version="1.1" xmlns="http://www.w3.org/2000/svg" viewBox="0 0 256 256">
<path fill="none" d="M128.001,178.234c16.917,0,31.323-10.449,32.646-23.218H95.354C96.676,167.785,111.083,178.234,128.001,178.234z"/>
<path fill="none" d="M160.756,123.875h-20.357c-3.854,0-6.98-3.125-6.98-6.98c0-3.854,3.126-6.98,6.98-6.98h20.357V92.514h-20.357
c-3.854,0-6.98-3.125-6.98-6.98s3.126-6.979,6.98-6.979h20.357V61.153h-20.357c-3.854,0-6.98-3.125-6.98-6.98
c0-3.854,3.126-6.98,6.98-6.98h20.357v-8.104c0-13.621-15-25.128-32.756-25.128c-17.755,0-32.755,11.507-32.755,25.128v8.104h20.358
c3.855,0,6.98,3.125,6.98,6.98c0,3.855-3.125,6.98-6.98,6.98H95.244v17.402h20.358c3.855,0,6.98,3.125,6.98,6.979
s-3.125,6.98-6.98,6.98H95.244v17.401h20.358c3.855,0,6.98,3.125,6.98,6.98c0,3.855-3.125,6.98-6.98,6.98H95.244v17.182h65.514
v-17.182H160.756z"/>
<path fill="#73D0F4" d="M128,216.679c-17.755,0-32.755,11.507-32.755,25.128v0.233h65.514v-0.233
C160.756,228.186,145.756,216.679,128,216.679z"/>
<path fill="#3D6889" d="M95.486,181.019c8.82,7.206,20.367,11.175,32.515,11.175c12.147,0,23.695-3.969,32.513-11.175
c9.025-7.375,14.202-17.549,14.202-27.913V39.088c0-10.365-5.177-20.539-14.202-27.914C151.695,3.969,140.146,0,128,0
c-12.148,0-23.695,3.969-32.514,11.175C86.46,18.55,81.284,28.724,81.284,39.088v114.017
C81.284,163.469,86.461,173.643,95.486,181.019z M128.001,178.234c-16.918,0-31.325-10.449-32.647-23.218h65.292
C159.324,167.785,144.918,178.234,128.001,178.234z M95.244,123.875h20.358c3.854,0,6.98-3.125,6.98-6.98
c0-3.854-3.125-6.98-6.98-6.98H95.244V92.514h20.358c3.854,0,6.98-3.125,6.98-6.98s-3.125-6.979-6.98-6.979H95.244V61.153h20.358
c3.854,0,6.98-3.125,6.98-6.98c0-3.854-3.125-6.98-6.98-6.98H95.244v-8.104c0-13.621,15-25.128,32.755-25.128
c17.756,0,32.757,11.507,32.757,25.128v8.104h-20.357c-3.855,0-6.98,3.125-6.98,6.98c0,3.855,3.125,6.98,6.98,6.98h20.357v17.402
h-20.357c-3.855,0-6.98,3.125-6.98,6.979s3.125,6.98,6.98,6.98h20.357v17.401h-20.357c-3.855,0-6.98,3.125-6.98,6.98
c0,3.855,3.125,6.98,6.98,6.98h20.357v17.182H95.244V123.875z"/>
<path fill="#3D6889" d="M191.033,93.131c-3.855,0-6.98,3.125-6.98,6.98v60.432c0,10.287-5.443,20.324-15.328,28.26
c-10.474,8.41-24.507,13.334-39.515,13.865c-0.193,0.006-2.225,0.006-2.419,0c-15.008-0.531-29.041-5.455-39.515-13.865
c-9.884-7.937-15.328-17.973-15.328-28.26v-60.432c0-3.855-3.125-6.98-6.979-6.98s-6.98,3.125-6.98,6.98v60.432
c0,14.604,7.298,28.507,20.547,39.146c6.03,4.84,12.987,8.723,20.534,11.556c-1.237,0.828-2.435,1.709-3.584,2.648
c-9.025,7.375-14.202,17.549-14.202,27.913v7.213c0,3.855,3.125,6.98,6.98,6.98h79.473c3.854,0,6.979-3.125,6.979-6.98v-7.213
c0-10.365-5.177-20.539-14.202-27.913c-1.149-0.938-2.347-1.819-3.585-2.647c7.548-2.833,14.506-6.716,20.535-11.557
c13.252-10.64,20.549-24.542,20.549-39.146v-60.432C198.013,96.256,194.888,93.131,191.033,93.131z M160.756,242.04H95.244v-0.233
c0-13.621,15-25.128,32.755-25.128c17.756,0,32.757,11.507,32.757,25.128V242.04L160.756,242.04z"/>
</svg>
