<svg version="1.1" xmlns="http://www.w3.org/2000/svg" viewBox="0 0 256 256">
<path fill="#2394BC" d="M225.55,84.778L95.562,213.007c0,0-66.513,19.825-69.551,16.788c-3.038-3.037,15.189-71.15,15.189-71.15
L171.189,30.417c6.234-6.396,16.307-6.396,22.543,0l31.817,31.977C231.785,68.469,231.785,78.542,225.55,84.778z"/>
<path fill="#44A4C6" d="M52.553,174.635L195.331,31.855l-1.599-1.599c-6.234-6.235-16.308-6.235-22.543,0.16L41.36,158.805
c0,0-0.32,1.279-0.959,3.519L52.553,174.635L52.553,174.635z"/>
<path fill="#1F85A9" d="M229.229,79.501c2.236-5.755,1.118-12.631-3.52-17.268l-3.197-3.198L79.733,201.814l12.471,12.312
c1.759-0.48,2.878-0.801,3.358-0.96L229.229,79.501z"/>
<path fill="#FFCABA" d="M25.852,229.315l0.959,0.96c7.515,1.118,65.233-15.99,68.751-17.108l0.16-0.16
c0,0-3.677-17.269-6.875-20.306c-3.198-3.197-17.108-3.678-20.306-6.715c-3.197-3.198-3.518-17.108-6.875-20.307
c-3.197-3.197-19.506-6.555-20.305-6.715C41.36,158.805,24.573,221.32,25.852,229.315L25.852,229.315z"/>
<path fill="#FFDCD2" d="M25.692,228.516c1.119-1.919,6.715-11.832,35.814-62.836c-3.197-3.197-19.506-6.555-20.305-6.715
C41.36,158.805,25.532,217.964,25.692,228.516z"/>
<path fill="#E5B5A7" d="M25.692,228.676v0.48l0.959,0.959c7.515,1.119,65.234-15.988,68.751-17.108l0.16-0.16
c0,0-3.518-17.108-6.716-20.306C35.924,222.92,27.131,227.877,25.692,228.676z"/>
<path d="M36.724,217.644c-2.079-2.078-5.437-3.677-8.794-3.997c-1.759,8.953-2.878,15.51-1.918,16.469
c0.799,0.799,6.875-0.16,14.87-1.918C40.881,224.199,39.122,220.042,36.724,217.644z"/>
</svg>
