<svg version="1.1" xmlns="http://www.w3.org/2000/svg" viewBox="0 0 200 200">
<path fill="#0D70B2" d="M59.584,52.968H29.058c-8.373,0-15.13,6.757-15.13,15.13v63.82c0,8.371,6.757,15.131,15.13,15.131h30.527
c2.825,0,5.043-2.221,5.043-5.044V58.011C64.628,55.186,62.409,52.968,59.584,52.968z"/>
<path fill="#0059AA" d="M13.928,99.265h50.7v42.74c0,2.823-2.219,5.044-5.043,5.044H29.058c-8.373,0-15.13-6.76-15.13-15.131V99.265
z"/>
<path fill="#1DE8F1" d="M145.624,99.265c-0.102,6.153-2.018,12.306-5.548,17.551c-1.613,2.319-4.741,2.925-7.061,1.412
c-2.32-1.514-2.926-4.64-1.412-6.96c2.421-3.631,3.731-7.868,3.833-12.003c0.302-4.741-1.01-9.582-3.833-13.819
c-1.514-2.32-0.908-5.446,1.412-6.96c2.319-1.513,5.446-0.907,7.061,1.412C144.01,85.749,145.825,92.507,145.624,99.265z"/>
<path fill="#1DE8F1" d="M165.797,99.265c-0.101,10.188-3.531,20.779-11.197,32.176c-1.612,2.32-4.739,2.926-7.06,1.412
c-2.32-1.613-2.926-4.74-1.412-7.061l2.32-3.328c4.74-7.061,7.363-14.929,7.363-23.2c0-8.977-3.026-18.458-9.684-28.344
c-1.515-2.319-0.908-5.446,1.411-7.061c2.319-1.513,5.448-0.908,7.06,1.412C161.964,76.268,166.1,87.463,165.797,99.265z"/>
<path fill="#1DE8F1" d="M186.071,99.265c-0.202,14.828-5.346,29.352-14.727,43.373c-1.514,2.32-4.64,2.926-6.96,1.311
c-2.321-1.512-3.026-4.639-1.412-6.96c8.271-12.305,12.811-24.913,13.012-37.724c0.202-12.911-4.034-26.124-13.012-39.54
c-1.613-2.319-0.909-5.446,1.412-6.959c2.219-1.614,5.446-1.008,6.96,1.311C181.533,69.308,186.172,84.438,186.071,99.265z"/>
<path fill="#17ACE8" d="M116.372,15.344c-5.446-2.522-11.498-1.614-16.038,2.219L58.071,52.766v94.384c0,0,0,0,0,0.1l42.263,35.203
c4.063,3.612,9.93,4.836,16.038,2.219c5.446-2.521,8.775-7.867,8.775-13.819V29.163C125.147,23.211,121.818,17.865,116.372,15.344z"
/>
<path fill="#1BD9DE" d="M145.624,99.265c-0.102,6.153-2.018,12.306-5.548,17.551c-1.613,2.319-4.741,2.925-7.061,1.412
c-2.32-1.514-2.926-4.64-1.412-6.96c2.421-3.631,3.731-7.868,3.833-12.003H145.624L145.624,99.265z"/>
<path fill="#1BD9DE" d="M165.797,99.265c-0.101,10.188-3.531,20.779-11.197,32.176c-1.612,2.32-4.739,2.926-7.06,1.412
c-2.32-1.613-2.926-4.74-1.412-7.061l2.32-3.328c4.74-7.061,7.363-14.929,7.363-23.2H165.797z"/>
<path fill="#1BD9DE" d="M186.071,99.265c-0.202,14.828-5.346,29.352-14.727,43.373c-1.514,2.32-4.64,2.926-6.96,1.311
c-2.321-1.512-3.026-4.639-1.412-6.96c8.271-12.305,12.811-24.913,13.012-37.724L186.071,99.265L186.071,99.265z"/>
<path fill="#1689FC" d="M125.147,99.265v71.587c0,5.951-3.329,11.298-8.775,13.819c-6.107,2.617-11.975,1.393-16.038-2.22
l-42.263-35.203c0-0.099,0-0.099,0-0.099V99.265H125.147L125.147,99.265z"/>
</svg>
