<svg version="1.1" xmlns="http://www.w3.org/2000/svg" viewBox="0 0 200 200">
<path fill="#0D70B2" d="M59.115,52.734h-30.41c-8.415,0-15.205,6.791-15.205,15.205v64.121c0,8.414,6.791,15.205,15.205,15.205
h30.41c2.839,0,5.068-2.229,5.068-5.068V57.803C64.184,54.964,61.954,52.734,59.115,52.734z"/>
<path fill="#0059AA" d="M13.5,98.349h50.684v43.848c0,2.839-2.229,5.068-5.068,5.068h-30.41c-8.415,0-15.205-6.791-15.205-15.205
V98.349z"/>
<path fill="#17ACE8" d="M116.185,14.923c-5.474-2.534-11.556-1.622-16.117,2.23L57.696,52.43v95.039c0,0,0,0,0,0.102l42.372,35.275
c4.459,3.852,10.644,4.765,16.117,2.23c5.475-2.534,8.819-7.907,8.819-13.888V28.812C125.004,22.831,121.658,17.458,116.185,14.923z
"/>
<path fill="#1689FC" d="M125.004,98.349v72.839c0,5.98-3.346,11.354-8.819,13.888s-11.657,1.621-16.117-2.23L57.696,147.57
c0-0.102,0-0.102,0-0.102v-49.12H125.004z"/>
</svg>
