<svg version="1.1" xmlns="http://www.w3.org/2000/svg" viewBox="0 0 256 256">
<path fill="none" d="M65.856,101.904h-9.377v52.192h9.377c1.63,0,3.212,0.55,4.492,1.559l46.146,36.37V63.976l-46.146,36.371
C69.068,101.354,67.486,101.904,65.856,101.904z"/>
<path fill="#73D0F4" d="M168.748,72.875l-5.682,8.943c10.375,11.721,16.43,28.631,16.43,46.488c0,17.271-5.751,33.84-15.602,45.531
l5.633,9.094c13.045-13.496,20.646-33.32,20.646-54.625C190.172,106.502,182.281,86.366,168.748,72.875z"/>
<path fill="#73D0F4" d="M196.057,29.688l-5.704,8.977c24.173,15.222,40.471,50.501,40.471,89.432
c0,38.511-16.105,73.684-39.978,89.087l5.593,9.047c27.183-17.495,45.048-55.896,45.048-98.134
C241.486,85.588,223.464,47.061,196.057,29.688z"/>
<path fill="#73D0F4" d="M14.513,128c0,14.389,8.621,26.096,19.217,26.096h8.235v-52.192H33.73
C23.134,101.904,14.513,113.61,14.513,128z"/>
<path fill="#3D6889" d="M239.688,58.157c-10.621-20.465-25.419-35.907-42.793-44.662c-3.331-1.677-7.39-0.558-9.39,2.588
l-13.607,21.415c-1.141,1.794-1.437,3.998-0.811,6.03c0.626,2.031,2.111,3.686,4.062,4.527c22.691,9.778,39.16,43.44,39.16,80.042
c0,36.165-16.248,69.719-38.633,79.785c-1.904,0.857-3.35,2.494-3.961,4.493c-0.613,1.999-0.334,4.163,0.766,5.942l13.305,21.521
c1.365,2.207,3.736,3.441,6.178,3.441c1.113,0,2.241-0.257,3.295-0.795c17.281-8.825,31.99-24.273,42.537-44.678
c10.6-20.506,16.203-44.611,16.203-69.71C256,102.901,250.359,78.716,239.688,58.157z M196.438,226.231l-5.593-9.047
c23.873-15.404,39.978-50.577,39.978-89.087c0-38.931-16.298-74.21-40.471-89.432l5.704-8.978
c27.407,17.373,45.43,55.899,45.43,98.409C241.486,170.337,223.621,208.736,196.438,226.231z"/>
<path fill="#3D6889" d="M204.686,128.307c0-29.341-12.383-56.339-33.121-72.215c-1.615-1.237-3.679-1.737-5.68-1.383
c-2.004,0.357-3.766,1.537-4.856,3.254l-13.317,20.958c-1.906,3.001-1.357,6.942,1.297,9.309
c9.854,8.783,15.975,24.141,15.975,40.077c0,15.638-5.674,30.351-15.178,39.357c-2.497,2.367-2.988,6.162-1.177,9.088l13.138,21.214
c1.09,1.759,2.877,2.97,4.914,3.327c0.418,0.073,0.838,0.109,1.256,0.109c1.62,0,3.208-0.543,4.498-1.562
C192.629,183.881,204.686,157.139,204.686,128.307z M169.527,182.932l-5.633-9.094c9.851-11.691,15.602-28.261,15.602-45.531
c0-17.857-6.055-34.767-16.43-46.488l5.682-8.943c13.533,13.491,21.425,33.627,21.425,55.432
C190.172,149.611,182.572,169.434,169.527,182.932z"/>
<path fill="#3D6889" d="M126.917,42.488c-2.501-1.213-5.477-0.892-7.659,0.831L63.34,87.391h-8.868h-5.25H33.73
C15.131,87.391,0,105.607,0,128s15.131,40.61,33.73,40.61h15.492h5.25h8.868l55.918,44.072c1.305,1.029,2.893,1.559,4.493,1.559
c1.077,0,2.16-0.24,3.166-0.728c2.501-1.214,4.089-3.75,4.089-6.529V49.017C131.007,46.237,129.419,43.701,126.917,42.488z
M41.965,154.096H33.73c-10.597,0-19.217-11.707-19.217-26.096s8.621-26.096,19.217-26.096h8.235V154.096z M116.494,192.023
l-46.146-36.37c-1.279-1.009-2.861-1.558-4.492-1.558h-9.377v-52.192h9.377c1.63,0,3.212-0.549,4.492-1.558l46.146-36.371V192.023z"/>
</svg>
