<svg width="20" height="20" viewBox="0 0 20 20" fill="none" xmlns="http://www.w3.org/2000/svg">
<path d="M15.8333 16.6667H4.16667V17.5C4.16667 17.721 4.07887 17.933 3.92259 18.0893C3.76631 18.2455 3.55435 18.3333 3.33333 18.3333H2.5C2.27899 18.3333 2.06702 18.2455 1.91074 18.0893C1.75446 17.933 1.66667 17.721 1.66667 17.5V11.25L0.630833 10.9917C0.450628 10.9465 0.290674 10.8425 0.176379 10.696C0.0620851 10.5496 4.88369e-06 10.3691 0 10.1833L0 9.58333C0 9.47283 0.0438987 9.36685 0.122039 9.2887C0.200179 9.21057 0.30616 9.16667 0.416667 9.16667H1.66667L3.73333 4.34333C3.86194 4.04333 4.0758 3.7877 4.34838 3.60815C4.62096 3.4286 4.94026 3.33304 5.26667 3.33333H14.7333C15.0595 3.33337 15.3784 3.42908 15.6507 3.60861C15.9229 3.78814 16.1365 4.04359 16.265 4.34333L18.3333 9.16667H19.5833C19.6938 9.16667 19.7998 9.21057 19.878 9.2887C19.9561 9.36685 20 9.47283 20 9.58333V10.1833C20 10.3691 19.9379 10.5496 19.8236 10.696C19.7093 10.8425 19.5494 10.9465 19.3692 10.9917L18.3333 11.25V17.5C18.3333 17.721 18.2455 17.933 18.0893 18.0893C17.933 18.2455 17.721 18.3333 17.5 18.3333H16.6667C16.4457 18.3333 16.2337 18.2455 16.0774 18.0893C15.9211 17.933 15.8333 17.721 15.8333 17.5V16.6667ZM16.6667 15V10.8333H3.33333V15H16.6667ZM4.56417 9.16667H15.4358C15.5719 9.16658 15.706 9.13316 15.8262 9.06932C15.9464 9.00548 16.0491 8.91317 16.1254 8.80045C16.2017 8.68774 16.2492 8.55805 16.2638 8.42273C16.2784 8.2874 16.2597 8.15056 16.2092 8.02417L15 5H5L3.79083 8.02417C3.74034 8.15056 3.72157 8.2874 3.73617 8.42273C3.75077 8.55805 3.79829 8.68774 3.87459 8.80045C3.95088 8.91317 4.05362 9.00548 4.17383 9.06932C4.29404 9.13316 4.42806 9.16658 4.56417 9.16667ZM4.16667 11.6667C6.0975 11.6667 7.39917 12.2958 8.07167 13.5533C8.10566 13.6168 8.12262 13.6881 8.12088 13.7601C8.11914 13.8321 8.09877 13.9024 8.06175 13.9642C8.02473 14.0259 7.97233 14.0771 7.90966 14.1126C7.84699 14.1481 7.77619 14.1667 7.70417 14.1667H5C4.77899 14.1667 4.56702 14.0789 4.41074 13.9226C4.25446 13.7663 4.16667 13.5543 4.16667 13.3333V11.6667ZM15.8333 11.6667V13.3333C15.8333 13.5543 15.7455 13.7663 15.5893 13.9226C15.433 14.0789 15.221 14.1667 15 14.1667H12.2958C12.2239 14.1666 12.1532 14.1478 12.0906 14.1123C12.0281 14.0767 11.9758 14.0256 11.9389 13.9638C11.9019 13.902 11.8816 13.8318 11.8799 13.7598C11.8782 13.6879 11.8952 13.6168 11.9292 13.5533C12.6 12.295 13.9017 11.6667 15.8333 11.6667Z" fill="#EF7F1A"/>
</svg>
