<svg width="48" height="49" viewBox="0 0 48 49" fill="none" xmlns="http://www.w3.org/2000/svg">
<path d="M35.3138 30.156L32.4858 27.328L35.3138 24.5C36.0567 23.7571 36.646 22.8752 37.048 21.9046C37.4501 20.9339 37.657 19.8936 37.657 18.843C37.657 17.7924 37.4501 16.7521 37.048 15.7815C36.646 14.8108 36.0567 13.9289 35.3138 13.186C34.5709 12.4431 33.689 11.8538 32.7184 11.4518C31.7477 11.0497 30.7074 10.8428 29.6568 10.8428C28.6062 10.8428 27.5659 11.0497 26.5953 11.4518C25.6246 11.8538 24.7427 12.4431 23.9998 13.186L21.1718 16.014L18.3438 13.186L21.1718 10.358C23.4284 8.13786 26.4709 6.89933 29.6366 6.91222C32.8022 6.92511 35.8345 8.18837 38.073 10.4268C40.3115 12.6653 41.5747 15.6976 41.5876 18.8633C41.6005 22.0289 40.362 25.0714 38.1418 27.328L35.3138 30.156ZM29.6558 35.814L26.8278 38.642C25.7168 39.7712 24.3933 40.6693 22.9335 41.2844C21.4738 41.8996 19.9066 42.2196 18.3226 42.226C16.7385 42.2325 15.1688 41.9252 13.7041 41.322C12.2393 40.7188 10.9085 39.8315 9.78842 38.7114C8.6683 37.5913 7.78104 36.2605 7.17782 34.7957C6.5746 33.331 6.26735 31.7613 6.2738 30.1773C6.28025 28.5932 6.60027 27.0261 7.2154 25.5663C7.83053 24.1065 8.7286 22.783 9.8578 21.672L12.6858 18.844L15.5138 21.672L12.6858 24.5C11.9429 25.2429 11.3536 26.1248 10.9516 27.0955C10.5495 28.0661 10.3426 29.1064 10.3426 30.157C10.3426 31.2076 10.5495 32.2479 10.9516 33.2186C11.3536 34.1892 11.9429 35.0711 12.6858 35.814C13.4287 36.5569 14.3106 37.1462 15.2813 37.5482C16.2519 37.9503 17.2922 38.1572 18.3428 38.1572C19.3934 38.1572 20.4337 37.9503 21.4044 37.5482C22.375 37.1462 23.2569 36.5569 23.9998 35.814L26.8278 32.986L29.6558 35.814ZM29.6558 16.014L32.4858 18.844L18.3438 32.984L15.5138 30.156L29.6558 16.016V16.014ZM11.5498 5.08602L15.4138 4.05002L17.4838 11.78L13.6218 12.816L11.5498 5.08802V5.08602ZM30.5158 37.222L34.3778 36.186L36.4498 43.914L32.5858 44.95L30.5158 37.222ZM4.5858 12.05L12.3138 14.122L11.2778 17.984L3.5498 15.914L4.5858 12.05ZM36.7218 31.016L44.4498 33.086L43.4138 36.95L35.6858 34.878L36.7218 31.016Z" fill="#EF7F1A"/>
</svg>
